<?xml version="1.0" standalone="no"?>
<!DOCTYPE svg PUBLIC "-//W3C//DTD SVG 1.1//EN" "http://www.w3.org/Graphics/SVG/1.1/DTD/svg11.dtd">
<svg xmlns="http://www.w3.org/2000/svg">
  <defs>
    <font id="SpaceGrotesk" horiz-adv-x="537">
      <font-face font-family="Space Grotesk Light Medium" units-per-em="1000" panose-1="0 0 0 0 0 0 0 0 0 0" ascent="984" descent="-292" alphabetic="0" />
      <glyph unicode=" " glyph-name="gid2" horiz-adv-x="255" />
      <glyph unicode="!" glyph-name="gid88" horiz-adv-x="276" d="M85,209V700H190V209H85ZM138-14Q103-14 79.5,9T56,68t23.5,58.5T138,149t58.5-23T220,68q0-36-23.5-59T138-14Z" />
      <glyph unicode="&quot;" glyph-name="gid76" horiz-adv-x="470" d="M77,430v59h34q41,0 41,41v32H137q-35,0-58,21T56,636q0,35 23,56.5T137,714t57.5-22.5T217,633V529q0-99-99-99H77Zm197,0v59h34q41,0 41,41v32H334q-35,0-58,21t-23,53q0,35 23,56.5T334,714t57.5-22.5T414,633V529q0-99-99-99H274Z" />
      <glyph unicode="#" glyph-name="gid174" horiz-adv-x="632" d="M158,0V195H41v89H158V416H41v89H158V700h94V505H380V700h93V505H591V416H473V284H591V195H473V0H380V195H252V0H158Zm94,284H380V416H252V284Z" />
      <glyph unicode="$" glyph-name="gid176" horiz-adv-x="609" d="M311-14q-79,0-140,28T75.5,96.5T41,229v25H148V229q0-74 44.5-111T311,81q75,0 113,31.5T462,194q0,33-17.5,54T394,281.5T315,305l-37,9q-67,16-116,39.5T86,416T59,516q0,62 30,106t84,68t127,24t130.5-25t91-74T555,492V456H448v36q0,45-18.5,73t-52,41T300,619q-64,0-99-26.5T166,519q0-32 15.5-52.5T227,433t74-23l37-9q68-15 120-38.5T539.5,299T569,196T537.5,86T448,12.5T311-14ZM261-116V816h99V-116H261Z" />
      <glyph unicode="%" glyph-name="gid181" horiz-adv-x="765" d="M141-13L77,39L624,713l64-52L141-13Zm433,2q-74,0-117,41.5T414,143v6q0,72 43,113.5T574,304q73,0 117-41.5T735,149v-6q0-71-43.5-112.5T574-11Zm0,70q36,0 56.5,22T651,139v14q0,37-20.5,59T574,234q-35,0-55.5-22T498,153V139q0-36 20.5-58T574,59ZM191,396q-74,0-117.5,41.5T30,550v7q0,72 43.5,113T191,711q73,0 116.5-41T351,557v-7q0-71-43-112.5T191,396Zm0,70q35,0 55.5,22.5T267,547v14q0,36-20.5,58T191,641q-36,0-56.5-22T114,561V547q0-36 20.5-58.5T191,466Z" />
      <glyph unicode="&amp;" glyph-name="gid101" horiz-adv-x="598" d="M242,0Q182,0 135.5,22t-73,64T36,187q0,44 16,76t43.5,53.5T155,348v13q-48,15-81,52T41,513q0,61 27.5,102.5t73.5,63T246,700H364V613H263q-50,0-84-26.5T145,505q0-38 16.5-61.5t43-35T263,397H380v99H483V397h95V310H483V0H242Zm17,87H380V310H259q-50,0-85-27.5T139,198t36-84t84-27Z" />
      <glyph unicode="&apos;" glyph-name="gid75" horiz-adv-x="273" d="M77,430v59h34q41,0 41,41v32H137q-35,0-58,21T56,636q0,35 23,56.5T137,714t57.5-22.5T217,633V529q0-99-99-99H77Z" />
      <glyph unicode="(" glyph-name="gid69" horiz-adv-x="389" d="M380-240q-104,0-177,36T92.5-91.5T55,105V405q0,120 37.5,196.5T203,714t177,36V662q-114-1-169.5-64.5T155,401V109q0-133 55.5-196.5T380-152v-88Z" />
      <glyph unicode=")" glyph-name="gid70" horiz-adv-x="383" d="M3-240v88q116,1 171,64.5T229,109V401q0,133-55,196.5T3,662v88q105,0 177.5-36t110-112.5T328,405V105q0-120-37.5-196.5T180.5-204T3-240Z" />
      <glyph unicode="*" glyph-name="gid102" horiz-adv-x="530" d="M45,448v64h82l70-11l5,12l-57,42L87,613l45,45l58-57l42-58l12,5l-11,71v81h64V619l-11-71l12-5l42,58l58,57l45-45l-57-58l-58-42l5-12l70,11h82V448H403l-70,11l-5-12l58-42l57-58l-45-45l-58,58l-42,58l-12-5l11-71V261H233v81l11,71l-12,5l-42-58l-58-58L87,347l58,58l57,42l-5,12l-70-11H45Z" />
      <glyph unicode="+" glyph-name="gid185" horiz-adv-x="620" d="M261,141V303H101v94H261V559h98V397H519V303H359V141H261Z" />
      <glyph unicode="," glyph-name="gid84" horiz-adv-x="273" d="M77-136v59h34q41,0 41,41V-4H137Q102-4 79,17T56,70q0,35 23,56.5T137,148t57.5-22.5T217,67V-37q0-99-99-99H77Z" />
      <glyph unicode="-" glyph-name="gid94" horiz-adv-x="443" d="M74,209v94H370V209H74Z" />
      <glyph unicode="." glyph-name="gid83" horiz-adv-x="276" d="M138-14Q103-14 79.5,9T56,68t23.5,58.5T138,149t58.5-23T220,68q0-36-23.5-59T138-14Z" />
      <glyph unicode="/" glyph-name="gid71" horiz-adv-x="379" d="M-8-200L286,700H389L95-200H-8Z" />
      <glyph unicode="0" glyph-name="gid55" horiz-adv-x="645" d="M322-14Q200-14 127.5,55.5T55,265V435q0,137 72.5,208T322,714q123,0 195.5-71T590,435V265q0-140-72.5-209.5T322-14Zm0,94q83,0 123,47.5T485,261V441q0,86-43,132.5T322,620q-78,0-120-47.5T160,441V261q0-88 40.5-134.5T322,80Z" />
      <glyph unicode="1" glyph-name="gid56" horiz-adv-x="435" d="M257,0V626H241L126,390H15L170,700H362V0H257Z" />
      <glyph unicode="2" glyph-name="gid57" horiz-adv-x="598" d="M48,0V79q0,73 25,120t71.5,76.5T257,325l61,19q41,13 70.5,32T434,423.5T450,490v4q0,59-40,92.5T305,620q-67,0-108.5-36T155,478V462H51v15q0,76 33,128.5T175,686t130,28t128.5-27t89-76T555,496v-9q0-68-27-113t-74.5-74T344,251l-59-18q-47-14-75.5-30.5t-42-39.5T154,104V94H549V0H48Z" />
      <glyph unicode="3" glyph-name="gid58" horiz-adv-x="606" d="M304-14q-77,0-137,28T73.5,95T40,221v18H145V223q0-66 43.5-104.5T304,80t112,36t40,91v9q0,39-19,63t-51,35.5T314,326H187V447L433,592v14H57v94H547V558L312,418V404h43q53,0 100-20t76.5-61T561,219V207q0-67-32-116.5t-90-77T304-14Z" />
      <glyph unicode="4" glyph-name="gid59" horiz-adv-x="630" d="M383,0V143H29V265L297,700H488V236H606V143H488V0H383ZM131,236H383V634H367L131,250V236Z" />
      <glyph unicode="5" glyph-name="gid60" horiz-adv-x="599" d="M302-14q-79,0-137,29T75.5,97T44,220v11H151V221q0-64 39.5-102.5T301,80q73,0 113,40t40,108v9q0,65-39.5,104T314,380q-34,0-56.5-10.5t-36-25.5T199,315H66V700H535V605H171V399h16q10,17 28.5,32.5T264,457t72,10q62,0 112.5-26.5t80.5-78T559,238V227q0-73-31-127T439.5,16T302-14Z" />
      <glyph unicode="6" glyph-name="gid61" horiz-adv-x="615" d="M311-14q-76,0-134,29.5T87,98T55,221V463q0,82 32.5,138T179,685.5T316,714q77,0 133-26.5t86-75T565,499H459q0,52-34.5,86.5T316,620q-75,0-115.5-39.5T160,471V387h16q17,24 55.5,46T341,455q62,0 114-27t83.5-77T570,230V218q0-69-33-121.5T445.5,15T311-14Zm1,94q70,0 111.5,38T465,220v8q0,43-19,74.5T392.5,352T312,370q-45,0-79.5-18T179,302.5T160,228v-8q0-64 41.5-102T312,80Z" />
      <glyph unicode="7" glyph-name="gid62" horiz-adv-x="559" d="M141,0V25q0,38 6,63.5T172,148L422,593v13H29v94H531V576L268,104q-12-22-17-39.5T246,21V0H141Z" />
      <glyph unicode="8" glyph-name="gid63" horiz-adv-x="611" d="M306-14q-81,0-141.5,24t-94,69.5T37,186v11q0,50 19.5,82.5t48,51T158,355v16q-25,7-51,25.5t-42.5,49T48,519v11q0,56 32.5,97T171,691t135,23q76,0 134-23t90.5-64T563,530V519q0-43-16.5-73.5t-41.5-49T454,371V355q26-6 54-24.5t47-51T574,197V186q0-61-33.5-106.5T446.5,10T306-14Zm0,94q76,0 119.5,29.5T469,192v8q0,54-42.5,83.5T306,313T185,283.5T142,200v-8q0-53 43.5-82.5T306,80Zm0,327q71,0 111.5,27T458,510v8q0,49-41,75.5T306,620q-71,0-112-26.5T153,518v-8q0-49 40.5-76T306,407Z" />
      <glyph unicode="9" glyph-name="gid64" horiz-adv-x="615" d="M300-14q-78,0-134,26.5t-86,75T50,201H157q0-52 34.5-86.5T300,80q75,0 115,40t40,109v84H439q-17-24-55-46T274,245q-61,0-113,27T77.5,349.5T46,470v12q0,70 32.5,122t91,81T304,714q77,0 134.5-29.5t89.5-82T560,479V237q0-82-32.5-138t-91-84.5T300-14Zm3,344q46,0 80,18t53,49.5T455,472v8q0,65-41.5,102.5T303,620T192.5,582.5T151,480v-8q0-43 18.5-74.5t53-49.5T303,330Z" />
      <glyph unicode=":" glyph-name="gid85" horiz-adv-x="276" d="M138-14Q103-14 79.5,9T56,68t23.5,58.5T138,149t58.5-23T220,68q0-36-23.5-59T138-14Zm0,357q-35,0-58.5,23T56,425t23.5,58.5T138,506t58.5-23T220,425q0-36-23.5-59T138,343Z" />
      <glyph unicode=";" glyph-name="gid86" horiz-adv-x="276" d="M138,343q-35,0-58.5,23T56,425t23.5,58.5T138,506t58.5-23T220,425q0-36-23.5-59T138,343ZM78-136v59h34q41,0 41,41V-4H138Q103-4 80,17T57,70q0,35 23,56.5T138,148t57.5-22.5T218,67V-37q0-99-99-99H78Z" />
      <glyph unicode="&lt;" glyph-name="gid190" horiz-adv-x="620" d="M520,130L100,285V415L520,570V467L202,358V342L520,233V130Z" />
      <glyph unicode="=" glyph-name="gid189" horiz-adv-x="620" d="M101,384v94H519V384H101Zm0-162v94H519V222H101Z" />
      <glyph unicode="&gt;" glyph-name="gid191" horiz-adv-x="620" d="M100,130V233L419,342v16L100,467V570L520,415V285L100,130Z" />
      <glyph unicode="?" glyph-name="gid90" horiz-adv-x="579" d="M223,209v42q0,48 18.5,78T305,380l22,10q48,21 75,48t27,75q0,35-18,59t-49,37t-71,13t-73.5-13.5T164,567t-20-70V469H38v28q0,68 33.5,117T162,688.5T291,714q71,0 126-26t86.5-71T535,513q0-58-21.5-96.5T458,354t-72-41l-22-10q-18-8-25.5-20T331,247V209H223ZM279-14q-34,0-57.5,23T198,68t23.5,58.5T279,149q36,0 59-22.5T361,68T338,9T279-14Z" />
      <glyph unicode="@" glyph-name="gid100" horiz-adv-x="1020" d="M528-200q-139,0-241.5,53.5T128,6T72,244v23q0,138 54,237T279.5,656T513,709h21q126,0 220-51.5t146-145T952,292V237q0-116-44.5-176.5T778,0H732q-44,0-67,18.5T642,69v6H626q-8-21-24.5-40.5T558.5,3T490-9Q429-9 382.5,24t-72,88.5T285,238v17q0,70 25,125.5t69.5,88T483,501q41,0 67.5-10.5T593,463t26-36h16v65H735V121q0-15 6.5-22.5T763,91h8q43,0 61.5,35.5T851,239v51q0,102-37,175T706.5,577T532,616H516q-104,0-181.5-40T215,457.5T173,263V247q0-115 44-194T342-66.5T534-107H736v-93H528ZM510,81q56,0 90.5,42.5T635,241v11q0,75-34.5,117.5T510,412t-89.5-43T387,252V240q0-74 33.5-116.5T510,81Z" />
      <glyph unicode="A" glyph-name="gid3" horiz-adv-x="632" d="M21,0L221,700H411L610,0H499L453,165H179L133,0H21ZM206,265H426L324,633H308L206,265Z" />
      <glyph unicode="B" glyph-name="gid4" horiz-adv-x="663" d="M47,0V96h94V604H47v96H402q63,0 110-21.5t73.5-61T612,524V514q0-48-18-79t-43.5-48T502,363V347q23-6 49.5-23.5t45-48.5T615,194V184q0-58-27-99T513.5,22T404,0H47ZM250,98H391q54,0 85,26t31,72v9q0,46-30.5,72T391,303H250V98Zm0,304H391q51,0 82,25.5T504,497v10q0,44-30.5,69.5T391,602H250V402Z" />
      <glyph unicode="C" glyph-name="gid5" horiz-adv-x="643" d="M333-14Q205-14 130,58.5T55,268V432q0,137 75,209.5T333,714q126,0 194.5-70T596,453v-6H489v9q0,71-38.5,116T333,617q-80,0-125-48.5T163,434V266q0-85 45-134T333,83q79,0 117.5,45.5T489,244v17H596V247q0-121-68.5-191T333-14Z" />
      <glyph unicode="D" glyph-name="gid6" horiz-adv-x="665" d="M47,0V96h94V604H47v96H327q140,0 214.5-71T616,415V284q0-143-74.5-213.5T327,0H47ZM250,98h78q91,0 135,46t44,137V419q0,92-44,137T328,601H250V98Z" />
      <glyph unicode="E" glyph-name="gid7" horiz-adv-x="559" d="M73,0V700H514V602H181V401H486V303H181V98H519V0H73Z" />
      <glyph unicode="F" glyph-name="gid8" horiz-adv-x="537" d="M73,0V700H505V602H181V400H479V302H181V0H73Z" />
      <glyph unicode="G" glyph-name="gid9" horiz-adv-x="661" d="M316-14q-75,0-134,32.5T89,114T55,268V432q0,137 75,209.5T333,714q126,0 194-68.5T595,462v-5H488v8q0,43-17,77.5T420,597t-87,20q-80,0-125-48.5T163,434V266q0-85 45-134.5T334,82q80,0 117,44t37,114v13H300v93H595V0H495V71H479q-9-19-26.5-39t-50-33T316-14Z" />
      <glyph unicode="H" glyph-name="gid10" horiz-adv-x="656" d="M73,0V700H181V400H475V700H583V0H475V302H181V0H73Z" />
      <glyph unicode="I" glyph-name="gid11" horiz-adv-x="254" d="M73,0V700H181V0H73Z" />
      <glyph unicode="J" glyph-name="gid12" horiz-adv-x="602" d="M265-14Q160-14 98,44.5T36,210v60H144V210q0-56 30.5-89.5T263,87q56,0 83,33t27,90V602H251v98H559V602H481V210q0-109-56.5-166.5T265-14Z" />
      <glyph unicode="K" glyph-name="gid13" horiz-adv-x="618" d="M73,0V700H181V409h16L458,700H599L283,355L610,0H465L197,297H181V0H73Z" />
      <glyph unicode="L" glyph-name="gid14" horiz-adv-x="544" d="M73,0V700H181V98H518V0H73Z" />
      <glyph unicode="M" glyph-name="gid15" horiz-adv-x="874" d="M73,0V700H276L429,72h16L598,700H801V0H696V624H680L528,0H346L194,624H178V0H73Z" />
      <glyph unicode="N" glyph-name="gid16" horiz-adv-x="667" d="M73,0V700H281L471,72h16V700H594V0H386L196,629H180V0H73Z" />
      <glyph unicode="O" glyph-name="gid17" horiz-adv-x="673" d="M336-14Q207-14 131,58.5T55,268V432q0,137 76,209.5T336,714t205.5-72.5T618,432V268q0-137-76.5-209.5T336-14Zm0,97q83,0 128,48.5T509,264V436q0,84-45,132.5T336,617q-81,0-127-48.5T163,436V264q0-84 46-132.5T336,83Z" />
      <glyph unicode="P" glyph-name="gid18" horiz-adv-x="603" d="M73,0V700H351q64,0 114.5-25.5t79-72T573,491V478q0-65-29.5-112T464,294T351,269H181V0H73ZM181,367H340q57,0 91,30t34,82v10q0,53-34,83t-91,30H181V367Z" />
      <glyph unicode="Q" glyph-name="gid19" horiz-adv-x="673" d="M336-14Q207-14 131,58.5T55,268V432q0,137 76,209.5T336,714t205.5-72.5T618,432V268q0-137-76.5-209.5T336-14Zm0,97q83,0 128,48.5T509,264V436q0,84-45,132.5T336,617q-81,0-127-48.5T163,436V264q0-84 46-132.5T336,83Zm43-254q-43,0-69.5,26.5T283-73V0H389V-55q0-30 28-30h62v-86H379Z" />
      <glyph unicode="R" glyph-name="gid20" horiz-adv-x="632" d="M73,0V700H367q65,0 114.5-22.5t77-64.5T586,513V502q0-66-31.5-105.5T478,341V325q38-2 61-25.5T562,232V0H453V217q0,27-14,43t-45,16H181V0H73ZM181,374H355q58,0 90,29.5T477,484v8q0,51-31.5,80.5T355,602H181V374Z" />
      <glyph unicode="S" glyph-name="gid21" horiz-adv-x="609" d="M311-14q-79,0-140,28T75.5,96.5T41,229v25H148V229q0-74 44.5-111T311,81q75,0 113,31.5T462,194q0,33-18,54t-51,33.5T314,305l-37,9q-67,16-116.5,39.5T84,416T57,516q0,62 30.5,106T172,690t127,24t130.5-25T520,615t33-123V456H446v36q0,45-18.5,73T376,606t-77,13q-64,0-99.5-26.5T164,519q0-32 15.5-52.5T225,433t75-23l37-9q68-15 120-38.5T539,299t30-103T537.5,86T448,12.5T311-14Z" />
      <glyph unicode="T" glyph-name="gid22" horiz-adv-x="588" d="M240,0V602H25v98H563V602H348V0H240Z" />
      <glyph unicode="U" glyph-name="gid23" horiz-adv-x="669" d="M335-14q-83,0-142.5,30t-92,86.5T68,240V700H177V237q0-74 41-114T335,83t117,40t41,114V700H601V240q0-81-32-137.5T477,16T335-14Z" />
      <glyph unicode="V" glyph-name="gid24" horiz-adv-x="619" d="M216,0L21,700H133L303,68h13L485,700H597L403,0H216Z" />
      <glyph unicode="W" glyph-name="gid25" horiz-adv-x="887" d="M136,0L33,700H141L225,73h16L349,700H538L646,73h16l83,627H853L750,0H561L451,636H435L326,0H136Z" />
      <glyph unicode="X" glyph-name="gid26" horiz-adv-x="641" d="M27,0L242,353L30,700H154L312,430h16L487,700H611L399,353L614,0H489L328,276H312L151,0H27Z" />
      <glyph unicode="Y" glyph-name="gid27" horiz-adv-x="617" d="M254,0V254L11,700H133L301,383h15L484,700H606L363,254V0H254Z" />
      <glyph unicode="Z" glyph-name="gid28" horiz-adv-x="577" d="M48,0V140L416,589v14H59v97H527V560L159,111V97H531V0H48Z" />
      <glyph unicode="[" glyph-name="gid65" horiz-adv-x="347" d="M166-240q-39,0-64.5,25.5T76-150V660q0,39 25.5,64.5T166,750H329V662H203q-27,0-27-30V-122q0-30 27-30H329v-88H166Z" />
      <glyph unicode="\" glyph-name="gid74" horiz-adv-x="379" d="M284-200L-10,700H94L388-200H284Z" />
      <glyph unicode="]" glyph-name="gid66" horiz-adv-x="347" d="M17-240v88H144q27,0 27,30V632q0,30-27,30H17v88H180q40,0 65.5-25.5T271,660V-150q0-39-25.5-64.5T180-240H17Z" />
      <glyph unicode="^" glyph-name="gid193" horiz-adv-x="620" d="M72,424L232,700H388L548,424H431L318,633H302L190,424H72Z" />
      <glyph unicode="_" glyph-name="gid99" horiz-adv-x="620" d="M71-142v93H549v-93H71Z" />
      <glyph unicode="`" glyph-name="gid197" horiz-adv-x="288" d="M148,558L47,700H166l75-142H148Z" />
      <glyph unicode="a" glyph-name="gid29" horiz-adv-x="577" d="M229-14q-53,0-94.5,18t-66,53T44,142q0,51 24.5,84.5t67,50.5T232,294H382v32q0,43-26,69t-80,26q-53,0-81-25t-37-65L62,362q12,40 38.5,72.5T171,487t106,20q96,0 151-49t55-139V116q0-30 28-30h42V0H476q-35,0-57,18T397,67v3H382q-8-15-24-35T311,0.5T229-14Zm15,85q62,0 100,35.5T382,204v10H238q-41,0-66-17.5T147,145t26-54t71-20Z" />
      <glyph unicode="b" glyph-name="gid30" horiz-adv-x="641" d="M361-14q-72,0-110.5,26T193,70H177V0H76V700H179V426h16q12,20 32,38.5T280,495t81,12q62,0 114-30t83-87t31-136V239q0-80-31.5-136.5T474.5,16T361-14ZM331,76q67,0 110.5,43T485,242v9q0,79-43,122T331,416q-66,0-109.5-43T178,251v-9q0-80 43.5-123T331,76Z" />
      <glyph unicode="c" glyph-name="gid31" horiz-adv-x="592" d="M305-14q-71,0-128.5,30t-91,87T52,240v13q0,80 33.5,136.5t91,87T305,507t121-26t80.5-69T546,317L446,296q-5,33-21,60t-45,43t-73,16q-43,0-77.5-19.5t-54.5-56T155,251v-9q0-52 20-89t54.5-56T307,78q65,0 99,33.5T449,197l100-23q-12-51-42.5-94T426,11.5T305-14Z" />
      <glyph unicode="d" glyph-name="gid32" horiz-adv-x="641" d="M280-14q-61,0-113,30T83.5,102.5T52,239v15q0,79 31,136t83,87t114,30q48,0 80.5-12T414,464.5T446,426h16V700H565V0H464V70H448q-19-32-57.5-58T280-14Zm29,90q67,0 110.5,43T463,242v9q0,79-43,122T309,416q-66,0-109.5-43T156,251v-9q0-80 43.5-123T309,76Z" />
      <glyph unicode="e" glyph-name="gid33" horiz-adv-x="584" d="M302-14q-75,0-131,31.5t-87.5,89T52,240v12q0,77 31,134.5t86.5,89T298,507q71,0 124.5-31.5T506,388t30-131V218H157q2-65 43.5-103.5T304,76q58,0 87.5,26T437,162l85-44q-14-28-40.5-59T412,7T302-14ZM158,297H431q-4,56-40,87.5T297,416t-94.5-31.5T158,297Z" />
      <glyph unicode="f" glyph-name="gid34" horiz-adv-x="439" d="M165,0V406H27v87H165V601q0,45 27,72t72,27H391V613H297q-29,0-29-30V493H410V406H268V0H165Z" />
      <glyph unicode="g" glyph-name="gid35" horiz-adv-x="640" d="M52,244v15q0,78 31.5,133T167,477t114,30q72,0 110.5-27T448,422h16v71H564V-101q0-45-26.5-72T465-200H133v90H433q29,0 29,30V77H446q-11-18-31-37T362.5,9T281-3Q219-3 166.5,26.5T83,111.5T52,244ZM309,87q67,0 110.5,42.5T463,247v9q0,77-43,118.5T309,416q-66,0-109.5-41.5T156,256v-9q0-75 43.5-117.5T309,87Z" />
      <glyph unicode="h" glyph-name="gid36" horiz-adv-x="615" d="M76,0V700H179V423h16q10,19 28.5,37t49,29.5T350,501q56,0 99.5-25T518,405.5T543,296V0H440V288q0,64-32,94.5T320,413q-64,0-102.5-42T179,249V0H76Z" />
      <glyph unicode="i" glyph-name="gid37" horiz-adv-x="256" d="M76,0V493H179V0H76Zm52,560q-30,0-50.5,19.5T57,630t20.5,50.5T128,700q31,0 51-19.5T199,630t-20-50.5T128,560Z" />
      <glyph unicode="j" glyph-name="gid38" horiz-adv-x="258" d="M-18-200v89H49q29,0 29,30V493H181V-101q0-45-26-72T82-200H-18ZM130,560q-30,0-50.5,19.5T59,630t20.5,50.5T130,700q31,0 51-19.5T201,630t-20-50.5T130,560Z" />
      <glyph unicode="k" glyph-name="gid39" horiz-adv-x="551" d="M76,0V700H179V301h16L389,493H526L277,254L534,0H398L195,205H179V0H76Z" />
      <glyph unicode="l" glyph-name="gid40" horiz-adv-x="256" d="M76,0V700H179V0H76Z" />
      <glyph unicode="m" glyph-name="gid41" horiz-adv-x="857" d="M76,0V493H177V435h16q14,26 45,46t84,20q55,0 88.5-22.5T461,421h16q17,34 49.5,57T619,501q48,0 85-19.5t59-58T785,328V0H682V320q0,45-24.5,69.5T588,414q-48,0-77-31t-29-89V0H379V320q0,45-24.5,69.5T285,414q-48,0-77-31t-29-89V0H76Z" />
      <glyph unicode="n" glyph-name="gid42" horiz-adv-x="615" d="M76,0V493H177V419h16q14,30 50,56t107,26q56,0 99.5-25T518,405.5T543,296V0H440V288q0,64-32,94.5T320,413q-64,0-102.5-42T179,249V0H76Z" />
      <glyph unicode="o" glyph-name="gid43" horiz-adv-x="615" d="M307-14q-74,0-131.5,30.5T85,104T52,239v15q0,78 33,134.5T175.5,476T307,507t132-31t91-87.5T563,254V239q0-78-33-135T439,16.5T307-14Zm0,92q68,0 110.5,43.5T460,242v9q0,77-42,120.5T307,415q-67,0-109.5-43.5T155,251v-9q0-77 42.5-120.5T307,78Z" />
      <glyph unicode="p" glyph-name="gid44" horiz-adv-x="641" d="M76-200V493H177V422h16q19,33 57.5,59T361,507q62,0 113.5-30t83-86.5T589,254V239q0-80-31-136.5T475,16T361-14q-48,0-81,12T227,28.5T195,67H179V-200H76ZM331,76q68,0 111,43t43,123v9q0,79-43.5,122T331,416q-66,0-109.5-43T178,251v-9q0-80 43.5-123T331,76Z" />
      <glyph unicode="q" glyph-name="gid45" horiz-adv-x="641" d="M462-200V67H446q-11-20-32-38.5T360.5-2T280-14q-62,0-114,30T83,102.5T52,239v15q0,80 31.5,136.5T167,477t113,30q72,0 110.5-26T448,422h16v71H565V-200H462ZM309,76q68,0 111,43t43,123v9q0,79-43.5,122T309,416q-66,0-109.5-43T156,251v-9q0-80 43.5-123T309,76Z" />
      <glyph unicode="r" glyph-name="gid46" horiz-adv-x="387" d="M76,0V493H177V435h16q12,31 38.5,45.5T297,495h59V402H293q-50,0-82-27.5T179,290V0H76Z" />
      <glyph unicode="s" glyph-name="gid47" horiz-adv-x="525" d="M278-14q-94,0-156,42T46,155l96,23q8-41 27-65t47.5-34T278,69q49,0 75.5,19T380,137t-25,44t-74,23l-34,6q-50,9-91,26T91,283T67,360q0,70 52,108.5T257,507q83,0 136.5-37.5T463,368l-96-27q-9,45-38,63.5T257,423q-42,0-66-15.5T167,364q0-30 23.5-44T254,299l35-6q53-9 97-25t69.5-46T481,142q0-74-55-115T278-14Z" />
      <glyph unicode="t" glyph-name="gid48" horiz-adv-x="458" d="M261,0q-45,0-71.5,27T163,99V406H27v87H163V656H266V493H413V406H266V117q0-30 28-30H397V0H261Z" />
      <glyph unicode="u" glyph-name="gid49" horiz-adv-x="614" d="M265-9Q209-9 165,16T96,87T71,197V493H174V204q0-64 32-94.5T295,79q63,0 101.5,42.5T435,244V493H538V0H437V74H421q-14-30-50-56.5T265-9Z" />
      <glyph unicode="v" glyph-name="gid50" horiz-adv-x="544" d="M190,0L24,493H133L264,76h16L411,493H520L354,0H190Z" />
      <glyph unicode="w" glyph-name="gid51" horiz-adv-x="792" d="M130,0L46,493H149L211,69h16l86,424H480L565,69h16l62,424H746L662,0H489L404,423H388L303,0H130Z" />
      <glyph unicode="x" glyph-name="gid52" horiz-adv-x="593" d="M34,0L222,249L38,493H159L288,316h16L433,493H555L370,249L558,0H435L304,181H288L157,0H34Z" />
      <glyph unicode="y" glyph-name="gid53" horiz-adv-x="614" d="M133-200v90H408q28,0 28,30V72H420q-9-20-27.5-38.5T343,3T265-9Q209-9 165,16T96,87T71,196V493H174V204q0-64 32-94.5T295,79q63,0 101.5,42T435,243V493H538V-101q0-45-26.5-72T439-200H133Z" />
      <glyph unicode="z" glyph-name="gid54" horiz-adv-x="519" d="M56,0V126L347,392v14H66v87H459V366L167,100V87H467V0H56Z" />
      <glyph unicode="{" glyph-name="gid67" horiz-adv-x="449" d="M269-240q-40,0-65,25.5T179-150V166q0,40-41,40H37v98H138q41,0 41,40V660q0,39 25,64.5T269,750H432V662H305q-27,0-27-30V343q0-35-20.5-57.5T202,263H191V247h11q35,0 55.5-22.5T278,167V-122q0-30 27-30H432v-88H269Z" />
      <glyph unicode="|" glyph-name="gid72" horiz-adv-x="249" d="M73-246V806H176V-246H73Z" />
      <glyph unicode="}" glyph-name="gid68" horiz-adv-x="449" d="M17-240v88H144q27,0 27,30V167q0,35 20.5,57.5T247,247h12v16H247q-35,0-55.5,22.5T171,343V632q0,30-27,30H17v88H180q40,0 65.5-25.5T271,660V344q0-40 40-40H412V206H311q-40,0-40-40V-150q0-39-25.5-64.5T180-240H17Z" />
      <glyph unicode="~" glyph-name="gid194" horiz-adv-x="620" d="M121,253L63,328l107,82q19,15 39.5,26T257,447q29,0 47-13.5T336,400q13-18 20.5-26.5T377,365q11,0 20.5,5.5T418,385l80,62l58-75L450,290q-19-15-39.5-26T363,253q-29,0-47.5,13.5T283,300q-12,19-19.5,27T242,335q-11,0-20-5.5T201,315l-80-62Z" />
      <glyph unicode="&#xa0;" glyph-name="gid253" horiz-adv-x="255" />
      <glyph unicode="&#xa1;" glyph-name="gid89" horiz-adv-x="276" d="M85-200V283H190V-200H85Zm53,707q35,0 58.5-23T220,425t-23.5-59T138,343T79.5,366T56,425t23.5,59T138,507Z" />
      <glyph unicode="&#xa2;" glyph-name="gid179" horiz-adv-x="598" d="M308-14q-72,0-129.5,30T88,103T55,240v13q0,80 33,136.5t90.5,87T308,507q71,0 121-26t80-69t39-95L448,296q-4,33-20,60t-45.5,43T310,415t-77.5-19.5t-54.5-56T158,251v-9q0-52 20-89t54.5-56T310,78q65,0 99,33.5T451,197l100-23q-11-51-41.5-94T429,11.5T308-14ZM263-116V612h94V-116H263Z" />
      <glyph unicode="&#xa3;" glyph-name="gid177" horiz-adv-x="633" d="M55,0V94h74V297H59v84h70V496q0,105 59.5,161.5T350,714t161.5-56.5T571,496V435H467v63q0,57-30.5,89.5T350,620q-54,0-85.5-32.5T233,498V381H345V297H233V94H575V0H55Z" />
      <glyph unicode="&#xa4;" glyph-name="gid175" horiz-adv-x="620" d="M109,84L44,149l60,60q-22,30-33,65.5T60,350q0,39 11,75t33,66L44,551l65,65l60-60q30,20 65.5,32T310,600q39,0 75-12t66-32l60,60l65-65l-60-60q20-30 32-66t12-75q0-40-12-75.5T516,209l60-60L511,84l-60,60q-30-22-66-33t-75-11q-40,0-75.5,11T169,144L109,84ZM310,190q45,0 81,21t57,57t21,82t-21,82t-57,57.5T310,511q-44,0-80.5-21.5T172,432t-21-82q0-45 21-81.5T229,211t81-21Z" />
      <glyph unicode="&#xa5;" glyph-name="gid178" horiz-adv-x="620" d="M256,0V276l-18,8L7,700H131L302,384h16L489,700H613L382,284l-18-8V0H256ZM95,128v85H525V128H95Zm0,141v85H525V269H95Z" />
      <glyph unicode="&#xa6;" glyph-name="gid73" horiz-adv-x="249" d="M73,366V806H176V366H73Zm0-612V194H176V-246H73Z" />
      <glyph unicode="&#xa7;" glyph-name="gid169" horiz-adv-x="486" d="M248-14Q150-14 93,40T36,184v17h92V187q0-53 30-84.5T248,71q48,0 73,21t25,58q0,36-24.5,54.5T237,234q-87,15-132.5,52.5T59,392q0,24 6,44t18,38q-24,34-24,81v5q0,49 24,83t64.5,52.5T239,714q85,0 139-43.5T432,550V523H341v19q0,26-12,45.5T294.5,618T241,629q-39,0-64-17.5T152,560q0-39 32.5-56.5T268,476q87-17 129.5-53.5T440,322q0-50-22-85q10-17 15.5-36t5.5-41v-7q0-74-49-120.5T248-14Zm92,310q3,5 4,10t1,12q0,30-24,48t-83,28q-22,4-42,10.5T159,418q-7-11-7-26q0-33 30.5-49.5T267,316q24-4 41-8.5T340,296Z" />
      <glyph unicode="&#xa8;" glyph-name="gid201" horiz-adv-x="432" d="M314,557q-29,0-49.5,19T244,627t20.5,51T314,697q31,0 51-19t20-51t-20-51t-51-19Zm-196,0q-30,0-50.5,19T47,627t20.5,51T118,697t50-19t20-51t-20-51t-50-19Z" />
      <glyph unicode="&#xa9;" glyph-name="gid171" horiz-adv-x="712" d="M348-12q-89,0-155,35T91,125.5T55,292V408q0,99 36,166.5T193,677t155,35h17q89,0 155-35T621.5,574.5T657,408V292q0-99-35.5-166.5T520,23T365-12H348Zm2,81h13q99,0 153.5,55.5T571,291V409q0,111-54.5,166.5T363,631H350q-100,0-154.5-55.5T141,409V291q0-111 54.5-166.5T350,69Zm10,75q-66,0-105,39.5T216,297V403q0,75 39.5,115T359,558q70,0 105-39.5T499,416V399H417v23q0,26-13.5,42.5T360,481q-28,0-44.5-16.5T299,418V282q0-29 17-45t44-16q28,0 42.5,15.5T417,281v21h82V286q0-64-34.5-103T360,144Z" />
      <glyph unicode="&#xaa;" glyph-name="gid167" horiz-adv-x="419" d="M166,340q-55,0-92,28T37,451q0,53 38,80t94,27H269v19q0,31-16.5,49.5T199,645t-55.5-17.5T119,586L48,608q11,41 48.5,71T201,709q66,0 106-34.5T347,573V434q0-22 19-22h33V350H342q-26,0-41.5,12.5T284,397H272q-5-11-16.5-24.5t-33-23T166,340Zm13,64q42,0 66,21t24,64v10H175q-27,0-44-12t-17-34t17.5-35.5T179,404Z" />
      <glyph unicode="&#xab;" glyph-name="gid241" horiz-adv-x="702" d="M627,13L336,190V305L627,482h6V371L432,255V240L633,124V13h-6ZM343,13L52,190V305L343,482h6V371L148,255V240L349,124V13h-6Z" />
      <glyph unicode="&#xac;" glyph-name="gid195" horiz-adv-x="620" d="M428,188V303H101v94H519V188H428Z" />
      <glyph unicode="&#xad;" glyph-name="gid273" horiz-adv-x="443" d="M74,209v94H370V209H74Z" />
      <glyph unicode="&#xae;" glyph-name="gid172" horiz-adv-x="523" d="M262,298q-60,0-107.5,26.5T79.5,398T52,506T79.5,614t75,73.5T262,714t107.5-26.5t75-73.5T472,506T444.5,398t-75-73.5T262,298Zm0,41q76,0 121.5,45.5T429,506T383.5,627.5T262,673T140,627.5T94,506t46-121.5T262,339Zm-72,58V619h85q37,0 56-18t19-43q0-19-9.5-33.5T310,502v-8q17-1 24.5-11.5T342,457V397H301v61q0,21-21,21H230V397H190Zm40,118h46q17,0 25,10.5t8,23.5q0,14-8,23.5T276,582H230V515Z" />
      <glyph unicode="&#xaf;" glyph-name="gid202" horiz-adv-x="412" d="M47,570v83H365V570H47Z" />
      <glyph unicode="&#xb0;" glyph-name="gid196" horiz-adv-x="388" d="M194,401q-45,0-81,20T55.5,476.5T34,558q0,45 21.5,80.5T113,694t81,20t81-20t57.5-55.5T354,557q0-45-21.5-80.5T275,421t-81-20Zm0,81q33,0 54,21t21,55t-21,54.5T194,633t-54-20.5T119,557q0-33 21-54t54-21Z" />
      <glyph unicode="&#xb1;" glyph-name="gid192" horiz-adv-x="620" d="M261,155V304H101v94H261V546h98V398H519V304H359V155H261ZM101,0V94H519V0H101Z" />
      <glyph unicode="&#xb2;" glyph-name="gid209" horiz-adv-x="365" d="M27,350v37q0,58 33,92t101,49q49,11 72.5,26.5T257,595q0,24-19.5,38.5T187,648q-32,0-54-15.5T109,581l-79,5q5,63 48,95t109,32q65,0 107-32.5T336,594t-36.5-81T199,472q-47-10-67-22.5T110,415H334V350H27Z" />
      <glyph unicode="&#xb3;" glyph-name="gid210" horiz-adv-x="370" d="M184,337q-65,0-110.5,32.5T23,461l78,8q3-31 27-49t56-18q35,0 56,17t21,43q0,27-20.5,40.5T182,516H119v60l102,48v12H31v64H338V629L221,572V560q56-2 87-26t31-75q0-36-20-63t-55.5-43T184,337Z" />
      <glyph unicode="&#xb4;" glyph-name="gid198" horiz-adv-x="288" d="M47,553l75,143H241L140,553H47Z" />
      <glyph unicode="&#xb5;" glyph-name="gid251" horiz-adv-x="623" d="M73-200V493H176V203q0-61 31.5-92.5T295,79q62,0 98.5,41T430,238V493H533V116q0-30 28-30h42V0H526q-35,0-56.5,18T447,70v9H431q-14-36-49.5-62T286-9Q250-9 226,2.5T188,27H172V-200H73Z" />
      <glyph unicode="&#xb6;" glyph-name="gid170" horiz-adv-x="596" d="M257,0V294H237q-63,0-111.5,25t-76,69.5T22,492v11q0,60 28,104t78,68.5T241,700H523V0H432V614H349V0H257ZM234,380h23V614H234q-57,0-89-31.5T113,500v-6q0-51 33-82.5T234,380Z" />
      <glyph unicode="&#xb7;" glyph-name="gid97" horiz-adv-x="203" d="M101,205q-35,0-58.5,23T19,287t23.5,58.5T101,368t58.5-23T183,287q0-36-23.5-59T101,205Z" />
      <glyph unicode="&#xb8;" glyph-name="gid204" horiz-adv-x="326" d="M157-210q-31,0-60,7.5T47-186l22,63q18-8 38.5-14t45.5-6q21,0 34.5,7.5T201-112T188.5-89T151-82H114l8,103h73l-5-63q38,0 63.5-20.5T279-123q0-30-17.5-49.5t-45-28.5T157-210Z" />
      <glyph unicode="&#xb9;" glyph-name="gid208" horiz-adv-x="256" d="M135,350V628H122L92,544H17L76,700H212V350H135Z" />
      <glyph unicode="&#xba;" glyph-name="gid168" horiz-adv-x="437" d="M218,340q-82,0-132.5,48.5T35,524q0,88 50.5,136.5T218,709q83,0 133-48.5T401,524q0-87-50-135.5T218,340Zm0,65q47,0 75.5,31T322,524t-28.5,88.5T218,644t-75.5-31.5T114,524t28.5-88T218,405Z" />
      <glyph unicode="&#xbb;" glyph-name="gid242" horiz-adv-x="702" d="M353,13V124L554,240v15L353,371V482h6L650,305V190L359,13h-6ZM69,13V124L270,240v15L69,371V482h6L366,305V190L75,13H69Z" />
      <glyph unicode="&#xbc;" glyph-name="gid182" horiz-adv-x="823" d="M135,350V628H122L92,544H17L76,700H212V350H135ZM130-11L73,36L620,711l57-47L130-11ZM659,0V77H450v76L602,350H738V142h68V77H738V0H659ZM537,142H659V293H646L537,153V142Z" />
      <glyph unicode="&#xbd;" glyph-name="gid183" horiz-adv-x="824" d="M135,350V628H122L92,544H17L76,700H212V350H135ZM130-11L73,36L620,711l57-47L130-11ZM486,0V37q0,58 33,92t101,49q49,11 72.5,26.5T716,245q0,24-19.5,38.5T646,298q-32,0-54-15.5T568,231l-79,5q5,63 48,95t109,32q65,0 107-32.5T795,244t-36.5-81T658,122q-47-10-67-22.5T569,65H793V0H486Z" />
      <glyph unicode="&#xbe;" glyph-name="gid184" horiz-adv-x="893" d="M184,337q-65,0-110.5,32.5T23,461l78,8q3-31 27-49t56-18q35,0 56,17t21,43q0,27-20.5,40.5T182,516H119v60l102,48v12H31v64H338V629L221,572V560q56-2 87-26t31-75q0-36-20-63t-55.5-43T184,337ZM200-11L143,36L690,711l57-47L200-11ZM729,0V77H520v76L672,350H808V142h68V77H808V0H729ZM607,142H729V293H716L607,153V142Z" />
      <glyph unicode="&#xbf;" glyph-name="gid91" horiz-adv-x="579" d="M288-215q-71,0-126,26T75.5-117.5T44-13q0,58 21.5,96T121,145.5T193,186l22,11q19,8 26.5,20t7.5,35v31H356V248q0-48-18-77.5T274,120l-22-11q-48-21-75-47.5T150-13q0-35 18-59.5T217-110t71-13t73.5,14T415-67.5T435,2V30H541V3q0-69-33.5-117.5T417-189T288-215Zm11,722q36,0 59-23t23-59t-23-59t-59-23q-34,0-57.5,23T218,425t23.5,59T299,507Z" />
      <glyph unicode="&#xc0;" glyph-name="gid103" horiz-adv-x="632" d="M21,0L221,700H411L610,0H499L453,165H179L133,0H21ZM206,265H426L324,633H308L206,265Zm82,494L192,885H314l69-126H288Z" />
      <glyph unicode="&#xc1;" glyph-name="gid104" horiz-adv-x="632" d="M21,0L221,700H411L610,0H499L453,165H179L133,0H21ZM206,265H426L324,633H308L206,265Zm43,493l69,126H440L344,758H249Z" />
      <glyph unicode="&#xc2;" glyph-name="gid105" horiz-adv-x="632" d="M21,0L221,700H411L610,0H499L453,165H179L133,0H21ZM206,265H426L324,633H308L206,265ZM133,758L253,884H379L500,758H384l-60,69H308l-60-69H133Z" />
      <glyph unicode="&#xc3;" glyph-name="gid106" horiz-adv-x="632" d="M21,0L221,700H411L610,0H499L453,165H179L133,0H21ZM206,265H426L324,633H308L206,265Zm-8,487l-56,42l32,46q15,22 34,34.5T254,887q24,0 40-8.5T328,853q11-11 21-18.5t23-7.5q15,0 23.5,8.5T412,854l22,31l55-41l-32-47q-15-21-33.5-34T377,750q-23,0-39,8.5T304,784q-12,11-21.5,19T259,811t-23-9t-17-19l-21-31Z" />
      <glyph unicode="&#xc4;" glyph-name="gid107" horiz-adv-x="632" d="M21,0L221,700H411L610,0H499L453,165H179L133,0H21ZM206,265H426L324,633H308L206,265ZM421,757q-30,0-50.5,19T350,827t20.5,51T421,897t50-19t20-51t-20-51t-50-19Zm-210,0q-30,0-50.5,19T140,827t20.5,51T211,897t50-19t20-51t-20-51t-50-19Z" />
      <glyph unicode="&#xc5;" glyph-name="gid108" horiz-adv-x="632" d="M21,0L221,700H411L610,0H499L453,165H179L133,0H21ZM206,265H426L324,633H308L206,265ZM316,748q-42,0-71.5,27.5T215,846t29.5,70.5T316,944q43,0 72.5-27.5T418,846q0-45-30.5-71.5T316,748Zm0,62q18,0 27.5,10t9.5,26t-9.5,26T316,882q-16,0-26-10t-10-26t10-26t26-10Z" />
      <glyph unicode="&#xc6;" glyph-name="gid109" horiz-adv-x="826" d="M382,0V700H781V602H489V401H753V303H489V98H786V0H382ZM21,0L281,700H382V641H366L228,265H382V165H194L134,0H21Z" />
      <glyph unicode="&#xc7;" glyph-name="gid110" horiz-adv-x="643" d="M333-14Q205-14 130,58.5T55,268V432q0,137 75,209.5T333,714q126,0 194.5-70T596,453v-6H489v9q0,71-38.5,116T333,617q-80,0-125-48.5T163,434V266q0-85 45-134T333,83q79,0 117.5,45.5T489,244v17H596V247q0-121-68.5-191T333-14Zm0-196q-31,0-60,7.5T223-186l22,63q18-8 38.5-14t45.5-6q21,0 34.5,7.5T377-112T364.5-89T327-82H290l8,103h73l-5-63q38,0 63.5-20.5T455-123q0-30-17.5-49.5t-45-28.5T333-210Z" />
      <glyph unicode="&#xc8;" glyph-name="gid112" horiz-adv-x="559" d="M73,0V700H514V602H181V401H486V303H181V98H519V0H73ZM271,759L175,885H297l69-126H271Z" />
      <glyph unicode="&#xc9;" glyph-name="gid113" horiz-adv-x="559" d="M73,0V700H514V602H181V401H486V303H181V98H519V0H73ZM232,758l69,126H423L327,758H232Z" />
      <glyph unicode="&#xca;" glyph-name="gid114" horiz-adv-x="559" d="M73,0V700H514V602H181V401H486V303H181V98H519V0H73Zm43,758L236,884H362L483,758H367l-60,69H291l-60-69H116Z" />
      <glyph unicode="&#xcb;" glyph-name="gid115" horiz-adv-x="559" d="M73,0V700H514V602H181V401H486V303H181V98H519V0H73ZM404,757q-30,0-50.5,19T333,827t20.5,51T404,897t50-19t20-51t-20-51t-50-19Zm-210,0q-30,0-50.5,19T123,827t20.5,51T194,897t50-19t20-51t-20-51t-50-19Z" />
      <glyph unicode="&#xcc;" glyph-name="gid116" horiz-adv-x="254" d="M73,0V700H181V0H73ZM99,759L3,885H125l69-126H99Z" />
      <glyph unicode="&#xcd;" glyph-name="gid117" horiz-adv-x="254" d="M73,0V700H181V0H73ZM60,758l69,126H251L155,758H60Z" />
      <glyph unicode="&#xce;" glyph-name="gid118" horiz-adv-x="254" d="M73,0V700H181V0H73ZM-56,758L64,884H190L311,758H195l-60,69H119L59,758H-56Z" />
      <glyph unicode="&#xcf;" glyph-name="gid119" horiz-adv-x="254" d="M73,0V700H181V0H73ZM233,757q-30,0-50.5,19T162,827t20.5,51T233,897t50-19t20-51t-20-51t-50-19ZM23,757q-30,0-50.5,19T-48,827t20.5,51T23,897t50-19t20-51T73,776T23,757Z" />
      <glyph unicode="&#xd0;" glyph-name="gid111" horiz-adv-x="665" d="M47,0V96h94V604H47v96H327q140,0 214.5-71T616,415V284q0-143-74.5-213.5T327,0H47ZM250,98h78q91,0 135,46t44,137V419q0,92-44,137T328,601H250V98ZM47,311v76H369V311H47Z" />
      <glyph unicode="&#xd1;" glyph-name="gid120" horiz-adv-x="667" d="M73,0V700H281L471,72h16V700H594V0H386L196,629H180V0H73ZM217,752l-56,42l32,46q15,22 34,34.5T273,887q24,0 40-8.5T347,853q11-11 21-18.5t23-7.5q15,0 23.5,8.5T431,854l22,31l55-41l-32-47q-15-21-33.5-34T396,750q-23,0-39,8.5T323,784q-12,11-21.5,19T278,811t-23-9t-17-19l-21-31Z" />
      <glyph unicode="&#xd2;" glyph-name="gid121" horiz-adv-x="673" d="M336-14Q207-14 131,58.5T55,268V432q0,137 76,209.5T336,714t205.5-72.5T618,432V268q0-137-76.5-209.5T336-14Zm0,97q83,0 128,48.5T509,264V436q0,84-45,132.5T336,617q-81,0-127-48.5T163,436V264q0-84 46-132.5T336,83ZM309,759L213,885H335l69-126H309Z" />
      <glyph unicode="&#xd3;" glyph-name="gid122" horiz-adv-x="673" d="M336-14Q207-14 131,58.5T55,268V432q0,137 76,209.5T336,714t205.5-72.5T618,432V268q0-137-76.5-209.5T336-14Zm0,97q83,0 128,48.5T509,264V436q0,84-45,132.5T336,617q-81,0-127-48.5T163,436V264q0-84 46-132.5T336,83ZM269,758l69,126H460L364,758H269Z" />
      <glyph unicode="&#xd4;" glyph-name="gid123" horiz-adv-x="673" d="M336-14Q207-14 131,58.5T55,268V432q0,137 76,209.5T336,714t205.5-72.5T618,432V268q0-137-76.5-209.5T336-14Zm0,97q83,0 128,48.5T509,264V436q0,84-45,132.5T336,617q-81,0-127-48.5T163,436V264q0-84 46-132.5T336,83ZM153,758L273,884H399L520,758H404l-60,69H328l-60-69H153Z" />
      <glyph unicode="&#xd5;" glyph-name="gid124" horiz-adv-x="673" d="M336-14Q207-14 131,58.5T55,268V432q0,137 76,209.5T336,714t205.5-72.5T618,432V268q0-137-76.5-209.5T336-14Zm0,97q83,0 128,48.5T509,264V436q0,84-45,132.5T336,617q-81,0-127-48.5T163,436V264q0-84 46-132.5T336,83ZM219,752l-56,42l32,46q15,22 34,34.5T275,887q24,0 40-8.5T349,853q11-11 21-18.5t23-7.5q15,0 23.5,8.5T433,854l22,31l55-41l-32-47q-15-21-33.5-34T398,750q-23,0-39,8.5T325,784q-12,11-21.5,19T280,811t-23-9t-17-19l-21-31Z" />
      <glyph unicode="&#xd6;" glyph-name="gid125" horiz-adv-x="673" d="M336-14Q207-14 131,58.5T55,268V432q0,137 76,209.5T336,714t205.5-72.5T618,432V268q0-137-76.5-209.5T336-14Zm0,97q83,0 128,48.5T509,264V436q0,84-45,132.5T336,617q-81,0-127-48.5T163,436V264q0-84 46-132.5T336,83ZM442,757q-30,0-50.5,19T371,827t20.5,51T442,897t50-19t20-51t-20-51t-50-19Zm-210,0q-30,0-50.5,19T161,827t20.5,51T232,897t50-19t20-51t-20-51t-50-19Z" />
      <glyph unicode="&#xd7;" glyph-name="gid187" horiz-adv-x="620" d="M170,145l-66,66L243,350L104,489l66,66L310,417L450,555l66-66L377,350L516,211l-66-66L310,284L170,145Z" />
      <glyph unicode="&#xd8;" glyph-name="gid126" horiz-adv-x="673" d="M336-14Q207-14 131,58.5T55,268V432q0,137 76,209.5T336,714t205.5-72.5T618,432V268q0-137-76.5-209.5T336-14Zm0,97q83,0 128,48.5T509,264V436q0,84-45,132.5T336,617q-81,0-127-48.5T163,436V264q0-84 46-132.5T336,83ZM202-90L132-61L471,778l70-29L202-90Z" />
      <glyph unicode="&#xd9;" glyph-name="gid128" horiz-adv-x="669" d="M335-14q-83,0-142.5,30t-92,86.5T68,240V700H177V237q0-74 41-114T335,83t117,40t41,114V700H601V240q0-81-32-137.5T477,16T335-14ZM307,759L211,885H333l69-126H307Z" />
      <glyph unicode="&#xda;" glyph-name="gid129" horiz-adv-x="669" d="M335-14q-83,0-142.5,30t-92,86.5T68,240V700H177V237q0-74 41-114T335,83t117,40t41,114V700H601V240q0-81-32-137.5T477,16T335-14ZM267,758l69,126H458L362,758H267Z" />
      <glyph unicode="&#xdb;" glyph-name="gid130" horiz-adv-x="669" d="M335-14q-83,0-142.5,30t-92,86.5T68,240V700H177V237q0-74 41-114T335,83t117,40t41,114V700H601V240q0-81-32-137.5T477,16T335-14ZM151,758L271,884H397L518,758H402l-60,69H326l-60-69H151Z" />
      <glyph unicode="&#xdc;" glyph-name="gid131" horiz-adv-x="669" d="M335-14q-83,0-142.5,30t-92,86.5T68,240V700H177V237q0-74 41-114T335,83t117,40t41,114V700H601V240q0-81-32-137.5T477,16T335-14ZM440,757q-30,0-50.5,19T369,827t20.5,51T440,897t50-19t20-51t-20-51t-50-19Zm-210,0q-30,0-50.5,19T159,827t20.5,51T230,897t50-19t20-51t-20-51t-50-19Z" />
      <glyph unicode="&#xdd;" glyph-name="gid132" horiz-adv-x="617" d="M254,0V254L11,700H133L301,383h15L484,700H606L363,254V0H254ZM241,758l69,126H432L336,758H241Z" />
      <glyph unicode="&#xde;" glyph-name="gid133" horiz-adv-x="603" d="M181,145v98H340q57,0 91,30t34,83v9q0,53-34,83t-91,30H181v98H351q64,0 114.5-25.5t79-72T573,367V354q0-64-29.5-111T464,170.5T351,145H181ZM73,0V700H181V0H73Z" />
      <glyph unicode="&#xdf;" glyph-name="gid159" horiz-adv-x="639" d="M418-14Q357-14 313.5,6.5T244.5,61T210,135l94,28q9-45 38-68.5T418,71q44,0 69,22.5T512,152q0,25-12.5,41t-33,28T419,243l-40,15q-40,16-59.5,40T300,352q0,34 17.5,55.5T366,449q28,18 50,42t22,59q0,36-29.5,56.5T334,627q-36,0-72-18.5t-59.5-59T179,440V0H76V436q0,87 33,149.5T200.5,681T334,714q61,0 107-21t72.5-57.5T540,553q0-42-16-72.5t-41.5-52T427,389q-11-7-16.5-13.5T405,361q0-17 29-28l31-13q41-16 74.5-36.5t53.5-52T613,152q0-49-23.5-86.5T522,7T418-14Z" />
      <glyph unicode="&#xe0;" glyph-name="gid134" horiz-adv-x="577" d="M229-14q-53,0-94.5,18t-66,53T44,142q0,51 24.5,84.5t67,50.5T232,294H382v32q0,43-26,69t-80,26q-53,0-81-25t-37-65L62,362q12,40 38.5,72.5T171,487t106,20q96,0 151-49t55-139V116q0-30 28-30h42V0H476q-35,0-57,18T397,67v3H382q-8-15-24-35T311,0.5T229-14Zm15,85q62,0 100,35.5T382,204v10H238q-41,0-66-17.5T147,145t26-54t71-20Zm8,487L151,700H270l75-142H252Z" />
      <glyph unicode="&#xe1;" glyph-name="gid135" horiz-adv-x="577" d="M229-14q-53,0-94.5,18t-66,53T44,142q0,51 24.5,84.5t67,50.5T232,294H382v32q0,43-26,69t-80,26q-53,0-81-25t-37-65L62,362q12,40 38.5,72.5T171,487t106,20q96,0 151-49t55-139V116q0-30 28-30h42V0H476q-35,0-57,18T397,67v3H382q-8-15-24-35T311,0.5T229-14Zm15,85q62,0 100,35.5T382,204v10H238q-41,0-66-17.5T147,145t26-54t71-20ZM217,553l75,143H411L310,553H217Z" />
      <glyph unicode="&#xe2;" glyph-name="gid136" horiz-adv-x="577" d="M229-14q-53,0-94.5,18t-66,53T44,142q0,51 24.5,84.5t67,50.5T232,294H382v32q0,43-26,69t-80,26q-53,0-81-25t-37-65L62,362q12,40 38.5,72.5T171,487t106,20q96,0 151-49t55-139V116q0-30 28-30h42V0H476q-35,0-57,18T397,67v3H382q-8-15-24-35T311,0.5T229-14Zm15,85q62,0 100,35.5T382,204v10H238q-41,0-66-17.5T147,145t26-54t71-20ZM99,553L219,696H343L463,553H355l-66,79H273l-66-79H99Z" />
      <glyph unicode="&#xe3;" glyph-name="gid137" horiz-adv-x="577" d="M229-14q-53,0-94.5,18t-66,53T44,142q0,51 24.5,84.5t67,50.5T232,294H382v32q0,43-26,69t-80,26q-53,0-81-25t-37-65L62,362q12,40 38.5,72.5T171,487t106,20q96,0 151-49t55-139V116q0-30 28-30h42V0H476q-35,0-57,18T397,67v3H382q-8-15-24-35T311,0.5T229-14Zm15,85q62,0 100,35.5T382,204v10H238q-41,0-66-17.5T147,145t26-54t71-20ZM170,544l-60,36l32,57q13,23 32.5,34.5T218,683q22,0 38-8.5T289,649q11-10 21-19t22-9q13,0 21.5,8.5T368,648l20,34l60-37l-32-57q-13-22-32.5-34T340,542q-22,0-38,8.5T269,576q-11,11-20.5,19.5T226,604t-21-8.5T190,577l-20-33Z" />
      <glyph unicode="&#xe4;" glyph-name="gid138" horiz-adv-x="577" d="M229-14q-53,0-94.5,18t-66,53T44,142q0,51 24.5,84.5t67,50.5T232,294H382v32q0,43-26,69t-80,26q-53,0-81-25t-37-65L62,362q12,40 38.5,72.5T171,487t106,20q96,0 151-49t55-139V116q0-30 28-30h42V0H476q-35,0-57,18T397,67v3H382q-8-15-24-35T311,0.5T229-14Zm15,85q62,0 100,35.5T382,204v10H238q-41,0-66-17.5T147,145t26-54t71-20ZM379,557q-29,0-49.5,19T309,627t20.5,51T379,697q31,0 51-19t20-51t-20-51t-51-19Zm-196,0q-30,0-50.5,19T112,627t20.5,51T183,697t50-19t20-51t-20-51t-50-19Z" />
      <glyph unicode="&#xe5;" glyph-name="gid139" horiz-adv-x="577" d="M229-14q-53,0-94.5,18t-66,53T44,142q0,51 24.5,84.5t67,50.5T232,294H382v32q0,43-26,69t-80,26q-53,0-81-25t-37-65L62,362q12,40 38.5,72.5T171,487t106,20q96,0 151-49t55-139V116q0-30 28-30h42V0H476q-35,0-57,18T397,67v3H382q-8-15-24-35T311,0.5T229-14Zm15,85q62,0 100,35.5T382,204v10H238q-41,0-66-17.5T147,145t26-54t71-20Zm37,470q-42,0-71.5,27.5T180,639q0,42 29.5,70T281,737q43,0 72.5-27.5T383,639q0-45-30.5-71.5T281,541Zm0,61q18,0 27.5,10.5T318,639q0,15-9.5,25.5T281,675q-16,0-26-10t-10-26t10-26.5T281,602Z" />
      <glyph unicode="&#xe6;" glyph-name="gid140" horiz-adv-x="899" d="M634-14q-71,0-125,35.5T425.5,117T396,250t29.5,131T507,473t119,34q70,0 120-31.5T823.5,389T851,265V213H489q3-61 41.5-99T630,76q56,0 85.5,25T760,156l79-53q-19-30-45-57T729.5,2.5T634-14ZM250,70q62,0 100,36.5T388,205v8H243q-44,0-71-17.5T145,144q0-33 28.5-53.5T250,70Zm-9-84Q155-14 99.5,26T44,141T98,254t139,38H388v34q0,42-29.5,68.5T275,421q-53,0-83-25t-42-65L58,363q13,39 40,71.5T169.5,487T275,507q64,0 104-22.5T441,426h26L445,258L456,87H429q-11-21-32.5-44.5T337,2.5T241-14ZM490,292H749q-2,59-36.5,91.5T623,416q-58,0-93.5-33.5T490,292Z" />
      <glyph unicode="&#xe7;" glyph-name="gid141" horiz-adv-x="592" d="M305-14q-71,0-128.5,30t-91,87T52,240v13q0,80 33.5,136.5t91,87T305,507t121-26t80.5-69T546,317L446,296q-5,33-21,60t-45,43t-73,16q-43,0-77.5-19.5t-54.5-56T155,251v-9q0-52 20-89t54.5-56T307,78q65,0 99,33.5T449,197l100-23q-12-51-42.5-94T426,11.5T305-14Zm2-196q-31,0-60,7.5T197-186l22,63q18-8 38.5-14t45.5-6q21,0 34.5,7.5T351-112T338.5-89T301-82H264l8,103h73l-5-63q38,0 63.5-20.5T429-123q0-30-17.5-49.5t-45-28.5T307-210Z" />
      <glyph unicode="&#xe8;" glyph-name="gid143" horiz-adv-x="584" d="M302-14q-75,0-131,31.5t-87.5,89T52,240v12q0,77 31,134.5t86.5,89T298,507q71,0 124.5-31.5T506,388t30-131V218H157q2-65 43.5-103.5T304,76q58,0 87.5,26T437,162l85-44q-14-28-40.5-59T412,7T302-14ZM158,297H431q-4,56-40,87.5T297,416t-94.5-31.5T158,297ZM269,558L168,700H287l75-142H269Z" />
      <glyph unicode="&#xe9;" glyph-name="gid144" horiz-adv-x="584" d="M302-14q-75,0-131,31.5t-87.5,89T52,240v12q0,77 31,134.5t86.5,89T298,507q71,0 124.5-31.5T506,388t30-131V218H157q2-65 43.5-103.5T304,76q58,0 87.5,26T437,162l85-44q-14-28-40.5-59T412,7T302-14ZM158,297H431q-4,56-40,87.5T297,416t-94.5-31.5T158,297Zm75,256l75,143H427L326,553H233Z" />
      <glyph unicode="&#xea;" glyph-name="gid145" horiz-adv-x="584" d="M302-14q-75,0-131,31.5t-87.5,89T52,240v12q0,77 31,134.5t86.5,89T298,507q71,0 124.5-31.5T506,388t30-131V218H157q2-65 43.5-103.5T304,76q58,0 87.5,26T437,162l85-44q-14-28-40.5-59T412,7T302-14ZM158,297H431q-4,56-40,87.5T297,416t-94.5-31.5T158,297ZM116,553L236,696H360L480,553H372l-66,79H290l-66-79H116Z" />
      <glyph unicode="&#xeb;" glyph-name="gid146" horiz-adv-x="584" d="M302-14q-75,0-131,31.5t-87.5,89T52,240v12q0,77 31,134.5t86.5,89T298,507q71,0 124.5-31.5T506,388t30-131V218H157q2-65 43.5-103.5T304,76q58,0 87.5,26T437,162l85-44q-14-28-40.5-59T412,7T302-14ZM158,297H431q-4,56-40,87.5T297,416t-94.5-31.5T158,297ZM396,557q-29,0-49.5,19T326,627t20.5,51T396,697q31,0 51-19t20-51t-20-51t-51-19Zm-196,0q-30,0-50.5,19T129,627t20.5,51T200,697t50-19t20-51t-20-51t-50-19Z" />
      <glyph unicode="&#xec;" glyph-name="gid147" horiz-adv-x="256" d="M76,0V493H179V0H76ZM99,558L-2,700H117l75-142H99Z" />
      <glyph unicode="&#xed;" glyph-name="gid148" horiz-adv-x="256" d="M76,0V493H179V0H76ZM63,553l75,143H257L156,553H63Z" />
      <glyph unicode="&#xee;" glyph-name="gid149" horiz-adv-x="256" d="M76,0V493H179V0H76ZM-54,553L66,696H190L310,553H202l-66,79H120L54,553H-54Z" />
      <glyph unicode="&#xef;" glyph-name="gid150" horiz-adv-x="256" d="M76,0V493H179V0H76ZM226,557q-29,0-49.5,19T156,627t20.5,51T226,697q31,0 51-19t20-51t-20-51t-51-19ZM30,557q-30,0-50.5,19T-41,627t20.5,51T30,697t50-19t20-51T80,576T30,557Z" />
      <glyph unicode="&#xf0;" glyph-name="gid142" horiz-adv-x="615" d="M308-14q-76-1-133.5,31t-90,90T52,240v11q0,75 31,130.5T165.5,468T281,500q54,0 90-17.5T430,437h16q-19,78-82.5,137.5T196,668l32,81q109-34 183.5-99.5T525,490.5T564,279q0-95-32-160T442.5,20.5T308-14Zm-1,92q45,0 79.5,19.5t54,57T460,243v5q0,78-42.5,121.5T307,413q-67,0-109.5-43.5T155,248v-5q0-77 42.5-121T307,78ZM286,537l-51,37L373,764l52-38L286,537Z" />
      <glyph unicode="&#xf1;" glyph-name="gid151" horiz-adv-x="615" d="M76,0V493H177V419h16q14,30 50,56t107,26q56,0 99.5-25T518,405.5T543,296V0H440V288q0,64-32,94.5T320,413q-64,0-102.5-42T179,249V0H76ZM195,544l-60,36l32,57q13,23 32.5,34.5T243,683q22,0 38-8.5T314,649q11-10 21-19t22-9q13,0 21.5,8.5T393,648l20,34l60-37l-32-57q-13-22-32.5-34T365,542q-22,0-38,8.5T294,576q-11,11-20.5,19.5T251,604t-21-8.5T215,577l-20-33Z" />
      <glyph unicode="&#xf2;" glyph-name="gid152" horiz-adv-x="615" d="M307-14q-74,0-131.5,30.5T85,104T52,239v15q0,78 33,134.5T175.5,476T307,507t132-31t91-87.5T563,254V239q0-78-33-135T439,16.5T307-14Zm0,92q68,0 110.5,43.5T460,242v9q0,77-42,120.5T307,415q-67,0-109.5-43.5T155,251v-9q0-77 42.5-120.5T307,78ZM279,558L178,700H297l75-142H279Z" />
      <glyph unicode="&#xf3;" glyph-name="gid153" horiz-adv-x="615" d="M307-14q-74,0-131.5,30.5T85,104T52,239v15q0,78 33,134.5T175.5,476T307,507t132-31t91-87.5T563,254V239q0-78-33-135T439,16.5T307-14Zm0,92q68,0 110.5,43.5T460,242v9q0,77-42,120.5T307,415q-67,0-109.5-43.5T155,251v-9q0-77 42.5-120.5T307,78ZM243,553l75,143H437L336,553H243Z" />
      <glyph unicode="&#xf4;" glyph-name="gid154" horiz-adv-x="615" d="M307-14q-74,0-131.5,30.5T85,104T52,239v15q0,78 33,134.5T175.5,476T307,507t132-31t91-87.5T563,254V239q0-78-33-135T439,16.5T307-14Zm0,92q68,0 110.5,43.5T460,242v9q0,77-42,120.5T307,415q-67,0-109.5-43.5T155,251v-9q0-77 42.5-120.5T307,78ZM125,553L245,696H369L489,553H381l-66,79H299l-66-79H125Z" />
      <glyph unicode="&#xf5;" glyph-name="gid155" horiz-adv-x="615" d="M307-14q-74,0-131.5,30.5T85,104T52,239v15q0,78 33,134.5T175.5,476T307,507t132-31t91-87.5T563,254V239q0-78-33-135T439,16.5T307-14Zm0,92q68,0 110.5,43.5T460,242v9q0,77-42,120.5T307,415q-67,0-109.5-43.5T155,251v-9q0-77 42.5-120.5T307,78ZM197,544l-60,36l32,57q13,23 32.5,34.5T245,683q22,0 38-8.5T316,649q11-10 21-19t22-9q13,0 21.5,8.5T395,648l20,34l60-37l-32-57q-13-22-32.5-34T367,542q-22,0-38,8.5T296,576q-11,11-20.5,19.5T253,604t-21-8.5T217,577l-20-33Z" />
      <glyph unicode="&#xf6;" glyph-name="gid156" horiz-adv-x="615" d="M307-14q-74,0-131.5,30.5T85,104T52,239v15q0,78 33,134.5T175.5,476T307,507t132-31t91-87.5T563,254V239q0-78-33-135T439,16.5T307-14Zm0,92q68,0 110.5,43.5T460,242v9q0,77-42,120.5T307,415q-67,0-109.5-43.5T155,251v-9q0-77 42.5-120.5T307,78Zm98,479q-29,0-49.5,19T335,627t20.5,51T405,697q31,0 51-19t20-51t-20-51t-51-19Zm-196,0q-30,0-50.5,19T138,627t20.5,51T209,697t50-19t20-51t-20-51t-50-19Z" />
      <glyph unicode="&#xf7;" glyph-name="gid188" horiz-adv-x="620" d="M101,303v94H519V303H101ZM310,96q-32,0-54,22t-22,54q0,31 22,53.5T310,248t54-22.5T386,172q0-32-22-54T310,96Zm0,356q-32,0-54,22.5T234,528q0,32 22,54t54,22t54-22t22-54q0-31-22-53.5T310,452Z" />
      <glyph unicode="&#xf8;" glyph-name="gid157" horiz-adv-x="615" d="M307-14q-74,0-131.5,30.5T85,104T52,239v15q0,78 33,134.5T175.5,476T307,507t132-31t91-87.5T563,254V239q0-78-33-135T439,16.5T307-14Zm0,92q68,0 110.5,43.5T460,242v9q0,77-42,120.5T307,415q-67,0-109.5-43.5T155,251v-9q0-77 42.5-120.5T307,78ZM155-66L95-28L459,554l60-38L155-66Z" />
      <glyph unicode="&#xf9;" glyph-name="gid160" horiz-adv-x="614" d="M265-9Q209-9 165,16T96,87T71,197V493H174V204q0-64 32-94.5T295,79q63,0 101.5,42.5T435,244V493H538V0H437V74H421q-14-30-50-56.5T265-9Zm11,567L175,700H294l75-142H276Z" />
      <glyph unicode="&#xfa;" glyph-name="gid161" horiz-adv-x="614" d="M265-9Q209-9 165,16T96,87T71,197V493H174V204q0-64 32-94.5T295,79q63,0 101.5,42.5T435,244V493H538V0H437V74H421q-14-30-50-56.5T265-9ZM240,553l75,143H434L333,553H240Z" />
      <glyph unicode="&#xfb;" glyph-name="gid162" horiz-adv-x="614" d="M265-9Q209-9 165,16T96,87T71,197V493H174V204q0-64 32-94.5T295,79q63,0 101.5,42.5T435,244V493H538V0H437V74H421q-14-30-50-56.5T265-9ZM122,553L242,696H366L486,553H378l-66,79H296l-66-79H122Z" />
      <glyph unicode="&#xfc;" glyph-name="gid163" horiz-adv-x="614" d="M265-9Q209-9 165,16T96,87T71,197V493H174V204q0-64 32-94.5T295,79q63,0 101.5,42.5T435,244V493H538V0H437V74H421q-14-30-50-56.5T265-9ZM403,557q-29,0-49.5,19T333,627t20.5,51T403,697q31,0 51-19t20-51t-20-51t-51-19Zm-196,0q-30,0-50.5,19T136,627t20.5,51T207,697t50-19t20-51t-20-51t-50-19Z" />
      <glyph unicode="&#xfd;" glyph-name="gid164" horiz-adv-x="614" d="M133-200v90H408q28,0 28,30V72H420q-9-20-27.5-38.5T343,3T265-9Q209-9 165,16T96,87T71,196V493H174V204q0-64 32-94.5T295,79q63,0 101.5,42T435,243V493H538V-101q0-45-26.5-72T439-200H133ZM240,553l75,143H434L333,553H240Z" />
      <glyph unicode="&#xfe;" glyph-name="gid166" horiz-adv-x="640" d="M76-200V700H179V426h15q12,20 32.5,38.5T280,495t81,12q62,0 113.5-30T557,390t31-136V239q0-80-31-136.5T474.5,16T361-14q-48,0-81,12T226.5,28.5T194,66H179V-200H76ZM331,76q68,0 111,43t43,123v9q0,79-43,122T331,416q-66,0-109.5-43T178,251v-9q0-80 43.5-123T331,76Z" />
      <glyph unicode="&#xff;" glyph-name="gid165" horiz-adv-x="614" d="M133-200v90H408q28,0 28,30V72H420q-9-20-27.5-38.5T343,3T265-9Q209-9 165,16T96,87T71,196V493H174V204q0-64 32-94.5T295,79q63,0 101.5,42T435,243V493H538V-101q0-45-26.5-72T439-200H133ZM403,557q-29,0-49.5,19T333,627t20.5,51T403,697q31,0 51-19t20-51t-20-51t-51-19Zm-196,0q-30,0-50.5,19T136,627t20.5,51T207,697t50-19t20-51t-20-51t-50-19Z" />
      <glyph unicode="&#x2013;" glyph-name="gid95" horiz-adv-x="595" d="M74,209v94H522V209H74Z" />
      <glyph unicode="&#x2014;" glyph-name="gid96" horiz-adv-x="899" d="M74,209v94H826V209H74Z" />
      <glyph unicode="&#x2018;" glyph-name="gid77" horiz-adv-x="273" d="M196,714V655H162q-41,0-41-41V582h15q35,0 58-21t23-53q0-35-23-56.5T136,430T78.5,452.5T56,511V615q0,99 99,99h41Z" />
      <glyph unicode="&#x2019;" glyph-name="gid78" horiz-adv-x="273" d="M77,430v59h34q41,0 41,41v32H137q-35,0-58,21T56,636q0,35 23,56.5T137,714t57.5-22.5T217,633V529q0-99-99-99H77Z" />
      <glyph unicode="&#x201a;" glyph-name="gid81" horiz-adv-x="273" d="M77-136v59h34q41,0 41,41V-4H137Q102-4 79,17T56,70q0,35 23,56.5T137,148t57.5-22.5T217,67V-37q0-99-99-99H77Z" />
      <glyph unicode="&#x201c;" glyph-name="gid79" horiz-adv-x="470" d="M393,714V655H359q-41,0-41-41V582h15q35,0 58-21t23-53q0-35-23-56.5T333,430t-57.5,22.5T253,511V615q0,99 99,99h41Zm-197,0V655H162q-41,0-41-41V582h15q35,0 58-21t23-53q0-35-23-56.5T136,430T78.5,452.5T56,511V615q0,99 99,99h41Z" />
      <glyph unicode="&#x201d;" glyph-name="gid80" horiz-adv-x="470" d="M77,430v59h34q41,0 41,41v32H137q-35,0-58,21T56,636q0,35 23,56.5T137,714t57.5-22.5T217,633V529q0-99-99-99H77Zm197,0v59h34q41,0 41,41v32H334q-35,0-58,21t-23,53q0,35 23,56.5T334,714t57.5-22.5T414,633V529q0-99-99-99H274Z" />
      <glyph unicode="&#x201e;" glyph-name="gid82" horiz-adv-x="470" d="M77-136v59h34q41,0 41,41V-4H137Q102-4 79,17T56,70q0,35 23,56.5T137,148t57.5-22.5T217,67V-37q0-99-99-99H77Zm197,0v59h34q41,0 41,41V-4H334q-35,0-58,21T253,70q0,35 23,56.5T334,148t57.5-22.5T414,67V-37q0-99-99-99H274Z" />
      <glyph unicode="&#x2022;" glyph-name="gid98" horiz-adv-x="380" d="M190,125q-37,0-66.5,17T76,189T58,256q0,38 17,67.5T122.5,370T190,387q38,0 68-16.5T305,324t17-68t-17.5-67.5t-48-46.5T190,125Z" />
      <glyph unicode="&#x2039;" glyph-name="gid92" horiz-adv-x="471" d="M396,14L52,188V307L396,482h6V372L154,255V240L402,124V14h-6Z" />
      <glyph unicode="&#x203a;" glyph-name="gid93" horiz-adv-x="471" d="M69,14V124L317,240v15L69,372V482h6L419,307V188L75,14H69Z" />
    </font>
</defs>
</svg>
