<?xml version="1.0" standalone="no"?>
<!DOCTYPE svg PUBLIC "-//W3C//DTD SVG 1.1//EN" "http://www.w3.org/Graphics/SVG/1.1/DTD/svg11.dtd">
<svg xmlns="http://www.w3.org/2000/svg">
  <defs>
    <font id="SpaceGrotesk" horiz-adv-x="539">
      <font-face font-family="Space Grotesk Light SemiBold" units-per-em="1000" panose-1="0 0 0 0 0 0 0 0 0 0" ascent="984" descent="-292" alphabetic="0" />
      <glyph unicode=" " glyph-name="gid2" horiz-adv-x="255" />
      <glyph unicode="!" glyph-name="gid88" horiz-adv-x="287" d="M85,220V700H202V220H85ZM144-14q-38,0-63.5,25T55,75q0,38 25.5,63T144,163t63-25t25-64T207,10.5T144-14Z" />
      <glyph unicode="&quot;" glyph-name="gid76" horiz-adv-x="492" d="M78,411v64h37q43,0 43,43v32H142q-37,0-62,22.5T55,630q0,37 25,60.5T142,714q38,0 62-24t24-63V517q0-106-105-106H78Zm208,0v64h37q43,0 43,43v32H350q-37,0-62,22.5T263,630q0,37 25,60.5T350,714q38,0 62-24t24-63V517q0-106-105-106H286Z" />
      <glyph unicode="#" glyph-name="gid174" horiz-adv-x="634" d="M153,0V191H41v98H153V411H41v98H153V700H257V509H377V700H481V509H593V411H481V289H593V191H481V0H377V191H257V0H153ZM257,289H377V411H257V289Z" />
      <glyph unicode="$" glyph-name="gid176" horiz-adv-x="608" d="M310-14q-80,0-141.5,28.5T72,97T37,229v26H156V229q0-69 42-103T310,92q71,0 107,29t36,75q0,31-16.5,50.5T388,278t-78,23l-30,6q-69,16-119.5,40.5T82.5,411T55,513T85.5,621T171,690t129,24t132-25t91-75t33-125V456H438v33q0,43-17,69t-48,38t-73,12q-63,0-94.5-24T174,516q0-28 14.5-47.5t43-32T303,415l30-7q72-16 125-40.5T541.5,303T572,199q0-63-32.5-111t-91-75T310-14ZM255-116V816H364V-116H255Z" />
      <glyph unicode="%" glyph-name="gid181" horiz-adv-x="761" d="M145-13L74,43L617,713l70-56L145-13Zm427,2q-75,0-118,41T411,142v7q0,71 43,112t118,41q74,0 117.5-41T733,149v-7q0-71-43-112T572-11Zm0,76q32,0 50.5,20.5T641,138v15q0,33-18.5,53T572,226t-50.5-20T503,153V138q0-32 18.5-52.5T572,65ZM189,398q-75,0-118,41T28,550v7q0,72 43,113t118,41q74,0 118-41t44-113v-7q0-70-43-111T189,398Zm0,76q33,0 51.5,20T259,547v15q0,32-18.5,52.5T189,635q-32,0-50.5-20.5T120,562V547q0-33 18.5-53T189,474Z" />
      <glyph unicode="&amp;" glyph-name="gid101" horiz-adv-x="594" d="M239,0Q178,0 131.5,22.5T58.5,87T32,188q0,43 16,75.5T91,317t59,31v13q-49,15-81,52T37,513q0,60 27,102t73.5,63.5T243,700H356V605H263q-48,0-80-25.5T151,503q0-35 15.5-57.5t41-33.5T263,401H370v95H484V401h94V306H484V0H239Zm20,95H370V306H259q-48,0-80-26.5T147,201q0-54 33.5-80T259,95Z" />
      <glyph unicode="&apos;" glyph-name="gid75" horiz-adv-x="284" d="M78,411v64h37q43,0 43,43v32H142q-37,0-62,22.5T55,630q0,37 25,60.5T142,714q38,0 62-24t24-63V517q0-106-105-106H78Z" />
      <glyph unicode="(" glyph-name="gid69" horiz-adv-x="393" d="M385-243q-108,0-182,37.5T90.5-89.5T52,110V400q0,122 38.5,200T203,715.5T385,753V655q-112,0-167-63T163,395V115q0-133 55-196.5T385-145v-98Z" />
      <glyph unicode=")" glyph-name="gid70" horiz-adv-x="387" d="M2-243v98q112,0 166.5,63.5T223,115V395q0,134-54.5,197T2,655v98q108,0 182-37.5T296,600t38-200V110q0-121-38-199.5t-112-116T2-243Z" />
      <glyph unicode="*" glyph-name="gid102" horiz-adv-x="535" d="M45,443v69h79l72-12l5,12l-59,42L86,611l48,48l57-56l41-59l13,5l-12,71v80h69V620l-12-71l13-5l41,59l57,56l49-48l-57-57l-59-42l5-12l72,12h79V443H411l-72,12l-5-13l59-41l57-57l-49-49l-57,56l-41,59l-13-5l12-71V254H233v80l12,71l-13,5l-41-59l-57-56L86,344l56,57l59,41l-5,13l-72-12H45Z" />
      <glyph unicode="+" glyph-name="gid185" horiz-adv-x="620" d="M256,141V298H101V402H256V559H364V402H519V298H364V141H256Z" />
      <glyph unicode="," glyph-name="gid84" horiz-adv-x="284" d="M78-142v64h37q43,0 43,43V-3H142Q105-3 80,19.5T55,77q0,37 25,60.5T142,161q38,0 62-24t24-63V-36q0-106-105-106H78Z" />
      <glyph unicode="-" glyph-name="gid94" horiz-adv-x="438" d="M71,204V307H367V204H71Z" />
      <glyph unicode="." glyph-name="gid83" horiz-adv-x="287" d="M144-14q-38,0-63.5,25T55,75q0,38 25.5,63T144,163t63-25t25-64T207,10.5T144-14Z" />
      <glyph unicode="/" glyph-name="gid71" horiz-adv-x="384" d="M-12-200L282,700H396L102-200H-12Z" />
      <glyph unicode="0" glyph-name="gid55" horiz-adv-x="646" d="M323-14Q200-14 126,55T52,263V437q0,136 74,206.5T323,714q124,0 197.5-70.5T594,437V263q0-139-73.5-208T323-14Zm0,104q79,0 116.5,44T477,259V442q0,82-41,125T323,610q-74,0-114-44T169,442V259q0-83 38.5-126T323,90Z" />
      <glyph unicode="1" glyph-name="gid56" horiz-adv-x="444" d="M258,0V616H241L136,387H13L162,700H374V0H258Z" />
      <glyph unicode="2" glyph-name="gid57" horiz-adv-x="596" d="M45,0V81q0,74 24.5,121.5t70.5,78T252,331l64,20q39,13 66,31t42,44.5T439,489v4q0,54-37,85.5T303,610T202,576.5T163,478V461H47v15q0,76 34,129t92,81t130,28t129.5-27.5t90-76.5T555,495V485q0-67-27-113t-74.5-75.5T346,248l-62-19q-45-14-71.5-30T175,162.5T164,111v-7H549V0H45Z" />
      <glyph unicode="3" glyph-name="gid58" horiz-adv-x="607" d="M304-14q-78,0-138.5,28T71,94.5T37,220v18H153V223q0-61 41.5-97T304,90t106,33.5T448,208v9q0,36-17.5,58t-47,32.5T317,318H183V448L420,581v15H54V700H548V544L324,418V403h41q50,0 95.5-19.5T535,324t29-104V209q0-68-32.5-118t-91-77.5T304-14Z" />
      <glyph unicode="4" glyph-name="gid59" horiz-adv-x="633" d="M377,0V142H27V277L282,700H493V246H610V142H493V0H377ZM139,246H377V626H360L139,261V246Z" />
      <glyph unicode="5" glyph-name="gid60" horiz-adv-x="600" d="M303-14q-81,0-139.5,29T73,97T41,220v10H159v-9q0-57 36.5-94T301,90t107,38t38,100v9q0,61-37.5,97T314,370q-32,0-52.5-9T228,338.5T207,311H63V700H536V594H179V406h17q11,15 28.5,28.5t46,23T339,467q62,0 112.5-26.5T532,363t30-125V227q0-73-31-127T442,16T303-14Z" />
      <glyph unicode="6" glyph-name="gid61" horiz-adv-x="617" d="M311-14q-78,0-136,29.5T84.5,98T52,221V462q0,83 34,139t93.5,84.5T317,714t134.5-26.5t87-75T569,498H451q0,46-31.5,79T317,610T207.5,572.5T169,469V391h17q17,23 54,42.5T345,453q62,0 113.5-26T542,351t32-120V219q0-70-33-122.5T449,15T311-14Zm2,104q66,0 105,35.5T457,220v8q0,41-17.5,70t-50,45.5T313,360q-43,0-76-16.5T186.5,298T169,228v-8q0-59 39-94.5T313,90Z" />
      <glyph unicode="7" glyph-name="gid62" horiz-adv-x="556" d="M136,0V26q0,38 6,64.5T168,152L410,581v15H28V700H531V562L275,105q-13-23-17.5-40.5T253,21V0H136Z" />
      <glyph unicode="8" glyph-name="gid63" horiz-adv-x="606" d="M303-14q-81,0-142,24T66.5,79.5T33,186v12q0,49 18,81t45,50t51,25v17q-24,8-48.5,26t-40,48T43,518v12q0,55 32.5,96.5t91,64.5T303,714q77,0 135.5-23t91-64.5T562,530V518q0-43-15.5-73t-39-48T459,371V354q25-7 51.5-25T555,279t18-81V186q0-61-34-106.5T444,10T303-14Zm0,104q73,0 113.5,28T457,195v8q0,48-40,76.5T303,308T189,279.5T149,203v-8q0-49 40.5-77T303,90Zm0,321q68,0 105.5,25T446,507v8q0,45-38.5,70T303,610T198.5,585T160,515v-8q0-46 37.5-71T303,411Z" />
      <glyph unicode="9" glyph-name="gid64" horiz-adv-x="617" d="M300-14q-78,0-134.5,26.5T78,87.5T47,202H165q0-46 32.5-79T300,90q71,0 109.5,37.5T448,231v78H431q-18-23-54-42.5T271,247q-61,0-113,26T74.5,349T43,469v12q0,71 33,123t92,81t137,29t136.5-29.5T532,602t32-123V238q0-83-33.5-139t-93-84.5T300-14Zm3,354q45,0 77,16.5t50,46T448,472v8q0,60-39,95T303,610q-66,0-105-35t-39-95v-8q0-40 18-69.5t50.5-46T303,340Z" />
      <glyph unicode=":" glyph-name="gid85" horiz-adv-x="287" d="M144-14q-38,0-63.5,25T55,75q0,38 25.5,63T144,163t63-25t25-64T207,10.5T144-14Zm0,346q-38,0-63.5,25T55,421q0,38 25.5,63T144,509t63-25t25-64t-25-63.5T144,332Z" />
      <glyph unicode=";" glyph-name="gid86" horiz-adv-x="287" d="M144,332q-38,0-63.5,25T55,421q0,38 25.5,63T144,509t63-25t25-64t-25-63.5T144,332ZM80-142v64h37q43,0 43,43V-3H144Q107-3 82,19.5T57,77q0,37 25,60.5T144,161q38,0 62-24t24-63V-36q0-106-105-106H80Z" />
      <glyph unicode="&lt;" glyph-name="gid190" horiz-adv-x="620" d="M520,130L100,279V421L520,570V459L212,358V342L520,241V130Z" />
      <glyph unicode="=" glyph-name="gid189" horiz-adv-x="620" d="M101,382V486H519V382H101Zm0-168V318H519V214H101Z" />
      <glyph unicode="&gt;" glyph-name="gid191" horiz-adv-x="620" d="M100,130V241L408,342v16L100,459V570L520,421V279L100,130Z" />
      <glyph unicode="?" glyph-name="gid90" horiz-adv-x="579" d="M216,220v32q0,50 19.5,81.5T301,386l19,9q47,22 72,47.5T417,511q0,32-16,54.5T356.5,600T291,612q-39,0-69.5-13t-49-38.5T154,496V470H36v24q0,69 33.5,118.5T161,688t130,26q71,0 126-26t86.5-71.5T535,511q0-59-21.5-97T458,352t-70-41l-20-9q-18-8-25-20t-7-34V220H216ZM279-14q-37,0-62.5,24.5T191,74t25.5,64T279,163q38,0 63.5-25T368,74T342.5,10.5T279-14Z" />
      <glyph unicode="@" glyph-name="gid100" horiz-adv-x="1017" d="M526-200q-141,0-243.5,54T124.5,7.5T69,245v23q0,138 54,237.5t153.5,153T513,712h21q126,0 220-52T900,514t52-220V230q0-111-43.5-170.5T779,0H727q-46,0-70,19T633,69v4H616q-8-21-24-39.5T551,4T486-7Q424-7 378.5,26T308,115T283,240v16q0,70 24,126t68,89t103,33q39,0 64.5-10t41-26T609,434h17v62H736V134q0-17 7-24.5t23-7.5h6q36,0 51.5,31T839,231v61q0,99-34.5,169.5T701.5,570T531,608H516q-103,0-178-39T222.5,453.5T182,265V249q0-113 42-190T345-57T533-96H738V-200H526ZM510,91q52,0 84,40.5T626,242v12q0,70-32,110.5T510,405q-53,0-84-40.5T395,254V242q0-70 31-110.5T510,91Z" />
      <glyph unicode="A" glyph-name="gid3" horiz-adv-x="633" d="M20,0L212,700H421L613,0H489L447,160H186L144,0H20ZM214,270H419L325,625H308L214,270Z" />
      <glyph unicode="B" glyph-name="gid4" horiz-adv-x="663" d="M46,0V106h94V594H46V700H404q63,0 110.5-21.5t74-61T615,523v-9q0-48-18-79t-43-48t-48-24V346q23-6 49.5-22.5t45-48T619,194V184q0-57-27.5-98.5T516.5,22T407,0H46ZM260,109H393q48,0 76.5,23.5T498,199v9q0,43-28,66.5T393,298H260V109Zm0,298H392q46,0 74.5,23T495,494v10q0,41-28.5,64T392,591H260V407Z" />
      <glyph unicode="C" glyph-name="gid5" horiz-adv-x="643" d="M332-14Q204-14 128,58.5T52,267V433q0,136 76,208.5T332,714t197.5-70T599,452v-6H481v9q0,66-36.5,108.5T332,606q-74,0-116.5-45.5T173,435V265q0-79 42.5-125T332,94q76,0 112.5,42.5T481,245v17H599V248q0-122-69.5-192T332-14Z" />
      <glyph unicode="D" glyph-name="gid6" horiz-adv-x="665" d="M46,0V106h94V594H46V700H331q140,0 214-71t74-213V284q0-142-74-213T331,0H46ZM260,109h72q85,0 126,44t41,127V419q0,85-41,128.5T332,591H260V109Z" />
      <glyph unicode="E" glyph-name="gid7" horiz-adv-x="556" d="M69,0V700H515V591H190V407H487V298H190V109H520V0H69Z" />
      <glyph unicode="F" glyph-name="gid8" horiz-adv-x="535" d="M69,0V700H505V591H190V406H480V296H190V0H69Z" />
      <glyph unicode="G" glyph-name="gid9" horiz-adv-x="661" d="M312-14q-74,0-132.5,32.5t-93,95T52,267V433q0,136 76,208.5T332,714t197-68.5T598,461v-4H480v8q0,40-16,72t-49,50.5T332,606q-74,0-116.5-45.5T173,435V265q0-79 42.5-126T334,92t111,41t35,105v12H303V352H598V0H488V69H471q-8-18-25-37.5T397.5-1T312-14Z" />
      <glyph unicode="H" glyph-name="gid10" horiz-adv-x="656" d="M69,0V700H190V406H466V700H587V0H466V296H190V0H69Z" />
      <glyph unicode="I" glyph-name="gid11" horiz-adv-x="259" d="M69,0V700H190V0H69Z" />
      <glyph unicode="J" glyph-name="gid12" horiz-adv-x="606" d="M266-14Q159-14 96.5,44.5T34,210v63H154V210q0-52 28-82t81-30q50,0 75.5,30T364,210V591H244V700H563V591H485V210q0-109-58-166.5T266-14Z" />
      <glyph unicode="K" glyph-name="gid13" horiz-adv-x="622" d="M69,0V700H190V415h17L451,700H606L301,355L616,0H457L207,291H190V0H69Z" />
      <glyph unicode="L" glyph-name="gid14" horiz-adv-x="543" d="M69,0V700H190V109H518V0H69Z" />
      <glyph unicode="M" glyph-name="gid15" horiz-adv-x="878" d="M69,0V700H294L430,81h17L584,700H808V0H692V613H675L539,0H339L203,613H186V0H69Z" />
      <glyph unicode="N" glyph-name="gid16" horiz-adv-x="668" d="M69,0V700H299L464,81h16V700H599V0H370L205,619H188V0H69Z" />
      <glyph unicode="O" glyph-name="gid17" horiz-adv-x="674" d="M337-14Q207-14 129.5,58.5T52,267V433q0,136 77.5,208.5T337,714q131,0 208-72.5T622,433V267q0-136-77-208.5T337-14Zm0,108q78,0 121.5,45.5T502,263V437q0,78-43.5,123.5T337,606q-77,0-120.5-45.5T173,437V263q0-78 43.5-123.5T337,94Z" />
      <glyph unicode="P" glyph-name="gid18" horiz-adv-x="603" d="M69,0V700H352q66,0 116-26t79-73.5T576,488V474q0-64-29.5-112t-80-74T352,262H190V0H69ZM190,371H340q52,0 83.5,28T455,476v10q0,49-31,77t-84,28H190V371Z" />
      <glyph unicode="Q" glyph-name="gid19" horiz-adv-x="674" d="M337-14Q207-14 129.5,58.5T52,267V433q0,136 77.5,208.5T337,714q131,0 208-72.5T622,433V267q0-136-77-208.5T337-14Zm0,108q78,0 121.5,45.5T502,263V437q0,78-43.5,123.5T337,606q-77,0-120.5-45.5T173,437V263q0-78 43.5-123.5T337,94Zm45-269q-46,0-74.5,28.5T279-70V0H395V-52q0-30 28-30h61v-93H382Z" />
      <glyph unicode="R" glyph-name="gid20" horiz-adv-x="632" d="M69,0V700H368q66,0 115-23t76.5-64.5T587,513V502q0-65-31-104t-75-57V325q39-2 61.5-27T565,231V0H445V214q0,25-13.5,40.5T388,270H190V0H69ZM190,379H356q52,0 81.5,27.5T467,480v9q0,47-29,74.5T356,591H190V379Z" />
      <glyph unicode="S" glyph-name="gid21" horiz-adv-x="608" d="M310-14q-80,0-141.5,28.5T72,97T37,229v26H156V229q0-69 42-103T310,92q71,0 107,29t36,75q0,31-17,50.5T386.5,278T308,301l-30,6q-69,16-119.5,40.5T81,411T54,513T84,621t85,69t129,24t132-25t91.5-75T555,489V456H436v33q0,43-17,69t-48,38t-73,12q-62,0-94-24t-32-68q0-28 14.5-47.5t43-32T301,415l30-7q72-16 126-40.5T541.5,303T572,199q0-63-32.5-111t-91-75T310-14Z" />
      <glyph unicode="T" glyph-name="gid22" horiz-adv-x="588" d="M234,0V591H25V700H563V591H354V0H234Z" />
      <glyph unicode="U" glyph-name="gid23" horiz-adv-x="671" d="M335-14q-84,0-144.5,30.5T97.5,105T65,243V700H185V240q0-70 39-108T335,94q73,0 111.5,38T485,240V700H605V243q0-80-32-138T480,16.5T335-14Z" />
      <glyph unicode="V" glyph-name="gid24" horiz-adv-x="618" d="M206,0L20,700H144L302,77h14L475,700H599L412,0H206Z" />
      <glyph unicode="W" glyph-name="gid25" horiz-adv-x="892" d="M129,0L32,700H151L227,83h17l98,617H551L649,83h17l75,617H861L763,0H554L455,629H438L338,0H129Z" />
      <glyph unicode="X" glyph-name="gid26" horiz-adv-x="642" d="M24,0L235,353L27,700H164L313,438h17L478,700H616L408,353L618,0H481L330,268H313L162,0H24Z" />
      <glyph unicode="Y" glyph-name="gid27" horiz-adv-x="621" d="M250,0V247L9,700H144L302,391h17L477,700H611L370,247V0H250Z" />
      <glyph unicode="Z" glyph-name="gid28" horiz-adv-x="576" d="M47,0V154L404,578v14H57V700H528V546L171,122V108H532V0H47Z" />
      <glyph unicode="[" glyph-name="gid65" horiz-adv-x="352" d="M169-243q-42,0-69,27T73-147V657q0,42 27,69t69,27H336V655H211q-27,0-27-30V-115q0-30 27-30H336v-98H169Z" />
      <glyph unicode="\" glyph-name="gid74" horiz-adv-x="384" d="M281-200L-13,700H102L396-200H281Z" />
      <glyph unicode="]" glyph-name="gid66" horiz-adv-x="352" d="M17-243v98H141q27,0 27,30V625q0,30-27,30H17v98H183q43,0 69.5-27T279,657V-147q0-42-26.5-69T183-243H17Z" />
      <glyph unicode="^" glyph-name="gid193" horiz-adv-x="620" d="M71,424L224,700H396L549,424H420L318,626H302L200,424H71Z" />
      <glyph unicode="_" glyph-name="gid99" horiz-adv-x="620" d="M68-152V-48H552V-152H68Z" />
      <glyph unicode="`" glyph-name="gid197" horiz-adv-x="292" d="M147,555L43,700H174l75-145H147Z" />
      <glyph unicode="a" glyph-name="gid29" horiz-adv-x="577" d="M226-14q-52,0-94,18.5T65.5,58T41,144q0,50 24.5,84T133,279.5T231,297H374v30q0,39-24,63.5T275,415q-50,0-75.5-23.5T166,331L60,366q12,39 38.5,71T169,488.5T277,508q97,0 152.5-48.5T485,319V125q0-30 28-30h42V0H474q-36,0-59,18T392,67v2H375q-6-14-21-34T308.5,0.5T226-14Zm19,94q57,0 93,32.5T374,200v10H238q-37,0-60-16t-23-47q0-30 24-48.5T245,80Z" />
      <glyph unicode="b" glyph-name="gid30" horiz-adv-x="639" d="M365-14q-70,0-107.5,24.5T203,65H186V0H73V700H188V432h17q11,20 30.5,37t51,28T365,508q61,0 112-29.5T559,392t31-137V239q0-80-31-137T476.5,15.5T365-14ZM331,86q62,0 103,40.5T475,242v10q0,76-40.5,116T331,408q-62,0-103.5-40T186,252V242q0-75 41.5-115.5T331,86Z" />
      <glyph unicode="c" glyph-name="gid31" horiz-adv-x="589" d="M304-14q-72,0-130,30T82.5,103T49,240v14q0,80 33.5,137T174,478t130,30q71,0 121.5-25T507,414.5T547,317L436,294q-4,31-19,56.5T374.5,391T307,406q-41,0-73.5-17.5t-51-52.5T164,252V242q0-49 18.5-83.5t51-52.5T307,88q61,0 92.5,31.5T439,201l111-26q-12-52-43-95T425.5,11.5T304-14Z" />
      <glyph unicode="d" glyph-name="gid32" horiz-adv-x="639" d="M275-14q-60,0-112,29.5T80,102T49,239v16q0,80 31,137t82.5,86.5T275,508q46,0 78-11t51.5-28T435,432h17V700H566V0H454V65H437q-18-30-55-54.5T275-14ZM309,86q62,0 103,40.5T453,242v10q0,76-40.5,116T309,408q-62,0-103.5-40T164,252V242q0-75 41.5-115.5T309,86Z" />
      <glyph unicode="e" glyph-name="gid33" horiz-adv-x="581" d="M299-14q-74,0-130.5,31.5t-88,89T49,241v12q0,78 31,135t87,88.5T296,508q72,0 126-31.5T506,388t30-133V214H165q2-58 41-93t96-35q56,0 83,24.5T426,166l95-49q-14-27-40.5-57.5T410,7.5T299-14ZM166,301H419q-4,49-37.5,78T295,408q-55,0-88-29t-41-78Z" />
      <glyph unicode="f" glyph-name="gid34" horiz-adv-x="437" d="M159,0V399H27v95H159V594q0,49 28.5,77.5T263,700H391V605H301q-28,0-28-30V494H409V399H273V0H159Z" />
      <glyph unicode="g" glyph-name="gid35" horiz-adv-x="639" d="M49,245v15q0,78 31,133.5t83,85T277,508q70,0 106.5-25T437,429h17v65H566V-94q0-49-28-77.5T462-200H130v100H423q29,0 29,30V73H435q-11-17-30-34.5T355,9T277-3Q215-3 163,26.5t-83,85T49,245ZM309,98q62,0 103,39.5T453,248v10q0,72-40.5,111T309,408q-62,0-103.5-39T164,258V248q0-71 41.5-110.5T309,98Z" />
      <glyph unicode="h" glyph-name="gid36" horiz-adv-x="615" d="M73,0V700H188V429h17q8,17 26,34t47.5,28T353,502q57,0 101-25.5T522.5,405T547,296V0H432V287q0,60-29.5,89.5T319,406q-61,0-96-40.5T188,250V0H73Z" />
      <glyph unicode="i" glyph-name="gid37" horiz-adv-x="261" d="M73,0V494H188V0H73Zm57,557q-31,0-53.5,20.5T54,632t22.5,54.5T130,707q33,0 54.5-20.5T206,632t-21.5-54.5T130,557Z" />
      <glyph unicode="j" glyph-name="gid38" horiz-adv-x="263" d="M-20-200v99H47q28,0 28,30V494H190V-94q0-49-28.5-77.5T85-200H-20ZM132,557q-31,0-53.5,20.5T56,632t22.5,54.5T132,707q33,0 54.5-20.5T208,632t-21.5-54.5T132,557Z" />
      <glyph unicode="k" glyph-name="gid39" horiz-adv-x="558" d="M73,0V700H188V307h17L383,494H534L295,255L542,0H393L205,201H188V0H73Z" />
      <glyph unicode="l" glyph-name="gid40" horiz-adv-x="261" d="M73,0V700H188V0H73Z" />
      <glyph unicode="m" glyph-name="gid41" horiz-adv-x="855" d="M73,0V494H186V439h17q13,25 43.5,44.5T328,503q54,0 87-22t50-56h16q17,34 49,56t91,22q46,0 83.5-20t60-59T787,327V0H672V319q0,43-23,65.5T585,407q-45,0-71.5-29.5T487,293V0H373V319q0,43-23,65.5T286,407q-46,0-72-29.5T188,293V0H73Z" />
      <glyph unicode="n" glyph-name="gid42" horiz-adv-x="615" d="M73,0V494H186V425h17q13,28 47,53t103,25q57,0 101-26t68.5-72T547,296V0H432V287q0,60-29.5,89.5T319,406q-61,0-96-40.5T188,250V0H73Z" />
      <glyph unicode="o" glyph-name="gid43" horiz-adv-x="613" d="M307-14q-74,0-132.5,30.5t-92,87T49,239v16q0,79 33.5,136t92,87T307,508t132-30t91.5-87T564,255V239q0-79-33.5-135.5T439,16.5T307-14Zm0,102q63,0 103,40.5T450,242v10q0,73-40,113.5T307,406T204,365.5T164,252V242q0-73 40-113.5T307,88Z" />
      <glyph unicode="p" glyph-name="gid44" horiz-adv-x="639" d="M73-200V494H186V429h17q17,31 54.5,55T365,508q60,0 111.5-29.5T559,392t31-137V239q0-80-31-137T477,15.5T365-14q-47,0-78.5,11t-51,29T205,62H188V-200H73ZM331,86q63,0 103.5,40.5T475,242v10q0,76-41,116T331,408T227.5,368T186,252V242q0-75 41.5-115.5T331,86Z" />
      <glyph unicode="q" glyph-name="gid45" horiz-adv-x="639" d="M452-200V62H435q-11-18-30.5-36T353-3T275-14q-61,0-112.5,29.5T80,102T49,239v16q0,80 31,137t83,86.5T275,508q70,0 107-24t55-55h17v65H566V-200H452ZM309,86q63,0 103.5,40.5T453,242v10q0,76-41,116T309,408T205.5,368T164,252V242q0-75 41.5-115.5T309,86Z" />
      <glyph unicode="r" glyph-name="gid46" horiz-adv-x="391" d="M73,0V494H186V437h17q11,31 37,45t62,14h60V394H300q-50,0-81-26.5T188,286V0H73Z" />
      <glyph unicode="s" glyph-name="gid47" horiz-adv-x="525" d="M277-14q-96,0-158,42T44,151l106,27q7-38 25-60t44.5-31T277,78q47,0 70.5,17T371,138q0,27-22.5,40T280,200l-31,5q-51,10-93,27.5t-67.5,48T63,358q0,72 53.5,111T257,508q83,0 137-37t70-99L358,340q-8,42-35,59.5T257,417q-40,0-61.5-14T174,363t22-39t59-19l31-6q55-10 99.5-26T456,227t26-81q0-77-55.5-118.5T277-14Z" />
      <glyph unicode="t" glyph-name="gid48" horiz-adv-x="457" d="M261,0q-48,0-76.5,28.5T156,106V399H27v95H156V653H271V494H413V399H271V125q0-30 28-30h99V0H261Z" />
      <glyph unicode="u" glyph-name="gid49" horiz-adv-x="615" d="M262-8Q205-8 161,17.5t-68,72T69,198V494H183V207q0-60 29.5-89T296,89q61,0 96.5,40T428,244V494H542V0H430V69H413q-13-27-47.5-52T262-8Z" />
      <glyph unicode="v" glyph-name="gid50" horiz-adv-x="546" d="M182,0L20,494H142L264,84h17L404,494H526L364,0H182Z" />
      <glyph unicode="w" glyph-name="gid51" horiz-adv-x="788" d="M120,0L43,494H157L210,77h17l75,417H486L561,77h17l53,417H745L668,0H477L403,417H386L311,0H120Z" />
      <glyph unicode="x" glyph-name="gid52" horiz-adv-x="592" d="M30,0L214,249L33,494H167L288,323h17L426,494H559L378,249L562,0H427L305,174H288L166,0H30Z" />
      <glyph unicode="y" glyph-name="gid53" horiz-adv-x="615" d="M128-200v100H401q28,0 28,30V68H412q-8-18-26-35.5t-48-29T262-8Q205-8 161,17.5t-68,72T69,198V494H183V207q0-60 29.5-89T296,89q61,0 96.5,40T428,244V494H542V-94q0-49-28-77.5T438-200H128Z" />
      <glyph unicode="z" glyph-name="gid54" horiz-adv-x="519" d="M54,0V138L336,384v15H64v95H460V356L178,110V95H468V0H54Z" />
      <glyph unicode="{" glyph-name="gid67" horiz-adv-x="458" d="M274-243q-42,0-69,27t-27,69V166q0,34-33,34H37V310H145q33,0 33,34V657q0,42 27,69t69,27H441V655H316q-27,0-27-30V343q0-34-21-57t-56-23H198V247h14q35,0 56-23t21-57V-115q0-30 27-30H441v-98H274Z" />
      <glyph unicode="|" glyph-name="gid72" horiz-adv-x="253" d="M69-246V806H184V-246H69Z" />
      <glyph unicode="}" glyph-name="gid68" horiz-adv-x="458" d="M17-243v98H141q27,0 27,30V167q0,34 21,57t57,23h13v16H246q-36,0-57,23t-21,57V625q0,30-27,30H17v98H183q42,0 69-27t27-69V344q0-34 34-34H421V200H313q-34,0-34-34V-147q0-42-27-69t-69-27H17Z" />
      <glyph unicode="~" glyph-name="gid194" horiz-adv-x="620" d="M117,245L53,329l113,86q20,16 41.5,26.5T257,452q29,0 47.5-12.5T337,408q13-19 21-27t21-8q12,0 22,6t21,15l80,61l64-84L453,285q-19-15-41-26t-50-11q-29,0-47.5,12.5T282,292q-13,20-20.5,27.5T240,327q-12,0-21.5-6T197,306l-80-61Z" />
      <glyph unicode="&#xa0;" glyph-name="gid253" horiz-adv-x="255" />
      <glyph unicode="&#xa1;" glyph-name="gid89" horiz-adv-x="287" d="M85-200V275H202V-200H85Zm59,708q38,0 63-24.5T232,420t-25-63.5T144,332T80.5,356.5T55,420t25.5,63.5T144,508Z" />
      <glyph unicode="&#xa2;" glyph-name="gid179" horiz-adv-x="598" d="M308-14q-72,0-130,30T86,103T52,240v14q0,80 34,137t92,87t130,30q70,0 120.5-25T510,414.5T551,317L440,294q-5,31-20,56.5T378,391t-68,15t-73.5-17.5t-51-52.5T167,252V242q0-49 18.5-83.5t51-52.5T310,88q61,0 92.5,31.5T443,201l111-26q-13-52-44-95T428.5,11.5T308-14ZM258-116V612H361V-116H258Z" />
      <glyph unicode="&#xa3;" glyph-name="gid177" horiz-adv-x="636" d="M54,0V104h74V291H58v94h70V495q0,104 60.5,161.5T352,714q104,0 164-57.5T576,495V434H462v64q0,53-29.5,82.5T352,610q-50,0-79.5-29.5T243,498V385H349V291H243V104H581V0H54Z" />
      <glyph unicode="&#xa4;" glyph-name="gid175" horiz-adv-x="620" d="M112,81L41,152l61,61q-21,29-31.5,63.5T60,350q0,38 10.5,73T102,487L41,548l71,71l61-61q29,20 63.5,31T310,600q38,0 73-11t64-31l61,61l71-71l-61-61q20-29 31-64t11-73q0-39-11-73.5T518,213l61-61L508,81l-61,61q-29-21-64-31.5T310,100q-39,0-73.5,10.5T173,142L112,81ZM310,199q42,0 76,20t54.5,54T461,350t-20.5,77T386,481t-76,20t-76-20t-54.5-54T159,350q0-42 20.5-76.5T234,219t76-20Z" />
      <glyph unicode="&#xa5;" glyph-name="gid178" horiz-adv-x="620" d="M250,0V271l-20,10L3,700H140L302,393h16L480,700H617L390,281l-20-10V0H250ZM89,117v93H531V117H89Zm0,148v94H531V265H89Z" />
      <glyph unicode="&#xa6;" glyph-name="gid73" horiz-adv-x="253" d="M69,366V806H184V366H69Zm0-612V194H184V-246H69Z" />
      <glyph unicode="&#xa7;" glyph-name="gid169" horiz-adv-x="480" d="M244-14Q146-14 89.5,40T33,184v16H133V187q0-49 27-78t83-29q46,0 69,18.5T335,151q0,33-22,50.5T234,230q-85,15-132,53T55,391q0,24 6,44.5T78,473q-23,34-23,79v6q0,49 24,84t64.5,53.5T235,714q86,0 140-44t54-121V525H330v15q0,23-10,41.5T289.5,610T238,620q-37,0-59-16t-22-46q0-36 30.5-52T266,481q88-16 129.5-54.5T437,323q0-50-20-86q10-16 14.5-35t4.5-40v-8q0-74-49.5-121T244-14Zm86,317q2,3 2.5,6.5T333,319q0,28-21.5,45.5T234,392q-19,3-37,8.5T162,412q-4-8-4-21q0-32 29.5-47T265,320q21-4 35.5-7.5T330,303Z" />
      <glyph unicode="&#xa8;" glyph-name="gid201" horiz-adv-x="440" d="M321,553q-32,0-54,20.5T245,628q0,35 22,55t54,20q33,0 54-20t21-55q0-34-21-54.5T321,553Zm-202,0q-32,0-54,20.5T43,628q0,35 22,55t54,20q33,0 54.5-20T195,628q0-34-21.5-54.5T119,553Z" />
      <glyph unicode="&#xa9;" glyph-name="gid171" horiz-adv-x="716" d="M349-12q-90,0-157,35.5T88.5,126.5T52,291V409q0,97 36.5,164.5T192,676.5T349,712h18q91,0 157.5-35.5t103-103T664,409V291q0-97-36.5-164.5t-103-103T367-12H349Zm2,88h15q97,0 150.5,54T570,290V410q0,106-53.5,160T366,624H351q-98,0-151-54T147,410V290q0-106 53-160T351,76Zm10,73q-65,0-103.5,39T219,301v99q0,74 38.5,113.5T361,553q70,0 104-39t34-102V397H411v21q0,23-11.5,37.5T361,470q-25,0-38.5-14.5T309,416V285q0-25 14-39t38-14q25,0 37.5,14T411,285v20h88V290q0-63-33.5-102T361,149Z" />
      <glyph unicode="&#xaa;" glyph-name="gid167" horiz-adv-x="419" d="M164,340q-55,0-92,28T35,451q0,53 37.5,81T167,560h95v17q0,29-15,46.5T197,641q-33,0-50.5-16.5T123,586L48,611q11,40 48.5,69T200,709t106.5-33.5T347,574V438q0-21 19-21h33V350H338q-26,0-41.5,12T279,396H267q-4-10-15.5-23T219,350t-55-10Zm15,69q39,0 61,19t22,59v11H175q-24,0-39.5-12T120,455q0-21 16-33.5T179,409Z" />
      <glyph unicode="&#xab;" glyph-name="gid241" horiz-adv-x="711" d="M637,9L344,185V310L637,486h6V363L452,256V240L643,133V9h-6ZM345,9L52,185V310L345,486h6V363L160,256V240L351,133V9h-6Z" />
      <glyph unicode="&#xac;" glyph-name="gid195" horiz-adv-x="620" d="M418,175V298H100V402H520V175H418Z" />
      <glyph unicode="&#xad;" glyph-name="gid273" horiz-adv-x="438" d="M71,204V307H367V204H71Z" />
      <glyph unicode="&#xae;" glyph-name="gid172" horiz-adv-x="520" d="M260,298q-60,0-107.5,26.5T77.5,398T50,506T77.5,614t75,73.5T260,714t107.5-26.5t75-73.5T470,506T442.5,398t-75-73.5T260,298Zm0,41q75,0 121,45.5T427,506q0,75-46,121T260,673T139,627.5T93,506q0-75 46-121t121-46Zm-72,58V619h85q37,0 56-18t19-42q0-20-9.5-34T308,503V493q17-1 24.5-11t7.5-26V397H299v60q0,21-21,21H229V397H188Zm41,119h44q17,0 25.5,10t8.5,23q0,14-8.5,23.5T273,582H229V516Z" />
      <glyph unicode="&#xaf;" glyph-name="gid202" horiz-adv-x="410" d="M43,568v92H367V568H43Z" />
      <glyph unicode="&#xb0;" glyph-name="gid196" horiz-adv-x="391" d="M195,397q-45,0-82,20.5T54.5,474T33,556t21.5,82T113,694t82,20q46,0 83-20t58.5-56T358,556t-21.5-82T278,417.5T195,397Zm0,89q31,0 50.5,19.5T265,556t-19.5,50T195,625q-30,0-50-18.5T125,556q0-31 20-50.5T195,486Z" />
      <glyph unicode="&#xb1;" glyph-name="gid192" horiz-adv-x="620" d="M256,159V299H101V403H256V543H364V403H519V299H364V159H256ZM101,0V104H519V0H101Z" />
      <glyph unicode="&#xb2;" glyph-name="gid209" horiz-adv-x="365" d="M26,350v41q0,58 32.5,92T159,532q47,11 69,25t22,38q0,22-18,34.5T186,642q-27,0-47-14t-23-48l-86,6q5,62 48,94t108,32q66,0 108-32t42-86t-37-81T198,472q-43-10-61-21t-19-31H334V350H26Z" />
      <glyph unicode="&#xb3;" glyph-name="gid210" horiz-adv-x="366" d="M183,338q-66,0-111,32T22,461l85,8q3-28 24.5-44.5T183,408q32,0 50.5,16T252,463q0,25-18.5,37.5T181,513H116v63l94,42v13H29v69H336V626L225,572V559q53-2 83-26t30-73q0-36-20.5-63.5t-55.5-43T183,338Z" />
      <glyph unicode="&#xb4;" glyph-name="gid198" horiz-adv-x="292" d="M43,553l75,145H249L145,553H43Z" />
      <glyph unicode="&#xb5;" glyph-name="gid251" horiz-adv-x="623" d="M69-200V494H184V206q0-57 29.5-87T296,89q61,0 94,38t33,110V494H537V125q0-30 28-30h42V0H526q-36,0-58.5,18T443,70v6H426q-13-35-47.5-59.5T288-8q-35,0-56.5,9.5T197,23H180V-200H69Z" />
      <glyph unicode="&#xb6;" glyph-name="gid170" horiz-adv-x="605" d="M256,0V289H233q-63,0-111.5,26T46,385.5T19,489v11q0,60 28,105t77.5,70T237,700H535V0H436V606H355V0H256ZM228,383h28V606H228q-50,0-80-29.5T118,498v-6q0-49 31-79t79-30Z" />
      <glyph unicode="&#xb7;" glyph-name="gid97" horiz-adv-x="210" d="M106,198q-38,0-63.5,25T17,287q0,38 25.5,63T106,375t63-25t25-64t-25-63.5T106,198Z" />
      <glyph unicode="&#xb8;" glyph-name="gid204" horiz-adv-x="327" d="M156-212q-32,0-61.5,6.5T43-190l22,69q18-7 39-12.5t47-5.5q20,0 33.5,7T198-109q0,14-12,21t-37,7H111l8,101h79l-5-61q39,0 64.5-20.5T283-122q0-31-18-51t-47-29.5T156-212Z" />
      <glyph unicode="&#xb9;" glyph-name="gid208" horiz-adv-x="259" d="M132,350V625H119L96,544H17L65,700H217V350H132Z" />
      <glyph unicode="&#xba;" glyph-name="gid168" horiz-adv-x="436" d="M218,340q-83,0-133.5,48.5T34,525T84.5,661T218,709t134-48t51-136T352,388.5T218,340Zm0,70q45,0 71.5,29.5T316,525q0,55-26.5,84.5T218,639q-44,0-71-29.5T120,525q0-56 27-85.5T218,410Z" />
      <glyph unicode="&#xbb;" glyph-name="gid242" horiz-adv-x="711" d="M360,9V133L551,240v16L360,363V486h6L659,310V185L366,9h-6ZM68,9V133L259,240v16L68,363V486h6L367,310V185L74,9H68Z" />
      <glyph unicode="&#xbc;" glyph-name="gid182" horiz-adv-x="826" d="M132,350V625H119L96,544H17L65,700H217V350H132Zm6-360L76,40L619,710l62-50L138-10ZM660,0V74H455v82L597,350H746V144h64V74H746V0H660ZM548,144H660V290H646L548,156V144Z" />
      <glyph unicode="&#xbd;" glyph-name="gid183" horiz-adv-x="824" d="M132,350V625H119L96,544H17L65,700H217V350H132Zm6-360L76,40L619,710l62-50L138-10ZM485,0V41q0,58 32.5,92T618,182q47,11 69,25t22,38q0,22-18,34.5T645,292q-27,0-47-14t-23-48l-86,6q5,62 48,94t108,32q66,0 108-32t42-86t-37-81T657,122q-43-10-61-21T577,70H793V0H485Z" />
      <glyph unicode="&#xbe;" glyph-name="gid184" horiz-adv-x="892" d="M183,338q-66,0-111,32T22,461l85,8q3-28 24.5-44.5T183,408q32,0 50.5,16T252,463q0,25-18.5,37.5T181,513H116v63l94,42v13H29v69H336V626L225,572V559q53-2 83-26t30-73q0-36-20.5-63.5t-55.5-43T183,338ZM203-10L141,40L684,710l62-50L203-10ZM725,0V74H520v82L662,350H811V144h64V74H811V0H725ZM613,144H725V290H711L613,156V144Z" />
      <glyph unicode="&#xbf;" glyph-name="gid91" horiz-adv-x="579" d="M288-214q-71,0-126.5,25.5T74.5-117T43-12T65,85.5T120.5,148T190,189l20,9q18,8 25.5,19.5T243,252v23H363V247q0-50-19.5-81T278,113l-20-9q-46-21-71.5-46T161-12q0-32 16-54.5t45-34T288-112q38,0 69,12.5T406-61T424,4V29H542V5q0-68-33.5-117t-91-75.5T288-214Zm11,722q38,0 63.5-24.5T388,420t-25.5-63.5T299,332q-37,0-62.5,24.5T211,420t25.5,63.5T299,508Z" />
      <glyph unicode="&#xc0;" glyph-name="gid103" horiz-adv-x="633" d="M20,0L212,700H421L613,0H489L447,160H186L144,0H20ZM214,270H419L325,625H308L214,270Zm72,489L185,887H320l69-128H286Z" />
      <glyph unicode="&#xc1;" glyph-name="gid104" horiz-adv-x="633" d="M20,0L212,700H421L613,0H489L447,160H186L144,0H20ZM214,270H419L325,625H308L214,270Zm29,488l70,128H447L347,758H243Z" />
      <glyph unicode="&#xc2;" glyph-name="gid105" horiz-adv-x="633" d="M20,0L212,700H421L613,0H489L447,160H186L144,0H20ZM214,270H419L325,625H308L214,270ZM128,758L246,886H387L504,758H379l-54,68H308l-55-68H128Z" />
      <glyph unicode="&#xc3;" glyph-name="gid106" horiz-adv-x="633" d="M20,0L212,700H421L613,0H489L447,160H186L144,0H20ZM214,270H419L325,625H308L214,270ZM199,749l-60,46l32,45q17,23 37,36t47,13q24,0 39.5-8T327,858q11-10 21.5-18t24.5-8q15,0 24.5,9T415,861l19,27l60-47l-32-44q-16-23-36-36t-47-13q-24,0-39.5,8T306,779q-10,9-20.5,17.5T261,805q-15,0-24.5-9.5T218,775l-19-26Z" />
      <glyph unicode="&#xc4;" glyph-name="gid107" horiz-adv-x="633" d="M20,0L212,700H421L613,0H489L447,160H186L144,0H20ZM214,270H419L325,625H308L214,270ZM424,755q-32,0-53.5,20.5T349,830q0,35 21.5,55T424,905q33,0 54.5-20T500,830q0-34-21.5-54.5T424,755Zm-216,0q-32,0-54,20.5T132,830q0,35 22,55t54,20q33,0 54.5-20T284,830q0-34-21.5-54.5T208,755Z" />
      <glyph unicode="&#xc5;" glyph-name="gid108" horiz-adv-x="633" d="M20,0L212,700H421L613,0H489L447,160H186L144,0H20ZM214,270H419L325,625H308L214,270ZM316,748q-43,0-73,28t-30,71t30,71t73,28q44,0 73.5-27.5T419,847q0-45-31-72t-72-27Zm0,66q16,0 24.5,9t8.5,24q0,14-8.5,23.5T316,880q-14,0-23.5-9.5T283,847t9.5-23.5T316,814Z" />
      <glyph unicode="&#xc6;" glyph-name="gid109" horiz-adv-x="823" d="M378,0V700H782V591H497V407H754V298H497V109H788V0H378ZM20,0L266,700H378V636H362L235,270H378V160H199L143,0H20Z" />
      <glyph unicode="&#xc7;" glyph-name="gid110" horiz-adv-x="643" d="M332-14Q204-14 128,58.5T52,267V433q0,136 76,208.5T332,714t197.5-70T599,452v-6H481v9q0,66-36.5,108.5T332,606q-74,0-116.5-45.5T173,435V265q0-79 42.5-125T332,94q76,0 112.5,42.5T481,245v17H599V248q0-122-69.5-192T332-14Zm0-198q-32,0-61.5,6.5T219-190l22,69q18-7 39-12.5t47-5.5q20,0 33.5,7T374-109q0,14-12,21t-37,7H287l8,101h79l-5-61q39,0 64.5-20.5T459-122q0-31-18-51t-47-29.5T332-212Z" />
      <glyph unicode="&#xc8;" glyph-name="gid112" horiz-adv-x="556" d="M69,0V700H515V591H190V407H487V298H190V109H520V0H69ZM267,759L166,887H301l69-128H267Z" />
      <glyph unicode="&#xc9;" glyph-name="gid113" horiz-adv-x="556" d="M69,0V700H515V591H190V407H487V298H190V109H520V0H69ZM224,758l70,128H428L328,758H224Z" />
      <glyph unicode="&#xca;" glyph-name="gid114" horiz-adv-x="556" d="M69,0V700H515V591H190V407H487V298H190V109H520V0H69Zm40,758L227,886H368L485,758H360l-54,68H289l-55-68H109Z" />
      <glyph unicode="&#xcb;" glyph-name="gid115" horiz-adv-x="556" d="M69,0V700H515V591H190V407H487V298H190V109H520V0H69ZM405,755q-32,0-53.5,20.5T330,830q0,35 21.5,55T405,905q33,0 54.5-20T481,830q0-34-21.5-54.5T405,755Zm-216,0q-32,0-54,20.5T113,830q0,35 22,55t54,20q33,0 54.5-20T265,830q0-34-21.5-54.5T189,755Z" />
      <glyph unicode="&#xcc;" glyph-name="gid116" horiz-adv-x="259" d="M69,0V700H190V0H69ZM99,759L-2,887H133l69-128H99Z" />
      <glyph unicode="&#xcd;" glyph-name="gid117" horiz-adv-x="259" d="M69,0V700H190V0H69ZM56,758l70,128H260L160,758H56Z" />
      <glyph unicode="&#xce;" glyph-name="gid118" horiz-adv-x="259" d="M69,0V700H190V0H69ZM-59,758L59,886H200L317,758H192l-54,68H121L66,758H-59Z" />
      <glyph unicode="&#xcf;" glyph-name="gid119" horiz-adv-x="259" d="M69,0V700H190V0H69ZM237,755q-32,0-53.5,20.5T162,830q0,35 21.5,55T237,905q33,0 54.5-20T313,830q0-34-21.5-54.5T237,755ZM21,755q-32,0-54,20.5T-55,830q0,35 22,55t54,20q33,0 54.5-20T97,830q0-34-21.5-54.5T21,755Z" />
      <glyph unicode="&#xd0;" glyph-name="gid111" horiz-adv-x="665" d="M46,0V106h94V594H46V700H331q140,0 214-71t74-213V284q0-142-74-213T331,0H46ZM260,109h72q85,0 126,44t41,127V419q0,85-41,128.5T332,591H260V109ZM46,308v83H377V308H46Z" />
      <glyph unicode="&#xd1;" glyph-name="gid120" horiz-adv-x="668" d="M69,0V700H299L464,81h16V700H599V0H370L205,619H188V0H69ZM216,749l-60,46l32,45q17,23 37,36t47,13q24,0 39.5-8T344,858q11-10 21.5-18t24.5-8q15,0 24.5,9T432,861l19,27l60-47l-32-44q-16-23-36-36t-47-13q-24,0-39.5,8T323,779q-10,9-20.5,17.5T278,805q-15,0-24.5-9.5T235,775l-19-26Z" />
      <glyph unicode="&#xd2;" glyph-name="gid121" horiz-adv-x="674" d="M337-14Q207-14 129.5,58.5T52,267V433q0,136 77.5,208.5T337,714q131,0 208-72.5T622,433V267q0-136-77-208.5T337-14Zm0,108q78,0 121.5,45.5T502,263V437q0,78-43.5,123.5T337,606q-77,0-120.5-45.5T173,437V263q0-78 43.5-123.5T337,94ZM307,759L206,887H341l69-128H307Z" />
      <glyph unicode="&#xd3;" glyph-name="gid122" horiz-adv-x="674" d="M337-14Q207-14 129.5,58.5T52,267V433q0,136 77.5,208.5T337,714q131,0 208-72.5T622,433V267q0-136-77-208.5T337-14Zm0,108q78,0 121.5,45.5T502,263V437q0,78-43.5,123.5T337,606q-77,0-120.5-45.5T173,437V263q0-78 43.5-123.5T337,94ZM264,758l70,128H468L368,758H264Z" />
      <glyph unicode="&#xd4;" glyph-name="gid123" horiz-adv-x="674" d="M337-14Q207-14 129.5,58.5T52,267V433q0,136 77.5,208.5T337,714q131,0 208-72.5T622,433V267q0-136-77-208.5T337-14Zm0,108q78,0 121.5,45.5T502,263V437q0,78-43.5,123.5T337,606q-77,0-120.5-45.5T173,437V263q0-78 43.5-123.5T337,94ZM149,758L267,886H408L525,758H400l-54,68H329l-55-68H149Z" />
      <glyph unicode="&#xd5;" glyph-name="gid124" horiz-adv-x="674" d="M337-14Q207-14 129.5,58.5T52,267V433q0,136 77.5,208.5T337,714q131,0 208-72.5T622,433V267q0-136-77-208.5T337-14Zm0,108q78,0 121.5,45.5T502,263V437q0,78-43.5,123.5T337,606q-77,0-120.5-45.5T173,437V263q0-78 43.5-123.5T337,94ZM219,749l-60,46l32,45q17,23 37,36t47,13q24,0 39.5-8T347,858q11-10 21.5-18t24.5-8q15,0 24.5,9T435,861l19,27l60-47l-32-44q-16-23-36-36t-47-13q-24,0-39.5,8T326,779q-10,9-20.5,17.5T281,805q-15,0-24.5-9.5T238,775l-19-26Z" />
      <glyph unicode="&#xd6;" glyph-name="gid125" horiz-adv-x="674" d="M337-14Q207-14 129.5,58.5T52,267V433q0,136 77.5,208.5T337,714q131,0 208-72.5T622,433V267q0-136-77-208.5T337-14Zm0,108q78,0 121.5,45.5T502,263V437q0,78-43.5,123.5T337,606q-77,0-120.5-45.5T173,437V263q0-78 43.5-123.5T337,94ZM445,755q-32,0-53.5,20.5T370,830q0,35 21.5,55T445,905q33,0 54.5-20T521,830q0-34-21.5-54.5T445,755Zm-216,0q-32,0-54,20.5T153,830q0,35 22,55t54,20q33,0 54.5-20T305,830q0-34-21.5-54.5T229,755Z" />
      <glyph unicode="&#xd7;" glyph-name="gid187" horiz-adv-x="620" d="M174,141l-74,74L236,350L100,485l74,74L310,424L446,559l74-74L384,350L520,215l-74-74L310,276L174,141Z" />
      <glyph unicode="&#xd8;" glyph-name="gid126" horiz-adv-x="674" d="M337-14Q207-14 129.5,58.5T52,267V433q0,136 77.5,208.5T337,714q131,0 208-72.5T622,433V267q0-136-77-208.5T337-14Zm0,108q78,0 121.5,45.5T502,263V437q0,78-43.5,123.5T337,606q-77,0-120.5-45.5T173,437V263q0-78 43.5-123.5T337,94ZM205-91L128-60L471,779l77-31L205-91Z" />
      <glyph unicode="&#xd9;" glyph-name="gid128" horiz-adv-x="671" d="M335-14q-84,0-144.5,30.5T97.5,105T65,243V700H185V240q0-70 39-108T335,94q73,0 111.5,38T485,240V700H605V243q0-80-32-138T480,16.5T335-14ZM305,759L204,887H339l69-128H305Z" />
      <glyph unicode="&#xda;" glyph-name="gid129" horiz-adv-x="671" d="M335-14q-84,0-144.5,30.5T97.5,105T65,243V700H185V240q0-70 39-108T335,94q73,0 111.5,38T485,240V700H605V243q0-80-32-138T480,16.5T335-14ZM262,758l70,128H466L366,758H262Z" />
      <glyph unicode="&#xdb;" glyph-name="gid130" horiz-adv-x="671" d="M335-14q-84,0-144.5,30.5T97.5,105T65,243V700H185V240q0-70 39-108T335,94q73,0 111.5,38T485,240V700H605V243q0-80-32-138T480,16.5T335-14ZM147,758L265,886H406L523,758H398l-54,68H327l-55-68H147Z" />
      <glyph unicode="&#xdc;" glyph-name="gid131" horiz-adv-x="671" d="M335-14q-84,0-144.5,30.5T97.5,105T65,243V700H185V240q0-70 39-108T335,94q73,0 111.5,38T485,240V700H605V243q0-80-32-138T480,16.5T335-14ZM443,755q-32,0-53.5,20.5T368,830q0,35 21.5,55T443,905q33,0 54.5-20T519,830q0-34-21.5-54.5T443,755Zm-216,0q-32,0-54,20.5T151,830q0,35 22,55t54,20q33,0 54.5-20T303,830q0-34-21.5-54.5T227,755Z" />
      <glyph unicode="&#xdd;" glyph-name="gid132" horiz-adv-x="621" d="M250,0V247L9,700H144L302,391h17L477,700H611L370,247V0H250ZM237,758l70,128H441L341,758H237Z" />
      <glyph unicode="&#xde;" glyph-name="gid133" horiz-adv-x="603" d="M190,141V251H340q52,0 83.5,28T455,355v10q0,49-31,77t-84,28H190V579H352q66,0 116-26t79-73.5T576,367V354q0-65-29.5-113t-80-74T352,141H190ZM69,0V700H190V0H69Z" />
      <glyph unicode="&#xdf;" glyph-name="gid159" horiz-adv-x="645" d="M422-14Q360-14 316.5,7T248,61.5T215,131l103,32q9-39 34.5-61.5T422,79q40,0 62.5,21.5T507,156q0,22-10.5,37T467,218.5T423,238l-41,15q-42,16-62,40.5T300,349q0,35 17,57t49,44q26,17 46.5,40.5T433,547q0,32-27.5,51T335,617q-34,0-68.5-17t-57-56.5T187,437V0H73V433q0,89 33.5,152T199,681t136,33q61,0 109-21t75-58.5T546,550q0-43-15.5-73.5t-40.5-52T437,385q-10-5-15-11t-5-13q0-16 27-26l28-11q42-15 75.5-36t53-52.5T620,155T596,68T528,8T422-14Z" />
      <glyph unicode="&#xe0;" glyph-name="gid134" horiz-adv-x="577" d="M226-14q-52,0-94,18.5T65.5,58T41,144q0,50 24.5,84T133,279.5T231,297H374v30q0,39-24,63.5T275,415q-50,0-75.5-23.5T166,331L60,366q12,39 38.5,71T169,488.5T277,508q97,0 152.5-48.5T485,319V125q0-30 28-30h42V0H474q-36,0-59,18T392,67v2H375q-6-14-21-34T308.5,0.5T226-14Zm19,94q57,0 93,32.5T374,200v10H238q-37,0-60-16t-23-47q0-30 24-48.5T245,80Zm5,475L146,700H277l75-145H250Z" />
      <glyph unicode="&#xe1;" glyph-name="gid135" horiz-adv-x="577" d="M226-14q-52,0-94,18.5T65.5,58T41,144q0,50 24.5,84T133,279.5T231,297H374v30q0,39-24,63.5T275,415q-50,0-75.5-23.5T166,331L60,366q12,39 38.5,71T169,488.5T277,508q97,0 152.5-48.5T485,319V125q0-30 28-30h42V0H474q-36,0-59,18T392,67v2H375q-6-14-21-34T308.5,0.5T226-14Zm19,94q57,0 93,32.5T374,200v10H238q-37,0-60-16t-23-47q0-30 24-48.5T245,80ZM210,553l75,145H416L312,553H210Z" />
      <glyph unicode="&#xe2;" glyph-name="gid136" horiz-adv-x="577" d="M226-14q-52,0-94,18.5T65.5,58T41,144q0,50 24.5,84T133,279.5T231,297H374v30q0,39-24,63.5T275,415q-50,0-75.5-23.5T166,331L60,366q12,39 38.5,71T169,488.5T277,508q97,0 152.5-48.5T485,319V125q0-30 28-30h42V0H474q-36,0-59,18T392,67v2H375q-6-14-21-34T308.5,0.5T226-14Zm19,94q57,0 93,32.5T374,200v10H238q-37,0-60-16t-23-47q0-30 24-48.5T245,80ZM94,553L213,698H350L469,553H351l-61,76H273l-61-76H94Z" />
      <glyph unicode="&#xe3;" glyph-name="gid137" horiz-adv-x="577" d="M226-14q-52,0-94,18.5T65.5,58T41,144q0,50 24.5,84T133,279.5T231,297H374v30q0,39-24,63.5T275,415q-50,0-75.5-23.5T166,331L60,366q12,39 38.5,71T169,488.5T277,508q97,0 152.5-48.5T485,319V125q0-30 28-30h42V0H474q-36,0-59,18T392,67v2H375q-6-14-21-34T308.5,0.5T226-14Zm19,94q57,0 93,32.5T374,200v10H238q-37,0-60-16t-23-47q0-30 24-48.5T245,80ZM170,543l-65,40l33,57q14,25 34.5,36.5T218,688q21,0 37.5-8.5T288,655q10-9 20.5-17.5T331,629q15,0 23.5,9T370,658l18,29l64-41l-32-56q-14-24-34-36t-46-12q-22,0-38,8.5T269,574q-9,10-19,18t-24,8t-22.5-9T188,572l-18-29Z" />
      <glyph unicode="&#xe4;" glyph-name="gid138" horiz-adv-x="577" d="M226-14q-52,0-94,18.5T65.5,58T41,144q0,50 24.5,84T133,279.5T231,297H374v30q0,39-24,63.5T275,415q-50,0-75.5-23.5T166,331L60,366q12,39 38.5,71T169,488.5T277,508q97,0 152.5-48.5T485,319V125q0-30 28-30h42V0H474q-36,0-59,18T392,67v2H375q-6-14-21-34T308.5,0.5T226-14Zm19,94q57,0 93,32.5T374,200v10H238q-37,0-60-16t-23-47q0-30 24-48.5T245,80ZM382,553q-32,0-54,20.5T306,628q0,35 22,55t54,20q33,0 54-20t21-55q0-34-21-54.5T382,553Zm-202,0q-32,0-54,20.5T104,628q0,35 22,55t54,20q33,0 54.5-20T256,628q0-34-21.5-54.5T180,553Z" />
      <glyph unicode="&#xe5;" glyph-name="gid139" horiz-adv-x="577" d="M226-14q-52,0-94,18.5T65.5,58T41,144q0,50 24.5,84T133,279.5T231,297H374v30q0,39-24,63.5T275,415q-50,0-75.5-23.5T166,331L60,366q12,39 38.5,71T169,488.5T277,508q97,0 152.5-48.5T485,319V125q0-30 28-30h42V0H474q-36,0-59,18T392,67v2H375q-6-14-21-34T308.5,0.5T226-14Zm19,94q57,0 93,32.5T374,200v10H238q-37,0-60-16t-23-47q0-30 24-48.5T245,80Zm36,460q-43,0-73,28t-30,71t30,71t73,28q44,0 73.5-28T384,639q0-45-31-72t-72-27Zm0,66q16,0 24.5,9t8.5,24q0,14-8.5,23.5T281,672q-14,0-23.5-9.5T248,639q0-15 9.5-24t23.5-9Z" />
      <glyph unicode="&#xe6;" glyph-name="gid140" horiz-adv-x="887" d="M625-14q-72,0-125.5,35.5t-83,96T387,251t29.5,131t81,92T616,508q72,0 122-32t76.5-87T841,265V209H490q3-54 38-88.5T619,86q54,0 82,23.5T743,158l86-60q-19-28-45.5-54T719,2T625-14ZM250,79q57,0 92.5,33.5T378,201v8H243q-41,0-65-16t-24-46q0-31 25-49.5T250,79ZM238-14Q152-14 96.5,26.5T41,142q0,77 54.5,115T235,295H378v32q0,38-27,63t-78,25q-50,0-77.5-24T157,331L55,366q14,39 41,71t71,51.5T273,508t100.5-20.5T436,434h26L440,259L450,81H423q-10-18-31-40T334,2.5T238-14ZM491,295H728q-1,53-32.5,83T612,408q-54,0-86-30.5T491,295Z" />
      <glyph unicode="&#xe7;" glyph-name="gid141" horiz-adv-x="589" d="M304-14q-72,0-130,30T82.5,103T49,240v14q0,80 33.5,137T174,478t130,30q71,0 121.5-25T507,414.5T547,317L436,294q-4,31-19,56.5T374.5,391T307,406q-41,0-73.5-17.5t-51-52.5T164,252V242q0-49 18.5-83.5t51-52.5T307,88q61,0 92.5,31.5T439,201l111-26q-12-52-43-95T425.5,11.5T304-14Zm1-198q-32,0-61.5,6.5T192-190l22,69q18-7 39-12.5t47-5.5q20,0 33.5,7T347-109q0,14-12,21t-37,7H260l8,101h79l-5-61q39,0 64.5-20.5T432-122q0-31-18-51t-47-29.5T305-212Z" />
      <glyph unicode="&#xe8;" glyph-name="gid143" horiz-adv-x="581" d="M299-14q-74,0-130.5,31.5t-88,89T49,241v12q0,78 31,135t87,88.5T296,508q72,0 126-31.5T506,388t30-133V214H165q2-58 41-93t96-35q56,0 83,24.5T426,166l95-49q-14-27-40.5-57.5T410,7.5T299-14ZM166,301H419q-4,49-37.5,78T295,408q-55,0-88-29t-41-78Zm98,254L160,700H291l75-145H264Z" />
      <glyph unicode="&#xe9;" glyph-name="gid144" horiz-adv-x="581" d="M299-14q-74,0-130.5,31.5t-88,89T49,241v12q0,78 31,135t87,88.5T296,508q72,0 126-31.5T506,388t30-133V214H165q2-58 41-93t96-35q56,0 83,24.5T426,166l95-49q-14-27-40.5-57.5T410,7.5T299-14ZM166,301H419q-4,49-37.5,78T295,408q-55,0-88-29t-41-78Zm59,252l75,145H431L327,553H225Z" />
      <glyph unicode="&#xea;" glyph-name="gid145" horiz-adv-x="581" d="M299-14q-74,0-130.5,31.5t-88,89T49,241v12q0,78 31,135t87,88.5T296,508q72,0 126-31.5T506,388t30-133V214H165q2-58 41-93t96-35q56,0 83,24.5T426,166l95-49q-14-27-40.5-57.5T410,7.5T299-14ZM166,301H419q-4,49-37.5,78T295,408q-55,0-88-29t-41-78ZM108,553L227,698H364L483,553H365l-61,76H287l-61-76H108Z" />
      <glyph unicode="&#xeb;" glyph-name="gid146" horiz-adv-x="581" d="M299-14q-74,0-130.5,31.5t-88,89T49,241v12q0,78 31,135t87,88.5T296,508q72,0 126-31.5T506,388t30-133V214H165q2-58 41-93t96-35q56,0 83,24.5T426,166l95-49q-14-27-40.5-57.5T410,7.5T299-14ZM166,301H419q-4,49-37.5,78T295,408q-55,0-88-29t-41-78ZM397,553q-32,0-54,20.5T321,628q0,35 22,55t54,20q33,0 54-20t21-55q0-34-21-54.5T397,553Zm-202,0q-32,0-54,20.5T119,628q0,35 22,55t54,20q33,0 54.5-20T271,628q0-34-21.5-54.5T195,553Z" />
      <glyph unicode="&#xec;" glyph-name="gid147" horiz-adv-x="261" d="M73,0V494H188V0H73ZM99,555L-5,700H126l75-145H99Z" />
      <glyph unicode="&#xed;" glyph-name="gid148" horiz-adv-x="261" d="M73,0V494H188V0H73ZM60,553l75,145H266L162,553H60Z" />
      <glyph unicode="&#xee;" glyph-name="gid149" horiz-adv-x="261" d="M73,0V494H188V0H73ZM-57,553L62,698H199L318,553H200l-61,76H122L61,553H-57Z" />
      <glyph unicode="&#xef;" glyph-name="gid150" horiz-adv-x="261" d="M73,0V494H188V0H73ZM231,553q-32,0-54,20.5T155,628q0,35 22,55t54,20q33,0 54-20t21-55q0-34-21-54.5T231,553ZM29,553q-32,0-54,20.5T-47,628q0,35 22,55t54,20q33,0 54.5-20T105,628q0-34-21.5-54.5T29,553Z" />
      <glyph unicode="&#xf0;" glyph-name="gid142" horiz-adv-x="616" d="M308-14q-77-1-135.5,31t-91,90T49,241v10q0,75 31,130.5T162.5,468T276,500q52,1 87-16.5T422,438h17q-20,79-83.5,137.5T192,668l36,92q111-36 186-104T527.5,493.5T566,284q0-98-32.5-164T443,20.5T308-14ZM307,88q42,0 74,18.5T431.5,160T450,244v5q0,74-40,115T307,405T204,364T164,249v-5q0-73 40-114.5T307,88ZM284,533l-54,41L375,774l55-41L284,533Z" />
      <glyph unicode="&#xf1;" glyph-name="gid151" horiz-adv-x="615" d="M73,0V494H186V425h17q13,28 47,53t103,25q57,0 101-26t68.5-72T547,296V0H432V287q0,60-29.5,89.5T319,406q-61,0-96-40.5T188,250V0H73ZM193,543l-65,40l33,57q14,25 34.5,36.5T241,688q21,0 37.5-8.5T311,655q10-9 20.5-17.5T354,629q15,0 23.5,9T393,658l18,29l64-41l-32-56q-14-24-34-36t-46-12q-22,0-38,8.5T292,574q-9,10-19,18t-24,8t-22.5-9T211,572l-18-29Z" />
      <glyph unicode="&#xf2;" glyph-name="gid152" horiz-adv-x="613" d="M307-14q-74,0-132.5,30.5t-92,87T49,239v16q0,79 33.5,136t92,87T307,508t132-30t91.5-87T564,255V239q0-79-33.5-135.5T439,16.5T307-14Zm0,102q63,0 103,40.5T450,242v10q0,73-40,113.5T307,406T204,365.5T164,252V242q0-73 40-113.5T307,88ZM275,555L171,700H302l75-145H275Z" />
      <glyph unicode="&#xf3;" glyph-name="gid153" horiz-adv-x="613" d="M307-14q-74,0-132.5,30.5t-92,87T49,239v16q0,79 33.5,136t92,87T307,508t132-30t91.5-87T564,255V239q0-79-33.5-135.5T439,16.5T307-14Zm0,102q63,0 103,40.5T450,242v10q0,73-40,113.5T307,406T204,365.5T164,252V242q0-73 40-113.5T307,88ZM236,553l75,145H442L338,553H236Z" />
      <glyph unicode="&#xf4;" glyph-name="gid154" horiz-adv-x="613" d="M307-14q-74,0-132.5,30.5t-92,87T49,239v16q0,79 33.5,136t92,87T307,508t132-30t91.5-87T564,255V239q0-79-33.5-135.5T439,16.5T307-14Zm0,102q63,0 103,40.5T450,242v10q0,73-40,113.5T307,406T204,365.5T164,252V242q0-73 40-113.5T307,88ZM119,553L238,698H375L494,553H376l-61,76H298l-61-76H119Z" />
      <glyph unicode="&#xf5;" glyph-name="gid155" horiz-adv-x="613" d="M307-14q-74,0-132.5,30.5t-92,87T49,239v16q0,79 33.5,136t92,87T307,508t132-30t91.5-87T564,255V239q0-79-33.5-135.5T439,16.5T307-14Zm0,102q63,0 103,40.5T450,242v10q0,73-40,113.5T307,406T204,365.5T164,252V242q0-73 40-113.5T307,88ZM195,543l-65,40l33,57q14,25 34.5,36.5T243,688q21,0 37.5-8.5T313,655q10-9 20.5-17.5T356,629q15,0 23.5,9T395,658l18,29l64-41l-32-56q-14-24-34-36t-46-12q-22,0-38,8.5T294,574q-9,10-19,18t-24,8t-22.5-9T213,572l-18-29Z" />
      <glyph unicode="&#xf6;" glyph-name="gid156" horiz-adv-x="613" d="M307-14q-74,0-132.5,30.5t-92,87T49,239v16q0,79 33.5,136t92,87T307,508t132-30t91.5-87T564,255V239q0-79-33.5-135.5T439,16.5T307-14Zm0,102q63,0 103,40.5T450,242v10q0,73-40,113.5T307,406T204,365.5T164,252V242q0-73 40-113.5T307,88ZM408,553q-32,0-54,20.5T332,628q0,35 22,55t54,20q33,0 54-20t21-55q0-34-21-54.5T408,553Zm-202,0q-32,0-54,20.5T130,628q0,35 22,55t54,20q33,0 54.5-20T282,628q0-34-21.5-54.5T206,553Z" />
      <glyph unicode="&#xf7;" glyph-name="gid188" horiz-adv-x="620" d="M101,298V402H519V298H101ZM310,85q-34,0-57.5,23.5T229,165q0,34 23.5,57.5T310,246t57.5-23.5T391,165q0-33-23.5-56.5T310,85Zm0,369q-34,0-57.5,23.5T229,535q0,33 23.5,56.5T310,615t57.5-23.5T391,535q0-34-23.5-57.5T310,454Z" />
      <glyph unicode="&#xf8;" glyph-name="gid157" horiz-adv-x="613" d="M307-14q-74,0-132.5,30.5t-92,87T49,239v16q0,79 33.5,136t92,87T307,508t132-30t91.5-87T564,255V239q0-79-33.5-135.5T439,16.5T307-14Zm0,102q63,0 103,40.5T450,242v10q0,73-40,113.5T307,406T204,365.5T164,252V242q0-73 40-113.5T307,88ZM151-69L86-27L462,558l65-42L151-69Z" />
      <glyph unicode="&#xf9;" glyph-name="gid160" horiz-adv-x="615" d="M262-8Q205-8 161,17.5t-68,72T69,198V494H183V207q0-60 29.5-89T296,89q61,0 96.5,40T428,244V494H542V0H430V69H413q-13-27-47.5-52T262-8Zm12,563L170,700H301l75-145H274Z" />
      <glyph unicode="&#xfa;" glyph-name="gid161" horiz-adv-x="615" d="M262-8Q205-8 161,17.5t-68,72T69,198V494H183V207q0-60 29.5-89T296,89q61,0 96.5,40T428,244V494H542V0H430V69H413q-13-27-47.5-52T262-8ZM235,553l75,145H441L337,553H235Z" />
      <glyph unicode="&#xfb;" glyph-name="gid162" horiz-adv-x="615" d="M262-8Q205-8 161,17.5t-68,72T69,198V494H183V207q0-60 29.5-89T296,89q61,0 96.5,40T428,244V494H542V0H430V69H413q-13-27-47.5-52T262-8ZM118,553L237,698H374L493,553H375l-61,76H297l-61-76H118Z" />
      <glyph unicode="&#xfc;" glyph-name="gid163" horiz-adv-x="615" d="M262-8Q205-8 161,17.5t-68,72T69,198V494H183V207q0-60 29.5-89T296,89q61,0 96.5,40T428,244V494H542V0H430V69H413q-13-27-47.5-52T262-8ZM406,553q-32,0-54,20.5T330,628q0,35 22,55t54,20q33,0 54-20t21-55q0-34-21-54.5T406,553Zm-202,0q-32,0-54,20.5T128,628q0,35 22,55t54,20q33,0 54.5-20T280,628q0-34-21.5-54.5T204,553Z" />
      <glyph unicode="&#xfd;" glyph-name="gid164" horiz-adv-x="615" d="M128-200v100H401q28,0 28,30V68H412q-8-18-26-35.5t-48-29T262-8Q205-8 161,17.5t-68,72T69,198V494H183V207q0-60 29.5-89T296,89q61,0 96.5,40T428,244V494H542V-94q0-49-28-77.5T438-200H128ZM235,553l75,145H441L337,553H235Z" />
      <glyph unicode="&#xfe;" glyph-name="gid166" horiz-adv-x="639" d="M73-200V700H187V432h17q12,20 31,37t51,28t78,11q61,0 112.5-29.5T559,392t31-137V239q0-80-31-137T476.5,15.5T364-14q-46,0-78,11T235,25.5T204,62H187V-200H73ZM331,86q63,0 103.5,40.5T475,242v10q0,76-40.5,116T331,408q-62,0-103.5-40T186,252V242q0-75 41.5-115.5T331,86Z" />
      <glyph unicode="&#xff;" glyph-name="gid165" horiz-adv-x="615" d="M128-200v100H401q28,0 28,30V68H412q-8-18-26-35.5t-48-29T262-8Q205-8 161,17.5t-68,72T69,198V494H183V207q0-60 29.5-89T296,89q61,0 96.5,40T428,244V494H542V-94q0-49-28-77.5T438-200H128ZM406,553q-32,0-54,20.5T330,628q0,35 22,55t54,20q33,0 54-20t21-55q0-34-21-54.5T406,553Zm-202,0q-32,0-54,20.5T128,628q0,35 22,55t54,20q33,0 54.5-20T280,628q0-34-21.5-54.5T204,553Z" />
      <glyph unicode="&#x2013;" glyph-name="gid95" horiz-adv-x="590" d="M71,204V307H519V204H71Z" />
      <glyph unicode="&#x2014;" glyph-name="gid96" horiz-adv-x="894" d="M71,204V307H823V204H71Z" />
      <glyph unicode="&#x2018;" glyph-name="gid77" horiz-adv-x="284" d="M206,714V650H169q-43,0-43-43V575h16q37,0 62-22.5T229,495q0-37-25-60.5T142,411q-38,0-62,24T56,498V608q0,106 105,106h45Z" />
      <glyph unicode="&#x2019;" glyph-name="gid78" horiz-adv-x="284" d="M78,411v64h37q43,0 43,43v32H142q-37,0-62,22.5T55,630q0,37 25,60.5T142,714q38,0 62-24t24-63V517q0-106-105-106H78Z" />
      <glyph unicode="&#x201a;" glyph-name="gid81" horiz-adv-x="284" d="M78-142v64h37q43,0 43,43V-3H142Q105-3 80,19.5T55,77q0,37 25,60.5T142,161q38,0 62-24t24-63V-36q0-106-105-106H78Z" />
      <glyph unicode="&#x201c;" glyph-name="gid79" horiz-adv-x="492" d="M414,714V650H377q-43,0-43-43V575h16q37,0 62-22.5T437,495q0-37-25-60.5T350,411q-38,0-62,24t-24,63V608q0,106 105,106h45Zm-208,0V650H169q-43,0-43-43V575h16q37,0 62-22.5T229,495q0-37-25-60.5T142,411q-38,0-62,24T56,498V608q0,106 105,106h45Z" />
      <glyph unicode="&#x201d;" glyph-name="gid80" horiz-adv-x="492" d="M78,411v64h37q43,0 43,43v32H142q-37,0-62,22.5T55,630q0,37 25,60.5T142,714q38,0 62-24t24-63V517q0-106-105-106H78Zm208,0v64h37q43,0 43,43v32H350q-37,0-62,22.5T263,630q0,37 25,60.5T350,714q38,0 62-24t24-63V517q0-106-105-106H286Z" />
      <glyph unicode="&#x201e;" glyph-name="gid82" horiz-adv-x="492" d="M78-142v64h37q43,0 43,43V-3H142Q105-3 80,19.5T55,77q0,37 25,60.5T142,161q38,0 62-24t24-63V-36q0-106-105-106H78Zm208,0v64h37q43,0 43,43V-3H350q-37,0-62,22.5T263,77q0,37 25,60.5T350,161q38,0 62-24t24-63V-36q0-106-105-106H286Z" />
      <glyph unicode="&#x2022;" glyph-name="gid98" horiz-adv-x="390" d="M195,118q-38,0-69.5,18t-50,49.5T57,256t18,70t49.5,49T195,393q40,0 71-17.5T315,327t18-71q0-41-18.5-72t-50-48.5T195,118Z" />
      <glyph unicode="&#x2039;" glyph-name="gid92" horiz-adv-x="475" d="M401,10L52,182V314L401,486h6V363L166,256V240L407,132V10h-6Z" />
      <glyph unicode="&#x203a;" glyph-name="gid93" horiz-adv-x="475" d="M68,10V132L309,240v16L68,363V486h6L423,314V182L74,10H68Z" />
    </font>
</defs>
</svg>
