<?xml version="1.0" standalone="no"?>
<!DOCTYPE svg PUBLIC "-//W3C//DTD SVG 1.1//EN" "http://www.w3.org/Graphics/SVG/1.1/DTD/svg11.dtd">
<svg xmlns="http://www.w3.org/2000/svg">
  <defs>
    <font id="SpaceGrotesk" horiz-adv-x="534">
      <font-face font-family="Space Grotesk Light" units-per-em="1000" panose-1="0 0 0 0 0 0 0 0 0 0" ascent="984" descent="-292" alphabetic="0" />
      <glyph unicode=" " glyph-name="gid2" horiz-adv-x="257" />
      <glyph unicode="!" glyph-name="gid88" horiz-adv-x="253" d="M86,187V700h81V187H86ZM126-14Q97-14 77.5,5T58,54t19.5,49T126,122q30,0 49-19t19-49T175,5T126-14Z" />
      <glyph unicode="&quot;" glyph-name="gid76" horiz-adv-x="425" d="M75,468v50h29q36,0 36,36v32H126q-29,0-48.5,18T58,649q0,29 19.5,47T126,714t48-19t19-48V554q0-86-86-86H75Zm173,0v50h29q36,0 36,36v32H299q-29,0-48.5,18T231,649q0,29 19.5,47T299,714t48-19t19-48V554q0-86-86-86H248Z" />
      <glyph unicode="#" glyph-name="gid174" horiz-adv-x="628" d="M169,0V204H43v69H169V427H43v69H169V700h73V496H385V700h73V496H585V427H458V273H585V204H458V0H385V204H242V0H169Zm73,273H385V427H242V273Z" />
      <glyph unicode="$" glyph-name="gid176" horiz-adv-x="613" d="M313-14q-76,0-136,27T82.5,94.5T48,231v21h83V231q0-87 51-129.5T313,59q82,0 125,37t43,93q0,39-19,62t-54,37.5T326,314l-53,13q-61,16-108,39T91.5,426.5T65,523T95,625t83,66t124,23t127-24.5t89-72T551,498V456H468v42q0,51-21.5,82t-59,46T302,641q-69,0-111-30.5T149,524q0-37 17.5-60T217,426.5T296,401l53-13q60-13 109-35.5t77.5-61T564,191T533,83T445.5,11.5T313-14ZM275-116V816h77V-116H275Z" />
      <glyph unicode="%" glyph-name="gid181" horiz-adv-x="772" d="M135-14L81,29L638,714l53-43L135-14Zm444,1q-73,0-116.5,42.5T419,145v6q0,73 43.5,115.5T579,309q71,0 115-42.5T738,151v-6q0-73-43.5-115.5T579-13Zm0,58q42,0 66.5,27T670,142v12q0,44-24.5,70.5T579,251q-43,0-67.5-26.5T487,154V142q0-43 24.5-70T579,45ZM194,391q-73,0-116,43T35,549v6q0,73 43,115.5T194,713q72,0 115.5-42.5T353,555v-6q0-72-43.5-115T194,391Zm0,58q42,0 67,27t25,70v12q0,44-25,70.5T194,655q-43,0-67.5-26.5T102,558V546q0-43 24.5-70T194,449Z" />
      <glyph unicode="&amp;" glyph-name="gid101" horiz-adv-x="604" d="M250,0Q192,0 145,22T71,85T44,185q0,44 17,77t44.5,54.5T164,349v11q-46,14-80,51.5T50,514q0,60 28,102t74,63t102,21H380V632H264q-56,0-94.5-30.5T131,509q0-42 18.5-69T198,400.5T264,388H402V495h79V388h98V319H481V0H250Zm10,68H402V319H260q-57,0-96.5-30.5T124,194t40.5-95T260,68Z" />
      <glyph unicode="&apos;" glyph-name="gid75" horiz-adv-x="251" d="M75,468v50h29q36,0 36,36v32H126q-29,0-48.5,18T58,649q0,29 19.5,47T126,714t48-19t19-48V554q0-86-86-86H75Z" />
      <glyph unicode="(" glyph-name="gid69" horiz-adv-x="379" d="M369-235q-96,0-165.5,34T97-94.5T60,93V417q0,116 37,188T203.5,711T369,745V676q-119-1-176-65.5T136,412V98q0-133 57-198t176-66v-69Z" />
      <glyph unicode=")" glyph-name="gid70" horiz-adv-x="377" d="M7-235v69q121,1 177,66T240,98V412q0,134-56,198.5T7,676v69q97,0 166-34T279.5,605T317,417V93q0-115-37.5-187.5T173-201T7-235Z" />
      <glyph unicode="*" glyph-name="gid102" horiz-adv-x="520" d="M47,460v54h85l69-9l5,11l-56,42L90,619l38,37l60-60l43-55l11,5l-9,69v85h54V615l-9-69l11-5l43,55l60,60l38-37l-60-61l-56-42l5-11l69,9h85V460H388l-69,8l-5-10l56-43l60-60l-38-38l-60,60l-43,56l-11-5l9-69V274H233v85l9,69l-11,5l-43-56l-60-60L90,355l60,60l56,43l-5,10l-69-8H47Z" />
      <glyph unicode="+" glyph-name="gid185" horiz-adv-x="620" d="M272,140V314H100v72H272V560h76V386H520V314H348V140H272Z" />
      <glyph unicode="," glyph-name="gid84" horiz-adv-x="251" d="M75-125v50h29q36,0 36,36V-7H126Q97-7 77.5,11T58,56q0,29 19.5,47T126,121t48-19t19-48V-39q0-86-86-86H75Z" />
      <glyph unicode="-" glyph-name="gid94" horiz-adv-x="455" d="M79,221v73H375V221H79Z" />
      <glyph unicode="." glyph-name="gid83" horiz-adv-x="253" d="M126-14Q97-14 77.5,5T58,54t19.5,49T126,122q30,0 49-19t19-49T175,5T126-14Z" />
      <glyph unicode="/" glyph-name="gid71" horiz-adv-x="370" d="M0-200L294,700h79L79-200H0Z" />
      <glyph unicode="0" glyph-name="gid55" horiz-adv-x="641" d="M320-14Q201-14 130.5,56.5T60,268V432q0,140 70.5,211T320,714q120,0 190.5-71T581,432V268q0-141-70.5-211.5T320-14Zm0,73q90,0 135,54t45,151V437q0,97-46,150.5T320,641T186.5,587T141,437V264q0-98 45-151.5T320,59Z" />
      <glyph unicode="1" glyph-name="gid56" horiz-adv-x="418" d="M257,0V646H242L106,397H18L185,700H338V0H257Z" />
      <glyph unicode="2" glyph-name="gid57" horiz-adv-x="603" d="M53,0V73q0,75 26.5,120t74,72.5T267,313l55,17q45,14 79,34.5t53,52T473,494v4q0,66-46,104.5T309,641q-76,0-124-40.5T137,478V464H57v13q0,76 33,129t90,80.5T309,714t127.5-27T523,612t31-112v-9q0-68-27-112.5T452.5,306T341,258l-54-17q-51-16-84.5-33.5T152,163T135,90V73H548V0H53Z" />
      <glyph unicode="3" glyph-name="gid58" horiz-adv-x="604" d="M303-14q-74,0-132.5,28t-92,81T45,223v19h81V224q0-77 49-121T303,59q80,0 124.5,41.5T472,205v8q0,46-22,74.5t-59.5,42T308,343H194V444L461,615v12H62v73H547V587L286,419V407h50q59,0 108.5-21.5t79-64T553,215V204q0-66-31-115T435,13T303-14Z" />
      <glyph unicode="4" glyph-name="gid59" horiz-adv-x="625" d="M397,0V143H32v96L326,700H478V216H598V143H478V0H397ZM113,216H397V651H383L113,228V216Z" />
      <glyph unicode="5" glyph-name="gid60" horiz-adv-x="599" d="M302-14q-77,0-133,29.5t-87,82T51,219v12h81v-9q0-79 46-121T300,59q80,0 125,45t45,123v9q0,75-43.5,119.5T314,400q-40,0-66-12.5t-41-31T182,321H72V700H532V627H153V385h14q11,20 30.5,39T250,456t82,13q61,0 110.5-28t79-80T551,237V226q0-71-30-125T435,16.5T302-14Z" />
      <glyph unicode="6" glyph-name="gid61" horiz-adv-x="612" d="M310-14q-72,0-128.5,28.5T92.5,96T60,222V466q0,79 31,134t87.5,84.5T313,714q77,0 131.5-27.5t83-75T556,502H474q0,62-40,100.5T313,641q-82,0-127-44.5T141,474V377h14q18,30 60,55.5T332,458q63,0 115-28t83-79t31-121V218q0-71-32.5-123T439,14.5T310-14Zm0,73q76,0 123,43t47,117v8q0,50-21.5,86T399,369.5T310,390q-50,0-88-20.5T162.5,313T141,227v-8q0-74 47-117T310,59Z" />
      <glyph unicode="7" glyph-name="gid62" horiz-adv-x="564" d="M152,0V25q0,35 6,59t23,57L448,616v11H32v73H533V604L254,104q-12-21-16.5-38T233,23V0H152Z" />
      <glyph unicode="8" glyph-name="gid63" horiz-adv-x="623" d="M311-14q-81,0-140.5,24.5t-92,69T46,184v11q0,52 22,86t53.5,52.5T180,357v13q-27,8-55.5,26t-47,49T59,521v11q0,57 32.5,97.5T181,692t130,22q74,0 130.5-22t89-62.5T563,532V521q0-45-18-76t-46-49t-56-26V357q28-5 59-23.5T554.5,281T576,195V184q0-60-32-104.5t-91.5-69T311-14Zm0,73q85,0 134.5,33T495,188v8q0,63-49,96T311,325q-85,0-134-33t-49-96v-8q0-63 49.5-96T311,59Zm0,339q80,0 125.5,30.5T482,515v8q0,57-46,87.5T311,641T186,610.5T140,523v-8q0-56 46-86.5T311,398Z" />
      <glyph unicode="9" glyph-name="gid64" horiz-adv-x="612" d="M299-14q-77,0-131.5,27.5T85,89T57,198h81q0-62 41-100.5T299,59q83,0 127.5,44.5T471,226v97H458q-19-30-60.5-55.5T281,242q-63,0-115.5,28T82,349T51,470v12q0,72 33,123.5t89.5,80T302,714q73,0 129.5-28.5t88.5-81T552,478V234q0-78-30.5-133.5T434,15.5T299-14Zm3,324q50,0 88,20.5t59.5,57T471,473v8q0,75-46.5,117.5T302,641T179,598.5T132,481v-8q0-49 21.5-85.5t60-57T302,310Z" />
      <glyph unicode=":" glyph-name="gid85" horiz-adv-x="253" d="M126-14Q97-14 77.5,5T58,54t19.5,49T126,122q30,0 49-19t19-49T175,5T126-14Zm0,381q-29,0-48.5,19T58,435t19.5,49T126,503q30,0 49-19t19-49t-19-49t-49-19Z" />
      <glyph unicode=";" glyph-name="gid86" horiz-adv-x="253" d="M126,367q-29,0-48.5,19T58,435t19.5,49T126,503q30,0 49-19t19-49t-19-49t-49-19ZM76-125v50h29q36,0 36,36V-7H127Q98-7 78.5,11T59,56q0,29 19.5,47T127,121t48-19t19-48V-39q0-86-86-86H76Z" />
      <glyph unicode="&lt;" glyph-name="gid190" horiz-adv-x="620" d="M520,130L100,299V401L520,570V486L181,356V344L520,214V130Z" />
      <glyph unicode="=" glyph-name="gid189" horiz-adv-x="620" d="M100,389v72H520V389H100Zm0-150v72H520V239H100Z" />
      <glyph unicode="&gt;" glyph-name="gid191" horiz-adv-x="620" d="M100,130v84L440,344v12L100,486v84L520,401V299L100,130Z" />
      <glyph unicode="?" glyph-name="gid90" horiz-adv-x="580" d="M237,187v61q0,46 17,72.5T314,366l28,12q52,22 81,52.5T452,516q0,41-21,69t-57,43t-81,15t-83.5-15.5t-62-47T124,501V466H43v35q0,69 32.5,116.5t89,72T293,714q71,0 125.5-25.5t85-70T534,516q0-57-21.5-94.5t-55.5-62T382,317l-27-12q-19-8-27-21t-8-37V187H237ZM280-14q-30,0-49,19T212,54t19,49t49,19q29,0 48.5-19T348,54T328.5,5T280-14Z" />
      <glyph unicode="@" glyph-name="gid100" horiz-adv-x="1026" d="M532-200q-134,0-236.5,52T135,2.5T77,242v21q0,140 55,238.5T285.5,652T514,704h21q124,0 218-50.5T900,510t53-223V253q0-127-46.5-190T775,0H742q-41,0-62,18.5T659,68V78H645q-8-21-25.5-41.5T572.5,2T497-12q-59,0-106,32t-73.5,88T291,233v18q0,71 26,126t72,87t105,32q45,0 74-12.5T614,452t27-38h14v70h77V96q0-15 5.5-21T757,69h12q56,0 80.5,43.5T874,257v28q0,111-41,188.5T716,592T534,633H517q-109,0-190-42T201,466T156,260V244q0-122 47.5-205.5T337-87t199-42H732v-71H532ZM512,59q63,0 103,47t40,131v10q0,84-40,131.5T512,426T409,378T369,248V236q0-81 40-129T512,59Z" />
      <glyph unicode="A" glyph-name="gid3" horiz-adv-x="630" d="M25,0L241,700H389L605,0H518L464,177H166L112,0H25ZM187,253H442L322,649H308L187,253Z" />
      <glyph unicode="B" glyph-name="gid4" horiz-adv-x="661" d="M47,0V75h98V625H47v75H398q61,0 108.5-22t74-61.5T607,524v-8q0-49-19-80.5t-45-49T492,361V347q25-6 52-23.5T589.5,274T608,193V183q0-57-27.5-98.5t-75-63T397,0H47ZM229,76H388q66,0 101,31t35,84v9q0,53-35,84T388,315H229V76Zm0,315H391q60,0 96,30.5T523,502v10q0,51-35.5,81.5T391,624H229V391Z" />
      <glyph unicode="C" glyph-name="gid5" horiz-adv-x="642" d="M333-14Q208-14 134,58.5T60,270V430q0,139 74,211.5T333,714q124,0 190.5-69T590,456v-5H507v8q0,79-42.5,129.5T333,639T194,584.5T144,432V268q0-98 50-152.5T333,61t131.5,50.5T507,241v16h83V244q0-120-66.5-189T333-14Z" />
      <glyph unicode="D" glyph-name="gid6" horiz-adv-x="663" d="M47,0V75h98V625H47v75H320q138,0 213.5-70T609,415V285q0-146-75.5-215.5T320,0H47ZM229,76h91q102,0 154,50t52,155V418q0,107-52,156T320,623H229V76Z" />
      <glyph unicode="E" glyph-name="gid7" horiz-adv-x="563" d="M80,0V700H511V624H164V390H483V314H164V76H516V0H80Z" />
      <glyph unicode="F" glyph-name="gid8" horiz-adv-x="540" d="M80,0V700H503V624H164V389H476V313H164V0H80Z" />
      <glyph unicode="G" glyph-name="gid9" horiz-adv-x="660" d="M324-14q-78,0-137.5,32.5T93.5,114T60,270V430q0,139 74,211.5T333,714q124,0 189-68t65-182v-5H504v7q0,50-18,89t-56,61.5T333,639q-89,0-139-54.5T144,432V268q0-98 50-152.5T334,61q88,0 129.5,50T505,244v17H293v72H587V0H511V76H497q-11-22-31-43T412-1T324-14Z" />
      <glyph unicode="H" glyph-name="gid10" horiz-adv-x="656" d="M80,0V700h84V389H492V700h84V0H492V313H164V0H80Z" />
      <glyph unicode="I" glyph-name="gid11" horiz-adv-x="244" d="M80,0V700h84V0H80Z" />
      <glyph unicode="J" glyph-name="gid12" horiz-adv-x="594" d="M263-14Q160-14 100.5,44T41,210v54h83V210q0-65 34.5-106T262,63q70,0 99,40.5T390,210V624H267v76H550V624H474V210q0-109-54-166.5T263-14Z" />
      <glyph unicode="K" glyph-name="gid13" horiz-adv-x="610" d="M80,0V700h84V395h14L474,700H586L245,354L598,0H483L178,311H164V0H80Z" />
      <glyph unicode="L" glyph-name="gid14" horiz-adv-x="546" d="M80,0V700h84V76H518V0H80Z" />
      <glyph unicode="M" glyph-name="gid15" horiz-adv-x="865" d="M80,0V700H240L426,53h13L625,700H785V0H704V645H690L505,0H360L175,645H161V0H80Z" />
      <glyph unicode="N" glyph-name="gid16" horiz-adv-x="664" d="M80,0V700H243L487,53h13V700h83V0H420L177,648H163V0H80Z" />
      <glyph unicode="O" glyph-name="gid17" horiz-adv-x="669" d="M334-14Q209-14 134.5,58.5T60,270V430q0,139 74.5,211.5T334,714q126,0 200.5-72.5T609,430V270q0-139-74.5-211.5T334-14Zm0,75q91,0 141,54.5T525,267V433q0,97-50,151.5T334,639q-90,0-140-54.5T144,433V267q0-97 50-151.5T334,61Z" />
      <glyph unicode="P" glyph-name="gid18" horiz-adv-x="601" d="M80,0V700H348q63,0 112.5-24.5T539,606t29-109V484q0-63-29.5-108.5T459,306T348,282H164V0H80Zm84,358H339q67,0 106,33.5T484,486v10q0,61-38.5,94.5T339,624H164V358Z" />
      <glyph unicode="Q" glyph-name="gid19" horiz-adv-x="669" d="M334-14Q209-14 134.5,58.5T60,270V430q0,139 74.5,211.5T334,714q126,0 200.5-72.5T609,430V270q0-139-74.5-211.5T334-14Zm0,75q91,0 141,54.5T525,267V433q0,97-50,151.5T334,639q-90,0-140-54.5T144,433V267q0-97 50-151.5T334,61Zm41-223q-37,0-59.5,22.5T293-78V0h82V-63q0-30 28-30h66v-69H375Z" />
      <glyph unicode="R" glyph-name="gid20" horiz-adv-x="631" d="M80,0V700H363q65,0 114.5-22.5t77.5-64T583,514V503q0-69-33-109t-78-54V326q36-1 59.5-23.5T555,235V0H472V225q0,30-16.5,46T406,287H164V0H80Zm84,363H355q69,0 106.5,33.5T499,490v7q0,60-37,93.5T355,624H164V363Z" />
      <glyph unicode="S" glyph-name="gid21" horiz-adv-x="613" d="M313-14q-76,0-136,27T82.5,94.5T48,231v21h83V231q0-87 51-129.5T313,59q82,0 125,37t43,93q0,39-19.5,62T407,288.5T325,314l-52,13q-61,16-108,39T91.5,426.5T65,523T94.5,625t83,66T301,714q71,0 127.5-24.5t89-72T550,498V456H467v42q0,51-21.5,82t-59,46T301,641q-69,0-111-30.5T148,524q0-37 18-60t51-37.5T296,401l52-13q61-13 109.5-35.5t77.5-61T564,191T533,83T445.5,11.5T313-14Z" />
      <glyph unicode="T" glyph-name="gid22" horiz-adv-x="588" d="M252,0V624H27v76H561V624H336V0H252Z" />
      <glyph unicode="U" glyph-name="gid23" horiz-adv-x="666" d="M333-14q-78,0-136,28T107,97.5T75,234V700h83V233q0-86 46-129T333,61t129,43t46,129V700h84V234q0-81-32-136.5T469.5,14T333-14Z" />
      <glyph unicode="V" glyph-name="gid24" horiz-adv-x="619" d="M236,0L25,700h87L303,51h13L507,700h87L383,0H236Z" />
      <glyph unicode="W" glyph-name="gid25" horiz-adv-x="875" d="M151,0L37,700h84L220,54h14L363,700H513L641,54h14l99,646h84L724,0H574L445,650H431L302,0H151Z" />
      <glyph unicode="X" glyph-name="gid26" horiz-adv-x="638" d="M32,0L258,353L35,700h99L312,411h13L504,700h98L380,353L606,0H508L325,295H312L130,0H32Z" />
      <glyph unicode="Y" glyph-name="gid27" horiz-adv-x="610" d="M263,0V267L14,700h96L298,364h14L500,700h96L347,267V0H263Z" />
      <glyph unicode="Z" glyph-name="gid28" horiz-adv-x="577" d="M50,0V111L440,613v12H62v75H523V589L133,87V75H531V0H50Z" />
      <glyph unicode="[" glyph-name="gid65" horiz-adv-x="335" d="M161-235q-35,0-56.5,22.5T83-156V666q0,34 21.5,56.5T161,745H316V676H186q-27,0-27-30V-136q0-30 27-30H316v-69H161Z" />
      <glyph unicode="\" glyph-name="gid74" horiz-adv-x="370" d="M291-200L-3,700H77L371-200H291Z" />
      <glyph unicode="]" glyph-name="gid66" horiz-adv-x="335" d="M19-235v69H149q27,0 27,30V646q0,30-27,30H19v69H175q34,0 55.5-22.5T252,666V-156q0-34-21.5-56.5T175-235H19Z" />
      <glyph unicode="^" glyph-name="gid193" horiz-adv-x="620" d="M74,424L248,700H372L546,424H452L316,646H304L169,424H74Z" />
      <glyph unicode="_" glyph-name="gid99" horiz-adv-x="620" d="M77-122v73H543v-73H77Z" />
      <glyph unicode="`" glyph-name="gid197" horiz-adv-x="280" d="M150,563L54,700h96l76-137H150Z" />
      <glyph unicode="a" glyph-name="gid29" horiz-adv-x="575" d="M233-14q-51,0-93,18T74,56T50,139q0,50 24,82.5t66,49T234,287H399v36q0,52-30.5,82T278,435q-59,0-92-28.5T141,330L67,354q12,41 38,74.5t69.5,54T279,503q94,0 146-48.5T477,318V97q0-30 28-30h45V0H481q-33,0-53,18.5T408,68v5H396q-11-19-29.5-39.5T316-0.5T233-14Zm9,68q70,0 113.5,41.5T399,212v11H237q-47,0-77.5-20.5T129,141t31.5-64T242,54Z" />
      <glyph unicode="b" glyph-name="gid30" horiz-adv-x="644" d="M354-14q-76,0-118.5,29T174,81H160V0H83V700h79V412h14q12,23 34,43.5t57.5,34T354,503q64,0 116.5-30.5t83.5-87T585,251V238q0-78-31.5-135t-84-87T354-14ZM333,56q76,0 123.5,48.5T504,240v9q0,87-47.5,135.5T333,433q-75,0-123.5-48.5T161,249v-9q0-87 48.5-135.5T333,56Z" />
      <glyph unicode="c" glyph-name="gid31" horiz-adv-x="598" d="M308-14q-71,0-127.5,30.5T91.5,104T59,239v11q0,79 32.5,135.5t89,87T308,503q70,0 119.5-26t78-69T542,316l-77-16q-5,36-23.5,66T390,414t-81,18q-49,0-87.5-22t-61-63T138,249v-9q0-57 22.5-98t61-63T309,57q73,0 111.5,38T468,189l78-17q-11-48-40-91T427.5,12T308-14Z" />
      <glyph unicode="d" glyph-name="gid32" horiz-adv-x="644" d="M290-14q-63,0-116,30T90,103T59,238v13q0,78 31,134.5t83.5,87T290,503q51,0 86.5-13.5t57.5-34T468,412h14V700h79V0H484V81H470q-20-37-62-66T290-14Zm21,70q76,0 123.5,48.5T482,240v9q0,87-47.5,135.5T311,433q-75,0-123.5-48.5T139,249v-9q0-87 48.5-135.5T311,56Z" />
      <glyph unicode="e" glyph-name="gid33" horiz-adv-x="592" d="M307-14q-74,0-130,31.5T90,106T59,238v12q0,76 31,133t86,88.5T302,503q69,0 122-29.5T507,389t30-129V224H138q3-79 51-123.5T309,56q63,0 97,29t52,69l68-33q-15-31-41.5-62t-69-52T307-14ZM139,289H457q-4,68-46.5,106T302,433q-67,0-110-38T139,289Z" />
      <glyph unicode="f" glyph-name="gid34" horiz-adv-x="442" d="M179,0V420H29v69H179V614q0,40 22.5,63T266,700H389V632H288q-30,0-30-30V489H412V420H258V0H179Z" />
      <glyph unicode="g" glyph-name="gid35" horiz-adv-x="642" d="M59,242v14q0,77 31,132t84,85t116,30q77,0 118.5-29.5T470,408h14v81h75V-114q0-40-22-63t-64-23H141v70H452q30,0 30,30V86H468q-12-22-34-43T377,8.5T290-5Q227-5 174,25T90,110.5T59,242ZM311,65q76,0 123.5,48T482,245v8q0,85-47.5,132.5T311,433q-75,0-123.5-47.5T139,253v-8q0-84 48.5-132T311,65Z" />
      <glyph unicode="h" glyph-name="gid36" horiz-adv-x="613" d="M83,0V700h79V411h14q10,22 30.5,41.5t53,32.5T342,498q55,0 98.5-23.5t69.5-68T536,296V0H457V290q0,73-36.5,106T322,429q-71,0-115.5-46T162,246V0H83Z" />
      <glyph unicode="i" glyph-name="gid37" horiz-adv-x="245" d="M83,0V489h79V0H83Zm40,565q-26,0-43.5,17T62,625q0,27 17.5,44T123,686t43-17t17-44q0-26-17-43t-43-17Z" />
      <glyph unicode="j" glyph-name="gid38" horiz-adv-x="247" d="M-13-200v70H55q30,0 30,30V489h79V-114q0-40-22.5-63T77-200H-13ZM125,565q-26,0-43.5,17T64,625q0,27 17.5,44T125,686t43-17t17-44q0-26-17-43t-43-17Z" />
      <glyph unicode="k" glyph-name="gid39" horiz-adv-x="538" d="M83,0V700h79V288h14L400,489H510L239,251L518,0H409L176,213H162V0H83Z" />
      <glyph unicode="l" glyph-name="gid40" horiz-adv-x="245" d="M83,0V700h79V0H83Z" />
      <glyph unicode="m" glyph-name="gid41" horiz-adv-x="860" d="M83,0V489h77V428h14q14,26 46,48t90,22q57,0 92.5-25T454,412h14q17,36 51.5,61T616,498q49,0 86-20t58.5-57.5T782,331V0H703V324q0,49-28.5,77.5T595,430q-54,0-88.5-35T472,294V0H393V324q0,49-28.5,77.5T285,430q-54,0-88.5-35T162,294V0H83Z" />
      <glyph unicode="n" glyph-name="gid42" horiz-adv-x="613" d="M83,0V489h77V406h14q16,35 54.5,63.5T342,498q55,0 98.5-23T510,407t26-111V0H457V290q0,73-36.5,106T322,429q-71,0-115.5-46T162,246V0H83Z" />
      <glyph unicode="o" glyph-name="gid43" horiz-adv-x="618" d="M309-14q-74,0-130.5,31t-88,87.5T59,238v13q0,76 31.5,133t88,88T309,503t130.5-31t88-88T559,251V238q0-77-31.5-133.5T439.5,17T309-14Zm0,71q78,0 124.5,49.5T480,240v9q0,84-46.5,133.5T309,432q-77,0-124-49.5T138,249v-9q0-84 47-133.5T309,57Z" />
      <glyph unicode="p" glyph-name="gid44" horiz-adv-x="644" d="M83-200V489h77V408h14q19,37 61.5,66T354,503q63,0 115.5-30.5t84-86.5T585,251V238q0-78-31-135T470.5,16T354-14q-51,0-86.5,13.5T210,34T176,77H162V-200H83ZM333,56q76,0 123.5,48.5T504,240v9q0,87-47.5,135.5T333,433q-75,0-123.5-48.5T161,249v-9q0-87 48.5-135.5T333,56Z" />
      <glyph unicode="q" glyph-name="gid45" horiz-adv-x="644" d="M482-200V77H468q-12-22-34-43T376.5-0.5T290-14q-64,0-116.5,30T90,103T59,238v13q0,79 31,135t84,86.5T290,503q76,0 118-29t62-66h14v81h77V-200H482ZM311,56q76,0 123.5,48.5T482,240v9q0,87-47.5,135.5T311,433q-75,0-123.5-48.5T139,249v-9q0-87 48.5-135.5T311,56Z" />
      <glyph unicode="r" glyph-name="gid46" horiz-adv-x="377" d="M83,0V489h77V429h14q13,32 40,47t71,15h58V419H280q-53,0-85.5-29.5T162,298V0H83Z" />
      <glyph unicode="s" glyph-name="gid47" horiz-adv-x="527" d="M280-14q-91,0-153.5,42T51,161l75,17q8-48 30-75.5t54.5-39T280,52q55,0 87,22t32,59q0,38-30.5,53.5T285,212l-41,7q-47,8-86,25T96,290T73,363q0,66 51,103t135,37q83,0 134.5-37.5T460,360l-74-19q-9,53-43,74.5T259,437t-79-18.5T151,364q0-35 27.5-51.5T252,288l41-7q52-9 93.5-24.5t66-44.5T477,136q0-72-53.5-111T280-14Z" />
      <glyph unicode="t" glyph-name="gid48" horiz-adv-x="460" d="M263,0q-42,0-64.5,23T176,86V420H29v69H176V663h79V489H415V420H255V98q0-30 29-30H393V0H263Z" />
      <glyph unicode="u" glyph-name="gid49" horiz-adv-x="612" d="M270-9q-53,0-97.5,23t-70,68.5T77,193V489h79V199q0-73 36.5-106T291,60q70,0 115,46t45,137V489h79V0H453V83H439q-16-35-55-63.5T270-9Z" />
      <glyph unicode="v" glyph-name="gid50" horiz-adv-x="539" d="M207,0L32,489h84L263,59h14L424,489h84L333,0H207Z" />
      <glyph unicode="w" glyph-name="gid51" horiz-adv-x="801" d="M151,0L53,489h80L214,53h14L335,489H466L573,53h14l81,436h80L650,0H515L407,436H394L286,0H151Z" />
      <glyph unicode="x" glyph-name="gid52" horiz-adv-x="593" d="M43,0L239,248L49,489h95L290,300h14L449,489h96L354,248L550,0H454L304,195H290L140,0H43Z" />
      <glyph unicode="y" glyph-name="gid53" horiz-adv-x="612" d="M142-200v70H422q29,0 29,30V78H437q-10-21-30.5-41.5T353,3.5T270-9q-53,0-97.5,23t-70,68T77,192V489h79V198q0-72 36.5-105T291,60q70,0 115,46t45,137V489h79V-114q0-40-22.5-63T442-200H142Z" />
      <glyph unicode="z" glyph-name="gid54" horiz-adv-x="521" d="M61,0V102L372,409v11H71v69H455V387L143,80V68H463V0H61Z" />
      <glyph unicode="{" glyph-name="gid67" horiz-adv-x="432" d="M257-235q-33,0-55.5,22.5T179-156V167q0,50-54,50H39v76h86q54,0 54,50V666q0,34 22.5,56.5T257,745H413V676H283q-27,0-27-30V342q0-36-19.5-58T182,262h-7V248h7q35,0 54.5-22T256,168V-136q0-30 27-30H413v-69H257Z" />
      <glyph unicode="|" glyph-name="gid72" horiz-adv-x="240" d="M80-246V806h79V-246H80Z" />
      <glyph unicode="}" glyph-name="gid68" horiz-adv-x="432" d="M19-235v69H149q27,0 27,30V168q0,36 19.5,58T250,248h7v14h-7q-35,0-54.5,22T176,342V646q0,30-27,30H19v69H175q33,0 55-22.5T252,666V343q0-50 54-50h87V217H306q-54,0-54-50V-156q0-34-22-56.5T175-235H19Z" />
      <glyph unicode="~" glyph-name="gid194" horiz-adv-x="620" d="M130,269L83,326l93,73q18,15 37,26t43,11q29,0 46-15t32-38q11-17 18.5-26t20.5-9q11,0 19,4.5T409,365l81,66l46-57l-93-73q-17-14-36-25.5T363,264q-29,0-45.5,15T286,317q-11,18-18,26.5T247,352q-11,0-18.5-4.5T211,335l-81-66Z" />
      <glyph unicode="&#xa0;" glyph-name="gid253" horiz-adv-x="257" />
      <glyph unicode="&#xa1;" glyph-name="gid89" horiz-adv-x="253" d="M86-200V302h81V-200H86Zm40,703q30,0 49-19t19-49t-19-49t-49-19q-29,0-48.5,19T58,435t19.5,49T126,503Z" />
      <glyph unicode="&#xa2;" glyph-name="gid179" horiz-adv-x="599" d="M309-14q-71,0-127.5,30.5T92.5,104T60,239v11q0,79 32.5,135.5t89,87T309,503q70,0 119.5-26t78-69T543,316l-77-16q-5,36-23,66t-51,48t-82,18t-87.5-22t-61-63T139,249v-9q0-57 22.5-98t61-63T310,57q73,0 111.5,38T470,189l77-17q-10-48-39.5-91t-79-69T309-14ZM274-116V612h74V-116H274Z" />
      <glyph unicode="&#xa3;" glyph-name="gid177" horiz-adv-x="628" d="M59,0V73h74V308H63v67h70V499q0,105 57.5,160T346,714q99,0 156-55t57-160V439H479v60q0,66-34.5,104T346,641q-63,0-97.5-38T214,499V375H339V308H214V73H564V0H59Z" />
      <glyph unicode="&#xa4;" glyph-name="gid175" horiz-adv-x="620" d="M103,91L51,143l59,59q-25,31-37.5,68.5T60,350t12.5,80T110,498L51,558l52,52l59-60q31,23 68.5,36.5T310,600t80-13.5T458,550l60,60l52-52l-60-60q23-30 36.5-68T560,350t-13.5-79.5T510,202l60-59L518,91l-60,59q-30-25-68-37.5T310,100t-79.5,12.5T162,150L103,91Zm207,80q50,0 90,23.5T463.5,258T487,350q0,53-23.5,93T400,506.5T310,530t-90-23.5t-63.5-64T133,350t23.5-92.5t64-63.5T310,171Z" />
      <glyph unicode="&#xa5;" glyph-name="gid178" horiz-adv-x="620" d="M268,0V285l-15,7L16,700h98L303,365h14L506,700h98L367,292l-15-7V0H268ZM106,151v67H514V151H106Zm0,125v67H514V276H106Z" />
      <glyph unicode="&#xa6;" glyph-name="gid73" horiz-adv-x="240" d="M80,366V806h79V366H80Zm0-612V194h79V-246H80Z" />
      <glyph unicode="&#xa7;" glyph-name="gid169" horiz-adv-x="498" d="M256-14q-99,0-156,53.5T43,184v20h74V188q0-62 35.5-98T257,54q54,0 83,26.5T369,148q0,43-29,63.5T244,243q-91,16-134.5,51.5T66,394q0,24 6.5,44T93,476q-27,35-27,84v5q0,47 24.5,80t65,51T245,714q86,0 140-42t54-120V520H365v26q0,33-16,55t-42.5,33.5T247,646q-45,0-75.5-20.5T141,564q0-47 36.5-67T274,464q84-17 127.5-50T445,320q0-50-24-84q11-18 17-37.5t6-42.5v-7q0-72-47.5-117.5T256-14ZM361,283q4,7 6.5,14.5T370,316q0,35-30,53.5T245,400q-27,5-51,13t-43,16q-10-14-10-35q0-36 31-54t99-30q32-6 52.5-12T361,283Z" />
      <glyph unicode="&#xa8;" glyph-name="gid201" horiz-adv-x="415" d="M301,564q-25,0-42,16.5T242,624t17,43t42,16q27,0 43.5-16T361,624t-16.5-43.5T301,564Zm-187,0q-26,0-43,16.5T54,624t17,43t43,16t43-16t17-43t-17-43.5T114,564Z" />
      <glyph unicode="&#xa9;" glyph-name="gid171" horiz-adv-x="704" d="M346-12q-86,0-150.5,33.5T95.5,123T60,295V405q0,104 35.5,172t100,101.5T346,712h13q87,0 151-33.5T609,577t35-172V295q0-104-35-172T510,21.5T359-12H346Zm2,65h10q102,0 159.5,58.5T575,295V405q0,125-57.5,183.5T358,647H348q-103,0-160.5-58.5T130,405V295q0-125 57.5-183.5T348,53Zm10,80q-68,0-107.5,40T211,291V407q0,80 40.5,121T356,569q69,0 105-40.5T497,424V405H428v25q0,32-16,54t-55,22q-33,0-55-21.5T280,422V276q0-39 23-59t54-20q34,0 52.5,19T428,275v21h69V277q0-64-35-104T358,133Z" />
      <glyph unicode="&#xaa;" glyph-name="gid167" horiz-adv-x="420" d="M172,340q-55,0-93.5,27.5T40,449t38.5,79T172,553H284v22q0,37-20,58t-62,21q-43,0-64.5-19.5T109,587L49,603q12,42 49.5,73T203,707q66,0 104.5-35T346,573V424q0-22 20-22h32V350H351q-26,0-41.5,12.5T294,399H282q-6-13-19-26.5t-35-23T172,340Zm8,54q49,0 76.5,24.5T284,494v9H176q-33,0-53.5-12.5T102,450q0-27 21-41.5T180,394Z" />
      <glyph unicode="&#xab;" glyph-name="gid241" horiz-adv-x="683" d="M608,20L319,201v92L608,474h6V389L392,253V241L614,106V20h-6ZM340,20L52,201v92L340,474h6V389L125,253V241L346,106V20h-6Z" />
      <glyph unicode="&#xac;" glyph-name="gid195" horiz-adv-x="620" d="M448,215v99H101v72H519V215H448Z" />
      <glyph unicode="&#xad;" glyph-name="gid273" horiz-adv-x="455" d="M79,221v73H375V221H79Z" />
      <glyph unicode="&#xae;" glyph-name="gid172" horiz-adv-x="531" d="M266,298q-60,0-107.5,26.5T83.5,398T56,506T83.5,614t75,73.5T266,714t107.5-26.5t75-73.5T476,506T448.5,398t-75-73.5T266,298Zm0,39q76,0 122.5,46.5T435,506T388.5,628.5T266,675T143.5,628.5T97,506t46.5-122.5T266,337Zm-72,60V619h85q37,0 56-18.5T354,558q0-20-9.5-34T314,502v-8q17-1 24.5-11t7.5-24V397H307v61q0,21-21,21H233V397H194Zm39,118h47q17,0 26,10.5t9,24.5t-9,24t-26,10H233V515Z" />
      <glyph unicode="&#xaf;" glyph-name="gid202" horiz-adv-x="417" d="M54,575v65H362V575H54Z" />
      <glyph unicode="&#xb0;" glyph-name="gid196" horiz-adv-x="381" d="M191,408q-44,0-79,19.5T56.5,482T36,561q0,45 20.5,79.5t55.5,54T191,714q43,0 78-19.5t55.5-54T345,561q0-44-20.5-79T269,427.5T191,408Zm0,66q38,0 61.5,24T276,561q0,40-23.5,63.5T191,648t-62-23.5T105,561q0-39 24-63t62-24Z" />
      <glyph unicode="&#xb1;" glyph-name="gid192" horiz-adv-x="620" d="M272,148V314H100v73H272V553h76V387H520V314H348V148H272ZM100,0V73H520V0H100Z" />
      <glyph unicode="&#xb2;" glyph-name="gid209" horiz-adv-x="366" d="M27,350v31q0,54 34.5,88T166,519q54,12 80.5,29.5T273,596q0,29-23.5,46.5T187,660t-65-19T93,581l-63,4q6,64 49,96t108,32q66,0 107-31.5T335,596q0-55-35-82t-98-41q-54-12-79-27T94,403H333V350H27Z" />
      <glyph unicode="&#xb3;" glyph-name="gid210" horiz-adv-x="376" d="M187,337q-64,0-110,32T27,462l63,6q3-38 31-58t66-20q41,0 66.5,19T279,458q0,33-24,48t-70,15H124v55l122,60v11H35v53H341V637L213,573V562q61-2 95-27t34-78q0-36-20-63t-55.5-42T187,337Z" />
      <glyph unicode="&#xb4;" glyph-name="gid198" horiz-adv-x="280" d="M54,555l77,136h95L130,555H54Z" />
      <glyph unicode="&#xb5;" glyph-name="gid251" horiz-adv-x="621" d="M79-200V489h80V198q0-71 35.5-104.5T291,60q67,0 110,45.5T444,241V489h79V97q0-30 28-30h45V0H526q-33,0-52.5,18.5T453,69V84H440q-15-37-52.5-65T283-9Q242-9 214,4.5T170,36H156V-200H79Z" />
      <glyph unicode="&#xb6;" glyph-name="gid170" horiz-adv-x="577" d="M261,0V305H246q-64,0-113.5,23.5T55,395T27,497v11q0,60 28.5,103T134,677t114,23H497V0H423V631H335V0H261ZM245,373h16V631H245q-70,0-107-35t-37-90v-6q0-55 37-91t107-36Z" />
      <glyph unicode="&#xb7;" glyph-name="gid97" horiz-adv-x="187" d="M93,219q-29,0-48.5,19T25,287t19.5,49T93,355q30,0 49-19t19-49t-19-49T93,219Z" />
      <glyph unicode="&#xb8;" glyph-name="gid204" horiz-adv-x="323" d="M159-205q-30,0-57,8T54-176l24,50q17-10 36.5-17t43.5-7q20,0 34,8t14,26q0,16-12.5,24T157-84H120L130,21h58l-6-66q39,0 63-20t24-58q0-28-15-46.5t-40-27T159-205Z" />
      <glyph unicode="&#xb9;" glyph-name="gid208" horiz-adv-x="251" d="M140,350V633H127L83,544H19L99,700H202V350H140Z" />
      <glyph unicode="&#xba;" glyph-name="gid168" horiz-adv-x="437" d="M219,340q-81,0-130.5,48.5T39,524q0,86 49.5,134.5T219,707t130-48.5T398,524q0-87-49-135.5T219,340Zm0,53q52,0 84,35t32,96q0,60-32,95t-84,35t-84-35t-32-95q0-61 32-96t84-35Z" />
      <glyph unicode="&#xbb;" glyph-name="gid242" horiz-adv-x="683" d="M337,20v86L558,241v12L337,389v85h6L631,293V201L343,20h-6ZM69,20v86L291,241v12L69,389v85h6L364,293V201L75,20H69Z" />
      <glyph unicode="&#xbc;" glyph-name="gid182" horiz-adv-x="815" d="M140,350V633H127L83,544H19L99,700H202V350H140ZM115-11L68,27L624,711l47-38L115-11ZM658,0V83H443v64L613,350H721V136h76V83H721V0H658ZM516,136H658V301H646L516,147V136Z" />
      <glyph unicode="&#xbd;" glyph-name="gid183" horiz-adv-x="823" d="M140,350V633H127L83,544H19L99,700H202V350H140ZM115-11L68,27L624,711l47-38L115-11ZM484,0V31q0,54 34.5,88T623,169q54,12 80.5,29.5T730,246q0,29-23.5,46.5T644,310t-65-19t-29-60l-63,4q6,64 49,96t108,32q66,0 107-31.5T792,246q0-55-35-82t-98-41q-54-12-79-27T551,53H790V0H484Z" />
      <glyph unicode="&#xbe;" glyph-name="gid184" horiz-adv-x="895" d="M187,337q-64,0-110,32T27,462l63,6q3-38 31-58t66-20q41,0 66.5,19T279,458q0,33-24,48t-70,15H124v55l122,60v11H35v53H341V637L213,573V562q61-2 95-27t34-78q0-36-20-63t-55.5-42T187,337Zm8-348L148,27L704,711l47-38L195-11ZM738,0V83H523v64L693,350H801V136h76V83H801V0H738ZM596,136H738V301H726L596,147V136Z" />
      <glyph unicode="&#xbf;" glyph-name="gid91" horiz-adv-x="580" d="M287-215q-71,0-125.5,25.5T76.5-119T46-17q0,56 21.5,93.5t56,62.5T198,182l28,12q19,8 26.5,21t7.5,37v50h83V251q0-46-16.5-72.5T266,133l-28-13q-51-22-80.5-51.5T128-17q0-40 21-69t57.5-44T287-145q46,0 84,15.5T432.5-82T456-3V33h82V-3q0-67-33-115t-89.5-72.5T287-215Zm13,718q29,0 48.5-19T368,435t-19.5-49T300,367q-30,0-49,19t-19,49t19,49t49,19Z" />
      <glyph unicode="&#xc0;" glyph-name="gid103" horiz-adv-x="630" d="M25,0L241,700H389L605,0H518L464,177H166L112,0H25ZM187,253H442L322,649H308L187,253ZM295,761L206,882h98l67-121H295Z" />
      <glyph unicode="&#xc1;" glyph-name="gid104" horiz-adv-x="630" d="M25,0L241,700H389L605,0H518L464,177H166L112,0H25ZM187,253H442L322,649H308L187,253Zm72,505l67,121h98L336,758H259Z" />
      <glyph unicode="&#xc2;" glyph-name="gid105" horiz-adv-x="630" d="M25,0L241,700H389L605,0H518L464,177H166L112,0H25ZM187,253H442L322,649H308L187,253ZM140,758L267,879h95L489,758H392l-71,73H308l-71-73H140Z" />
      <glyph unicode="&#xc3;" glyph-name="gid106" horiz-adv-x="630" d="M25,0L241,700H389L605,0H518L464,177H166L112,0H25ZM187,253H442L322,649H308L187,253Zm9,505l-47,32l32,50q13,19 30,31.5T254,884q23,0 40.5-10T331,844q13-13 22-20.5t21-7.5t19.5,7T408,840l26,41l47-32l-32-50q-12-18-29-31t-43-13q-24,0-41,10t-36,30q-13,13-22,20t-21,7t-20-7t-15-17l-26-40Z" />
      <glyph unicode="&#xc4;" glyph-name="gid107" horiz-adv-x="630" d="M25,0L241,700H389L605,0H518L464,177H166L112,0H25ZM187,253H442L322,649H308L187,253ZM414,760q-26,0-43,16.5T354,819q0,27 17,43t43,16t42.5-16T473,819q0-26-16.5-42.5T414,760Zm-198,0q-26,0-43,16.5T156,819q0,27 17,43t43,16t43-16t17-43q0-26-17-42.5T216,760Z" />
      <glyph unicode="&#xc5;" glyph-name="gid108" horiz-adv-x="630" d="M25,0L241,700H389L605,0H518L464,177H166L112,0H25ZM187,253H442L322,649H308L187,253ZM315,748q-41,0-70,26.5T216,844q0,42 29,68.5T314,939q42,0 71-26.5T414,844q0-43-29-69.5T315,748Zm0,53q20,0 31.5,12T358,844q0,18-11.5,30.5T315,887t-31.5-12.5T272,844q0-19 11.5-31T315,801Z" />
      <glyph unicode="&#xc6;" glyph-name="gid109" horiz-adv-x="831" d="M388,0V700H779V624H472V390H751V314H472V76H783V0H388ZM25,0L310,700h78V653H375L214,253H388V177H185L114,0H25Z" />
      <glyph unicode="&#xc7;" glyph-name="gid110" horiz-adv-x="642" d="M333-14Q208-14 134,58.5T60,270V430q0,139 74,211.5T333,714q124,0 190.5-69T590,456v-5H507v8q0,79-42.5,129.5T333,639T194,584.5T144,432V268q0-98 50-152.5T333,61t131.5,50.5T507,241v16h83V244q0-120-66.5-189T333-14Zm1-191q-30,0-57,8t-48,21l24,50q17-10 36.5-17t43.5-7q20,0 34,8t14,26q0,16-12.5,24T332-84H295L305,21h58l-6-66q39,0 63-20t24-58q0-28-15-46.5t-40-27T334-205Z" />
      <glyph unicode="&#xc8;" glyph-name="gid112" horiz-adv-x="563" d="M80,0V700H511V624H164V390H483V314H164V76H516V0H80ZM282,761L193,882h98l67-121H282Z" />
      <glyph unicode="&#xc9;" glyph-name="gid113" horiz-adv-x="563" d="M80,0V700H511V624H164V390H483V314H164V76H516V0H80ZM245,758l67,121h98L322,758H245Z" />
      <glyph unicode="&#xca;" glyph-name="gid114" horiz-adv-x="563" d="M80,0V700H511V624H164V390H483V314H164V76H516V0H80Zm47,758L254,879h95L476,758H379l-71,73H295l-71-73H127Z" />
      <glyph unicode="&#xcb;" glyph-name="gid115" horiz-adv-x="563" d="M80,0V700H511V624H164V390H483V314H164V76H516V0H80ZM401,760q-26,0-43,16.5T341,819q0,27 17,43t43,16t42.5-16T460,819q0-26-16.5-42.5T401,760Zm-198,0q-26,0-43,16.5T143,819q0,27 17,43t43,16t43-16t17-43q0-26-17-42.5T203,760Z" />
      <glyph unicode="&#xcc;" glyph-name="gid116" horiz-adv-x="244" d="M80,0V700h84V0H80Zm22,761L13,882h98l67-121H102Z" />
      <glyph unicode="&#xcd;" glyph-name="gid117" horiz-adv-x="244" d="M80,0V700h84V0H80ZM66,758l67,121h98L143,758H66Z" />
      <glyph unicode="&#xce;" glyph-name="gid118" horiz-adv-x="244" d="M80,0V700h84V0H80ZM-52,758L75,879h95L297,758H200l-71,73H116L45,758H-52Z" />
      <glyph unicode="&#xcf;" glyph-name="gid119" horiz-adv-x="244" d="M80,0V700h84V0H80ZM221,760q-26,0-43,16.5T161,819q0,27 17,43t43,16t42.5-16T280,819q0-26-16.5-42.5T221,760ZM23,760q-26,0-43,16.5T-37,819q0,27 17,43t43,16t43-16t17-43q0-26-17-42.5T23,760Z" />
      <glyph unicode="&#xd0;" glyph-name="gid111" horiz-adv-x="663" d="M47,0V75h98V625H47v75H320q138,0 213.5-70T609,415V285q0-146-75.5-215.5T320,0H47ZM229,76h91q102,0 154,50t52,155V418q0,107-52,156T320,623H229V76ZM47,316v62H350V316H47Z" />
      <glyph unicode="&#xd1;" glyph-name="gid120" horiz-adv-x="664" d="M80,0V700H243L487,53h13V700h83V0H420L177,648H163V0H80ZM215,758l-47,32l32,50q13,19 30,31.5T273,884q23,0 40.5-10T350,844q13-13 22-20.5t21-7.5t19.5,7T427,840l26,41l47-32l-32-50q-12-18-29-31t-43-13q-24,0-41,10t-36,30q-13,13-22,20t-21,7t-20-7t-15-17l-26-40Z" />
      <glyph unicode="&#xd2;" glyph-name="gid121" horiz-adv-x="669" d="M334-14Q209-14 134.5,58.5T60,270V430q0,139 74.5,211.5T334,714q126,0 200.5-72.5T609,430V270q0-139-74.5-211.5T334-14Zm0,75q91,0 141,54.5T525,267V433q0,97-50,151.5T334,639q-90,0-140-54.5T144,433V267q0-97 50-151.5T334,61ZM314,761L225,882h98l67-121H314Z" />
      <glyph unicode="&#xd3;" glyph-name="gid122" horiz-adv-x="669" d="M334-14Q209-14 134.5,58.5T60,270V430q0,139 74.5,211.5T334,714q126,0 200.5-72.5T609,430V270q0-139-74.5-211.5T334-14Zm0,75q91,0 141,54.5T525,267V433q0,97-50,151.5T334,639q-90,0-140-54.5T144,433V267q0-97 50-151.5T334,61ZM278,758l67,121h98L355,758H278Z" />
      <glyph unicode="&#xd4;" glyph-name="gid123" horiz-adv-x="669" d="M334-14Q209-14 134.5,58.5T60,270V430q0,139 74.5,211.5T334,714q126,0 200.5-72.5T609,430V270q0-139-74.5-211.5T334-14Zm0,75q91,0 141,54.5T525,267V433q0,97-50,151.5T334,639q-90,0-140-54.5T144,433V267q0-97 50-151.5T334,61ZM160,758L287,879h95L509,758H412l-71,73H328l-71-73H160Z" />
      <glyph unicode="&#xd5;" glyph-name="gid124" horiz-adv-x="669" d="M334-14Q209-14 134.5,58.5T60,270V430q0,139 74.5,211.5T334,714q126,0 200.5-72.5T609,430V270q0-139-74.5-211.5T334-14Zm0,75q91,0 141,54.5T525,267V433q0,97-50,151.5T334,639q-90,0-140-54.5T144,433V267q0-97 50-151.5T334,61ZM215,758l-47,32l32,50q13,19 30,31.5T273,884q23,0 40.5-10T350,844q13-13 22-20.5t21-7.5t19.5,7T427,840l26,41l47-32l-32-50q-12-18-29-31t-43-13q-24,0-41,10t-36,30q-13,13-22,20t-21,7t-20-7t-15-17l-26-40Z" />
      <glyph unicode="&#xd6;" glyph-name="gid125" horiz-adv-x="669" d="M334-14Q209-14 134.5,58.5T60,270V430q0,139 74.5,211.5T334,714q126,0 200.5-72.5T609,430V270q0-139-74.5-211.5T334-14Zm0,75q91,0 141,54.5T525,267V433q0,97-50,151.5T334,639q-90,0-140-54.5T144,433V267q0-97 50-151.5T334,61ZM434,760q-26,0-43,16.5T374,819q0,27 17,43t43,16t42.5-16T493,819q0-26-16.5-42.5T434,760Zm-198,0q-26,0-43,16.5T176,819q0,27 17,43t43,16t43-16t17-43q0-26-17-42.5T236,760Z" />
      <glyph unicode="&#xd7;" glyph-name="gid187" horiz-adv-x="620" d="M164,151l-52,52L259,350L112,497l52,52L310,402L456,549l52-52L361,350L508,203l-52-52L310,299L164,151Z" />
      <glyph unicode="&#xd8;" glyph-name="gid126" horiz-adv-x="669" d="M334-14Q209-14 134.5,58.5T60,270V430q0,139 74.5,211.5T334,714q126,0 200.5-72.5T609,430V270q0-139-74.5-211.5T334-14Zm0,75q91,0 141,54.5T525,267V433q0,97-50,151.5T334,639q-90,0-140-54.5T144,433V267q0-97 50-151.5T334,61ZM198-87L140-64L472,775l57-23L198-87Z" />
      <glyph unicode="&#xd9;" glyph-name="gid128" horiz-adv-x="666" d="M333-14q-78,0-136,28T107,97.5T75,234V700h83V233q0-86 46-129T333,61t129,43t46,129V700h84V234q0-81-32-136.5T469.5,14T333-14ZM313,761L224,882h98l67-121H313Z" />
      <glyph unicode="&#xda;" glyph-name="gid129" horiz-adv-x="666" d="M333-14q-78,0-136,28T107,97.5T75,234V700h83V233q0-86 46-129T333,61t129,43t46,129V700h84V234q0-81-32-136.5T469.5,14T333-14ZM277,758l67,121h98L354,758H277Z" />
      <glyph unicode="&#xdb;" glyph-name="gid130" horiz-adv-x="666" d="M333-14q-78,0-136,28T107,97.5T75,234V700h83V233q0-86 46-129T333,61t129,43t46,129V700h84V234q0-81-32-136.5T469.5,14T333-14ZM159,758L286,879h95L508,758H411l-71,73H327l-71-73H159Z" />
      <glyph unicode="&#xdc;" glyph-name="gid131" horiz-adv-x="666" d="M333-14q-78,0-136,28T107,97.5T75,234V700h83V233q0-86 46-129T333,61t129,43t46,129V700h84V234q0-81-32-136.5T469.5,14T333-14Zm99,774q-26,0-43,16.5T372,819q0,27 17,43t43,16t42.5-16T491,819q0-26-16.5-42.5T432,760Zm-198,0q-26,0-43,16.5T174,819q0,27 17,43t43,16t43-16t17-43q0-26-17-42.5T234,760Z" />
      <glyph unicode="&#xdd;" glyph-name="gid132" horiz-adv-x="610" d="M263,0V267L14,700h96L298,364h14L500,700h96L347,267V0H263ZM249,758l67,121h98L326,758H249Z" />
      <glyph unicode="&#xde;" glyph-name="gid133" horiz-adv-x="601" d="M164,152v76H339q67,0 106,34t39,94v10q0,61-38.5,94.5T339,494H164v76H348q63,0 112.5-24.5T539,476t29-109V355q0-63-29.5-109T459,176T348,152H164ZM80,0V700h84V0H80Z" />
      <glyph unicode="&#xdf;" glyph-name="gid159" horiz-adv-x="628" d="M409-14Q350-14 306,5.5t-70.5,55T201,143l73,19q11-55 46-82t89-27q52,0 82,24.5T521,146q0,28-15.5,47T465,226.5T411,253l-37,16q-37,16-55,38.5T301,357q0,34 18.5,54T368,449q32,19 56.5,44T449,558q0,42-33.5,65T332,646q-39,0-78.5-20t-66-63.5T161,445V0H83V441q0,86 32,147t88,93.5T332,714q59,0 102.5-20.5t68-55.5T527,560t-16.5-73T467,435.5T408,395q-15-7-21-15t-6-18q0-20 31-33l37-17q40-17 74-37.5t55-51T599,145q0-47-23.5-83.5t-66-56T409-14Z" />
      <glyph unicode="&#xe0;" glyph-name="gid134" horiz-adv-x="575" d="M233-14q-51,0-93,18T74,56T50,139q0,50 24,82.5t66,49T234,287H399v36q0,52-30.5,82T278,435q-59,0-92-28.5T141,330L67,354q12,41 38,74.5t69.5,54T279,503q94,0 146-48.5T477,318V97q0-30 28-30h45V0H481q-33,0-53,18.5T408,68v5H396q-11-19-29.5-39.5T316-0.5T233-14Zm9,68q70,0 113.5,41.5T399,212v11H237q-47,0-77.5-20.5T129,141t31.5-64T242,54Zm16,509L162,700h96l76-137H258Z" />
      <glyph unicode="&#xe1;" glyph-name="gid135" horiz-adv-x="575" d="M233-14q-51,0-93,18T74,56T50,139q0,50 24,82.5t66,49T234,287H399v36q0,52-30.5,82T278,435q-59,0-92-28.5T141,330L67,354q12,41 38,74.5t69.5,54T279,503q94,0 146-48.5T477,318V97q0-30 28-30h45V0H481q-33,0-53,18.5T408,68v5H396q-11-19-29.5-39.5T316-0.5T233-14Zm9,68q70,0 113.5,41.5T399,212v11H237q-47,0-77.5-20.5T129,141t31.5-64T242,54ZM229,555l77,136h95L305,555H229Z" />
      <glyph unicode="&#xe2;" glyph-name="gid136" horiz-adv-x="575" d="M233-14q-51,0-93,18T74,56T50,139q0,50 24,82.5t66,49T234,287H399v36q0,52-30.5,82T278,435q-59,0-92-28.5T141,330L67,354q12,41 38,74.5t69.5,54T279,503q94,0 146-48.5T477,318V97q0-30 28-30h45V0H481q-33,0-53,18.5T408,68v5H396q-11-19-29.5-39.5T316-0.5T233-14Zm9,68q70,0 113.5,41.5T399,212v11H237q-47,0-77.5-20.5T129,141t31.5-64T242,54ZM109,555L233,691h97L453,555H364l-76,84H274l-75-84H109Z" />
      <glyph unicode="&#xe3;" glyph-name="gid137" horiz-adv-x="575" d="M233-14q-51,0-93,18T74,56T50,139q0,50 24,82.5t66,49T234,287H399v36q0,52-30.5,82T278,435q-59,0-92-28.5T141,330L67,354q12,41 38,74.5t69.5,54T279,503q94,0 146-48.5T477,318V97q0-30 28-30h45V0H481q-33,0-53,18.5T408,68v5H396q-11-19-29.5-39.5T316-0.5T233-14Zm9,68q70,0 113.5,41.5T399,212v11H237q-47,0-77.5-20.5T129,141t31.5-64T242,54ZM171,546l-50,29l31,56q12,20 29.5,31.5T222,674q21,0 36.5-8.5T292,638q12-14 22-23.5t21-9.5t18,6.5T366,628l24,43l50-29l-31-57q-11-20-28-31.5T340,542q-21,0-37,8.5T270,579q-12,13-22,22.5T227,611q-12,0-19-6.5T196,589l-25-43Z" />
      <glyph unicode="&#xe4;" glyph-name="gid138" horiz-adv-x="575" d="M233-14q-51,0-93,18T74,56T50,139q0,50 24,82.5t66,49T234,287H399v36q0,52-30.5,82T278,435q-59,0-92-28.5T141,330L67,354q12,41 38,74.5t69.5,54T279,503q94,0 146-48.5T477,318V97q0-30 28-30h45V0H481q-33,0-53,18.5T408,68v5H396q-11-19-29.5-39.5T316-0.5T233-14Zm9,68q70,0 113.5,41.5T399,212v11H237q-47,0-77.5-20.5T129,141t31.5-64T242,54ZM375,564q-25,0-42,16.5T316,624t17,43t42,16q27,0 43.5-16T435,624t-16.5-43.5T375,564Zm-187,0q-26,0-43,16.5T128,624t17,43t43,16t43-16t17-43t-17-43.5T188,564Z" />
      <glyph unicode="&#xe5;" glyph-name="gid139" horiz-adv-x="575" d="M233-14q-51,0-93,18T74,56T50,139q0,50 24,82.5t66,49T234,287H399v36q0,52-30.5,82T278,435q-59,0-92-28.5T141,330L67,354q12,41 38,74.5t69.5,54T279,503q94,0 146-48.5T477,318V97q0-30 28-30h45V0H481q-33,0-53,18.5T408,68v5H396q-11-19-29.5-39.5T316-0.5T233-14Zm9,68q70,0 113.5,41.5T399,212v11H237q-47,0-77.5-20.5T129,141t31.5-64T242,54Zm40,489q-41,0-70,26.5T183,638q0,43 29,69.5T281,734q42,0 71-26.5T381,638t-29-69t-70-26Zm0,53q20,0 31.5,12T325,638q0,19-11.5,31T282,681t-31.5-12T239,638q0-18 11.5-30T282,596Z" />
      <glyph unicode="&#xe6;" glyph-name="gid140" horiz-adv-x="925" d="M654-14q-72,0-126,35t-83.5,94.5T415,248t29.5,130.5t81.5,91T645,503q69,0 119.5-30t78-83.5T870,264V221H487q5-76 49-120.5T652,56q61,0 93.5,28.5T796,150l63-38q-18-33-43.5-62T751,3.5T654-14ZM251,52q70,0 113.5,42.5T408,211v10H243q-50,0-82.5-20.5T128,140q0-41 34-64.5T251,52Zm-6-66q-85,0-140,39T50,138t54,110t136,36H408v39q0,52-33.5,82T281,435q-61,0-96.5-28.5T136,332L64,355q13,41 40,74t71,53.5T281,503q66,0 108.5-25.5T453,410h23L454,255l13-155H441q-12-28-35.5-54T343,3T245-14ZM488,284H791q-2,72-42,110T644,432q-66,0-108-39.5T488,284Z" />
      <glyph unicode="&#xe7;" glyph-name="gid141" horiz-adv-x="598" d="M308-14q-71,0-127.5,30.5T91.5,104T59,239v11q0,79 32.5,135.5t89,87T308,503q70,0 119.5-26t78-69T542,316l-77-16q-5,36-23.5,66T390,414t-81,18q-49,0-87.5-22t-61-63T138,249v-9q0-57 22.5-98t61-63T309,57q73,0 111.5,38T468,189l78-17q-11-48-40-91T427.5,12T308-14Zm3-191q-30,0-57,8t-48,21l24,50q17-10 36.5-17t43.5-7q20,0 34,8t14,26q0,16-12.5,24T309-84H272L282,21h58l-6-66q39,0 63-20t24-58q0-28-15-46.5t-40-27T311-205Z" />
      <glyph unicode="&#xe8;" glyph-name="gid143" horiz-adv-x="592" d="M307-14q-74,0-130,31.5T90,106T59,238v12q0,76 31,133t86,88.5T302,503q69,0 122-29.5T507,389t30-129V224H138q3-79 51-123.5T309,56q63,0 97,29t52,69l68-33q-15-31-41.5-62t-69-52T307-14ZM139,289H457q-4,68-46.5,106T302,433q-67,0-110-38T139,289ZM278,563L182,700h96l76-137H278Z" />
      <glyph unicode="&#xe9;" glyph-name="gid144" horiz-adv-x="592" d="M307-14q-74,0-130,31.5T90,106T59,238v12q0,76 31,133t86,88.5T302,503q69,0 122-29.5T507,389t30-129V224H138q3-79 51-123.5T309,56q63,0 97,29t52,69l68-33q-15-31-41.5-62t-69-52T307-14ZM139,289H457q-4,68-46.5,106T302,433q-67,0-110-38T139,289ZM249,555l77,136h95L325,555H249Z" />
      <glyph unicode="&#xea;" glyph-name="gid145" horiz-adv-x="592" d="M307-14q-74,0-130,31.5T90,106T59,238v12q0,76 31,133t86,88.5T302,503q69,0 122-29.5T507,389t30-129V224H138q3-79 51-123.5T309,56q63,0 97,29t52,69l68-33q-15-31-41.5-62t-69-52T307-14ZM139,289H457q-4,68-46.5,106T302,433q-67,0-110-38T139,289ZM129,555L253,691h97L473,555H384l-76,84H294l-75-84H129Z" />
      <glyph unicode="&#xeb;" glyph-name="gid146" horiz-adv-x="592" d="M307-14q-74,0-130,31.5T90,106T59,238v12q0,76 31,133t86,88.5T302,503q69,0 122-29.5T507,389t30-129V224H138q3-79 51-123.5T309,56q63,0 97,29t52,69l68-33q-15-31-41.5-62t-69-52T307-14ZM139,289H457q-4,68-46.5,106T302,433q-67,0-110-38T139,289ZM395,564q-25,0-42,16.5T336,624t17,43t42,16q27,0 43.5-16T455,624t-16.5-43.5T395,564Zm-187,0q-26,0-43,16.5T148,624t17,43t43,16t43-16t17-43t-17-43.5T208,564Z" />
      <glyph unicode="&#xec;" glyph-name="gid147" horiz-adv-x="245" d="M83,0V489h79V0H83ZM99,563L3,700H99l76-137H99Z" />
      <glyph unicode="&#xed;" glyph-name="gid148" horiz-adv-x="245" d="M83,0V489h79V0H83ZM70,555l77,136h95L146,555H70Z" />
      <glyph unicode="&#xee;" glyph-name="gid149" horiz-adv-x="245" d="M83,0V489h79V0H83ZM-50,555L74,691h97L294,555H205l-76,84H115L40,555H-50Z" />
      <glyph unicode="&#xef;" glyph-name="gid150" horiz-adv-x="245" d="M83,0V489h79V0H83ZM216,564q-25,0-42,16.5T157,624t17,43t42,16q27,0 43.5-16T276,624t-16.5-43.5T216,564ZM29,564q-26,0-43,16.5T-31,624t17,43t43,16t43-16t17-43T72,580.5T29,564Z" />
      <glyph unicode="&#xf0;" glyph-name="gid142" horiz-adv-x="615" d="M309-14q-75,0-131.5,31.5T90,106T59,238v12q0,75 30,130.5t83,87T292,499q56,1 94-17.5T449,434h13q-20,77-83.5,138T204,666l25,62q105-32 179-92.5t112.5-152T559,269q0-91-31-154T441,19T309-14Zm0,71q51,0 89.5,22.5t60,64T480,241v7q0,83-47,133.5T309,432T185,381.5T138,248v-7q0-84 47-134T309,57ZM291,544l-44,31L369,744l44-32L291,544Z" />
      <glyph unicode="&#xf1;" glyph-name="gid151" horiz-adv-x="613" d="M83,0V489h77V406h14q16,35 54.5,63.5T342,498q55,0 98.5-23T510,407t26-111V0H457V290q0,73-36.5,106T322,429q-71,0-115.5-46T162,246V0H83ZM197,546l-50,29l31,56q12,20 29.5,31.5T248,674q21,0 36.5-8.5T318,638q12-14 22-23.5t21-9.5t18,6.5T392,628l24,43l50-29l-31-57q-11-20-28-31.5T366,542q-21,0-37,8.5T296,579q-12,13-22,22.5T253,611q-12,0-19-6.5T222,589l-25-43Z" />
      <glyph unicode="&#xf2;" glyph-name="gid152" horiz-adv-x="618" d="M309-14q-74,0-130.5,31t-88,87.5T59,238v13q0,76 31.5,133t88,88T309,503t130.5-31t88-88T559,251V238q0-77-31.5-133.5T439.5,17T309-14Zm0,71q78,0 124.5,49.5T480,240v9q0,84-46.5,133.5T309,432q-77,0-124-49.5T138,249v-9q0-84 47-133.5T309,57ZM285,563L189,700h96l76-137H285Z" />
      <glyph unicode="&#xf3;" glyph-name="gid153" horiz-adv-x="618" d="M309-14q-74,0-130.5,31t-88,87.5T59,238v13q0,76 31.5,133t88,88T309,503t130.5-31t88-88T559,251V238q0-77-31.5-133.5T439.5,17T309-14Zm0,71q78,0 124.5,49.5T480,240v9q0,84-46.5,133.5T309,432q-77,0-124-49.5T138,249v-9q0-84 47-133.5T309,57ZM256,555l77,136h95L332,555H256Z" />
      <glyph unicode="&#xf4;" glyph-name="gid154" horiz-adv-x="618" d="M309-14q-74,0-130.5,31t-88,87.5T59,238v13q0,76 31.5,133t88,88T309,503t130.5-31t88-88T559,251V238q0-77-31.5-133.5T439.5,17T309-14Zm0,71q78,0 124.5,49.5T480,240v9q0,84-46.5,133.5T309,432q-77,0-124-49.5T138,249v-9q0-84 47-133.5T309,57ZM137,555L261,691h97L481,555H392l-76,84H302l-75-84H137Z" />
      <glyph unicode="&#xf5;" glyph-name="gid155" horiz-adv-x="618" d="M309-14q-74,0-130.5,31t-88,87.5T59,238v13q0,76 31.5,133t88,88T309,503t130.5-31t88-88T559,251V238q0-77-31.5-133.5T439.5,17T309-14Zm0,71q78,0 124.5,49.5T480,240v9q0,84-46.5,133.5T309,432q-77,0-124-49.5T138,249v-9q0-84 47-133.5T309,57ZM198,546l-50,29l31,56q12,20 29.5,31.5T249,674q21,0 36.5-8.5T319,638q12-14 22-23.5t21-9.5t18,6.5T393,628l24,43l50-29l-31-57q-11-20-28-31.5T367,542q-21,0-37,8.5T297,579q-12,13-22,22.5T254,611q-12,0-19-6.5T223,589l-25-43Z" />
      <glyph unicode="&#xf6;" glyph-name="gid156" horiz-adv-x="618" d="M309-14q-74,0-130.5,31t-88,87.5T59,238v13q0,76 31.5,133t88,88T309,503t130.5-31t88-88T559,251V238q0-77-31.5-133.5T439.5,17T309-14Zm0,71q78,0 124.5,49.5T480,240v9q0,84-46.5,133.5T309,432q-77,0-124-49.5T138,249v-9q0-84 47-133.5T309,57Zm93,507q-25,0-42,16.5T343,624t17,43t42,16q27,0 43.5-16T462,624t-16.5-43.5T402,564Zm-187,0q-26,0-43,16.5T155,624t17,43t43,16t43-16t17-43t-17-43.5T215,564Z" />
      <glyph unicode="&#xf7;" glyph-name="gid188" horiz-adv-x="620" d="M100,314v72H520V314H100ZM310,120q-28,0-46.5,18.5T245,185t18.5,47T310,251t46.5-19T375,185t-18.5-46.5T310,120Zm0,329q-28,0-46.5,19T245,515t18.5,46.5T310,580t46.5-18.5T375,515t-18.5-47T310,449Z" />
      <glyph unicode="&#xf8;" glyph-name="gid157" horiz-adv-x="618" d="M309-14q-74,0-130.5,31t-88,87.5T59,238v13q0,76 31.5,133t88,88T309,503t130.5-31t88-88T559,251V238q0-77-31.5-133.5T439.5,17T309-14Zm0,71q78,0 124.5,49.5T480,240v9q0,84-46.5,133.5T309,432q-77,0-124-49.5T138,249v-9q0-84 47-133.5T309,57ZM163-62L113-32L455,545l50-30L163-62Z" />
      <glyph unicode="&#xf9;" glyph-name="gid160" horiz-adv-x="612" d="M270-9q-53,0-97.5,23t-70,68.5T77,193V489h79V199q0-73 36.5-106T291,60q70,0 115,46t45,137V489h79V0H453V83H439q-16-35-55-63.5T270-9Zm10,572L184,700h96l76-137H280Z" />
      <glyph unicode="&#xfa;" glyph-name="gid161" horiz-adv-x="612" d="M270-9q-53,0-97.5,23t-70,68.5T77,193V489h79V199q0-73 36.5-106T291,60q70,0 115,46t45,137V489h79V0H453V83H439q-16-35-55-63.5T270-9ZM250,555l77,136h95L326,555H250Z" />
      <glyph unicode="&#xfb;" glyph-name="gid162" horiz-adv-x="612" d="M270-9q-53,0-97.5,23t-70,68.5T77,193V489h79V199q0-73 36.5-106T291,60q70,0 115,46t45,137V489h79V0H453V83H439q-16-35-55-63.5T270-9ZM131,555L255,691h97L475,555H386l-76,84H296l-75-84H131Z" />
      <glyph unicode="&#xfc;" glyph-name="gid163" horiz-adv-x="612" d="M270-9q-53,0-97.5,23t-70,68.5T77,193V489h79V199q0-73 36.5-106T291,60q70,0 115,46t45,137V489h79V0H453V83H439q-16-35-55-63.5T270-9ZM396,564q-25,0-42,16.5T337,624t17,43t42,16q27,0 43.5-16T456,624t-16.5-43.5T396,564Zm-187,0q-26,0-43,16.5T149,624t17,43t43,16t43-16t17-43t-17-43.5T209,564Z" />
      <glyph unicode="&#xfd;" glyph-name="gid164" horiz-adv-x="612" d="M142-200v70H422q29,0 29,30V78H437q-10-21-30.5-41.5T353,3.5T270-9q-53,0-97.5,23t-70,68T77,192V489h79V198q0-72 36.5-105T291,60q70,0 115,46t45,137V489h79V-114q0-40-22.5-63T442-200H142ZM251,555l77,136h95L327,555H251Z" />
      <glyph unicode="&#xfe;" glyph-name="gid166" horiz-adv-x="642" d="M83-200V700h78V412h13q13,23 35,43.5t57.5,34T353,503q64,0 116-30.5t83-87T583,251V238q0-78-31-135T469,16T353-14q-51,0-86.5,13.5T209,33.5T174,76H161V-200H83ZM333,56q76,0 123.5,48.5T504,240v9q0,87-47.5,135.5T333,433q-75,0-123.5-48.5T161,249v-9q0-87 48.5-135.5T333,56Z" />
      <glyph unicode="&#xff;" glyph-name="gid165" horiz-adv-x="612" d="M142-200v70H422q29,0 29,30V78H437q-10-21-30.5-41.5T353,3.5T270-9q-53,0-97.5,23t-70,68T77,192V489h79V198q0-72 36.5-105T291,60q70,0 115,46t45,137V489h79V-114q0-40-22.5-63T442-200H142ZM397,564q-25,0-42,16.5T338,624t17,43t42,16q27,0 43.5-16T457,624t-16.5-43.5T397,564Zm-187,0q-26,0-43,16.5T150,624t17,43t43,16t43-16t17-43t-17-43.5T210,564Z" />
      <glyph unicode="&#x2013;" glyph-name="gid95" horiz-adv-x="607" d="M79,221v73H527V221H79Z" />
      <glyph unicode="&#x2014;" glyph-name="gid96" horiz-adv-x="911" d="M79,221v73H831V221H79Z" />
      <glyph unicode="&#x2018;" glyph-name="gid77" horiz-adv-x="251" d="M176,714V664H147q-36,0-36-36V596h14q29,0 48.5-18T193,533q0-29-19.5-47T125,468T77,487T58,535v93q0,86 86,86h32Z" />
      <glyph unicode="&#x2019;" glyph-name="gid78" horiz-adv-x="251" d="M75,468v50h29q36,0 36,36v32H126q-29,0-48.5,18T58,649q0,29 19.5,47T126,714t48-19t19-48V554q0-86-86-86H75Z" />
      <glyph unicode="&#x201a;" glyph-name="gid81" horiz-adv-x="251" d="M75-125v50h29q36,0 36,36V-7H126Q97-7 77.5,11T58,56q0,29 19.5,47T126,121t48-19t19-48V-39q0-86-86-86H75Z" />
      <glyph unicode="&#x201c;" glyph-name="gid79" horiz-adv-x="425" d="M350,714V664H321q-36,0-36-36V596h14q29,0 48.5-18T367,533q0-29-19.5-47T299,468t-48,19t-19,48v93q0,86 86,86h32Zm-174,0V664H147q-36,0-36-36V596h14q29,0 48.5-18T193,533q0-29-19.5-47T125,468T77,487T58,535v93q0,86 86,86h32Z" />
      <glyph unicode="&#x201d;" glyph-name="gid80" horiz-adv-x="425" d="M75,468v50h29q36,0 36,36v32H126q-29,0-48.5,18T58,649q0,29 19.5,47T126,714t48-19t19-48V554q0-86-86-86H75Zm173,0v50h29q36,0 36,36v32H299q-29,0-48.5,18T231,649q0,29 19.5,47T299,714t48-19t19-48V554q0-86-86-86H248Z" />
      <glyph unicode="&#x201e;" glyph-name="gid82" horiz-adv-x="425" d="M75-125v50h29q36,0 36,36V-7H126Q97-7 77.5,11T58,56q0,29 19.5,47T126,121t48-19t19-48V-39q0-86-86-86H75Zm173,0v50h29q36,0 36,36V-7H299q-29,0-48.5,18T231,56q0,29 19.5,47T299,121t48-19t19-48V-39q0-86-86-86H248Z" />
      <glyph unicode="&#x2022;" glyph-name="gid98" horiz-adv-x="360" d="M180,139q-33,0-60.5,15.5T76,197T60,257q0,34 16,61t43,42.5T180,376t61.5-15.5t43-42.5T300,257t-16-61t-43.5-42T180,139Z" />
      <glyph unicode="&#x2039;" glyph-name="gid92" horiz-adv-x="462" d="M386,22L52,200v94L386,473h6V389L130,253V241L392,105V22h-6Z" />
      <glyph unicode="&#x203a;" glyph-name="gid93" horiz-adv-x="462" d="M69,22v83L332,241v12L69,389v84h6L410,294V200L75,22H69Z" />
    </font>
</defs>
</svg>
