<?xml version="1.0" standalone="no"?>
<!DOCTYPE svg PUBLIC "-//W3C//DTD SVG 1.1//EN" "http://www.w3.org/Graphics/SVG/1.1/DTD/svg11.dtd">
<svg xmlns="http://www.w3.org/2000/svg">
  <defs>
    <font id="DMSans" horiz-adv-x="550">
      <font-face font-family="DM Sans 9pt Medium" units-per-em="1000" panose-1="0 0 0 0 0 0 0 0 0 0" ascent="992" descent="-310" alphabetic="0" />
      <glyph unicode=" " glyph-name="gid153" horiz-adv-x="256" />
      <glyph unicode="!" glyph-name="gid161" horiz-adv-x="268" d="M92,208L80,700H188L177,208H92ZM135-5Q106-5 87.5,13.5T69,58q0,27 18.5,45.5T135,122q28,0 46.5-18.5T200,58q0-26-18.5-44.5T135-5Z" />
      <glyph unicode="&quot;" glyph-name="gid191" horiz-adv-x="314" d="M197,547L185,755h91L266,547H197ZM50,547L38,755h92L119,547H50Z" />
      <glyph unicode="#" glyph-name="gid168" horiz-adv-x="821" d="M438,0L588,712h93L533,0H438ZM142,0L291,712h95L237,0H142ZM42,189v89H730V189H42ZM87,436v88H776V436H87Z" />
      <glyph unicode="$" glyph-name="gid207" horiz-adv-x="587" d="M259-87V791h68V-87H259Zm43,75q-77,0-135,27.5T77,93T45,210H150q1-38 18.5-69.5t51-50T302,72q42,0 72.5,14T421,124.5T437,181q0,37-17,61t-45.5,39.5t-66,27.5T230,335q-83,27-123.5,70T66,517q0,59 28,102.5t78.5,68T292,712q68,0 119-25t80-69t29-103H414q0,27-14,53t-42,42.5T289,627q-34,1-61-11t-42-35t-15-55t13.5-51.5T224,441t60.5-25.5T361,390q52-17 92.5-41.5t64-63T541,187q0-52-27-97T434,16.5T302-12Z" />
      <glyph unicode="%" glyph-name="gid224" horiz-adv-x="822" d="M158,0L560,700h99L257,0H158ZM618-12q-47,0-84,21T475,68.5T453,159q0,54 22,92t59,59t83,21q48,0 84.5-21t58-59T781,159q0-52-21.5-90.5T701,9T618-12Zm-2,74q23,0 41.5,11t30,32.5T699,160t-11,54.5T658.5,247T617,258q-21,0-40-11t-30.5-32.5T535,160t11.5-54.5t30-32.5T616,62ZM206,368q-46,0-83,21T63.5,448.5T41,540t22.5,91t60,59T207,711t83-21t58.5-59T370,540t-21.5-91.5t-59-59.5T206,368Zm0,74q22,0 40.5,11T276,485.5T287,540t-11,55t-29.5,33T207,639q-22,0-41.5-11t-31-33T123,540q0-32 11.5-54T165,453t41-11Z" />
      <glyph unicode="&amp;" glyph-name="gid196" horiz-adv-x="748" d="M601,0L221,385q-47,46-66.5,84T135,551q0,46 22.5,82.5t65,57.5T324,712t100.5-21.5t64-58.5T510,548H412q0,42-26,63.5T324,633q-43,0-67.5-22.5T232,552q0-29 17-58.5T300,428L724,0H601ZM283-12q-72,0-127,26.5t-85,75T41,202q0,51 21,93.5t62,75T225,423l38,13l49-64l-41-14q-66-23-98.5-61T140,207q0-38 18.5-69T210,90t77-17q57,0 102,24.5T478,178q20,26 41,59t44,75l28,51H695l-42-77q-26-51-52.5-92.5T547,120Q490,50 426.5,19T283-12Z" />
      <glyph unicode="&apos;" glyph-name="gid192" horiz-adv-x="171" d="M51,547L38,755h94L120,547H51Z" />
      <glyph unicode="(" glyph-name="gid175" horiz-adv-x="383" d="M245-145Q191-92 145.5-19.5t-72,161T47,333T73.5,524.5t72,161.5T245,811H347v-9q-61-62-106-136T171,508T146,333t25-175T241.5,0T347-136v-9H245Z" />
      <glyph unicode=")" glyph-name="gid176" horiz-adv-x="383" d="M137-145H36v9Q97-74 141.5,0T211,158t25,175T211,508T141.5,666T36,802v9H137q56-52 100.5-125T309,524.5T336,333T309,141.5t-71.5-161T137-145Z" />
      <glyph unicode="*" glyph-name="gid167" horiz-adv-x="490" d="M210,360l14,149L104,421L64,491l136,58L65,605l38,67l122-87L209,734h77L269,585l121,87l37-66L291,548l136-58l-38-68L269,509l16-149H210Z" />
      <glyph unicode="+" glyph-name="gid212" horiz-adv-x="559" d="M235,69V511h88V69H235ZM46,248v84H513V248H46Z" />
      <glyph unicode="," glyph-name="gid157" horiz-adv-x="202" d="M10-123L67,108H168L77-123H10Z" />
      <glyph unicode="-" glyph-name="gid171" horiz-adv-x="552" d="M74,253v84H478V253H74Z" />
      <glyph unicode="." glyph-name="gid156" horiz-adv-x="215" d="M108-5Q79-5 60.5,13.5T42,58q0,27 18.5,45.5T108,122t47-18.5T173,58q0-26-18-44.5T108-5Z" />
      <glyph unicode="/" glyph-name="gid169" horiz-adv-x="403" d="M27-101L277,769h98L125-101H27Z" />
      <glyph unicode="0" glyph-name="gid127" horiz-adv-x="690" d="M346-12q-93,0-160,45.5T83,160.5T47,350T83,539.5t103,127T346,712t159.5-45.5t102-127T643,350T607.5,160.5t-102-127T346-12Zm0,89q56,0 100.5,33T516,204t25,146T516,496t-69.5,93.5T346,622q-57,0-102-32.5T174,496T149,350t25-146t70-94T346,77Z" />
      <glyph unicode="1" glyph-name="gid128" horiz-adv-x="328" d="M153,0V587L31,556v75l159,69h65V0H153Z" />
      <glyph unicode="2" glyph-name="gid129" horiz-adv-x="577" d="M59,0V72q70,54 133,109T304.5,290.5t77.5,107T410,498q0,34-12,63t-38,47.5T289,627q-43,0-71.5-19t-43-50.5T160,488H63q1,72 31,122t81.5,76T291,712q67,0 116-24.5t76-71T510,503q0-48-19-95.5T439.5,315T367,228.5T284.5,150T203,83H532V0H59Z" />
      <glyph unicode="3" glyph-name="gid130" horiz-adv-x="594" d="M295-12q-67,0-122.5,24.5t-88,74T50,211H150q1-38 18-69t49.5-49.5T295,74t75.5,17t46,46T432,202q0,45-21.5,73t-58,42T271,331H219v84h52q63,0 100.5,29T409,526q0,44-29,72t-85,28t-88.5-32T170,513H71q3,59 31.5,104.5t78,70T295,712q70,0 117.5-24.5t72-65.5T509,532q0-37-14-68.5T455,409t-63-33q40-8 72-31t50-59.5T532,201q0-57-27-105.5t-79.5-78T295-12Z" />
      <glyph unicode="4" glyph-name="gid131" horiz-adv-x="621" d="M391,0V143H40v78L375,700H490V230H590V143H490V0H391ZM149,230H397V590L149,230Z" />
      <glyph unicode="5" glyph-name="gid132" horiz-adv-x="614" d="M314-12q-74,0-127,26.5t-84,72T65,189h98q10-51 50-83.5T314,73q46,0 79,22t51,59t18,82q0,48-18.5,83.5t-51,55.5T317,395q-52,0-89.5-23.5T173,312H76l58,388H511V613H211L174,417q24,27 64.5,44T331,478q53,0 95-18.5T497.5,408t45-77T558,238q0-53-17-98T492.5,60.5T415.5,7T314-12Z" />
      <glyph unicode="6" glyph-name="gid133" horiz-adv-x="630" d="M328-12q-77,0-129.5,28.5T114,93.5t-46.5,108T53,324q0,116 32.5,203T179,663t147,49q69,0 117.5-26.5t76-70.5T553,518H460q-9,52-44.5,80.5T325,627q-49,0-88-30.5T175.5,504T150,347q0-1 0-3t0-4q15,30 43,55t66.5,39.5T343,449q59,0 110.5-27.5T537,343t32-119q0-61-29.5-115T456,21.5T328-12Zm-7,87q43,0 76.5,18.5t53,51.5T470,220q0,43-19.5,75.5t-53,50.5T321,364t-77-19.5t-54-52T170,219q0-42 20-74.5t54.5-51T321,75Z" />
      <glyph unicode="7" glyph-name="gid134" horiz-adv-x="535" d="M130,0L397,614H27v86H500V627L234,0H130Z" />
      <glyph unicode="8" glyph-name="gid135" horiz-adv-x="616" d="M308-12q-69,0-124.5,25.5T95.5,85T63,192q0,43 16,79.5T124,335t68,39q-52,21-82,62T80,526q0,51 27,93t78,67.5T308,712t123-25.5T508.5,619T535,526q0-49-29.5-90.5T424,374q39-12 68-39t45-63.5T553,192q0-61-32.5-107t-88-71.5T308-12Zm0,86q73,0 109.5,34.5T454,199q0,63-39.5,96T308,328T201.5,295T162,199q0-56 36.5-90.5T308,74Zm0,333q59,0 93.5,31T436,517q0,55-34,83t-94,28q-59,0-93-28t-34-83q0-48 34-79t93-31Z" />
      <glyph unicode="9" glyph-name="gid136" horiz-adv-x="630" d="M304-12q-68,0-116,26.5t-76,71T78,182h93q10-52 45-80.5T305,73q50,0 88,30t61,91t26,154q1,3 1,6t0,6q-16-30-44-55t-65.5-39.5T288,251q-59,0-110.5,27.5T93.5,357T61,476q0,61 29.5,115t84,87.5T303,712q77,0 129.5-28.5t84-77t46-108T577,376q0-115-32-202.5T452,37T304-12Zm6,348q43,0 77,19.5T441,408t20,73q0,42-20,74.5t-54.5,51T309,625q-42,0-76-18.5t-53.5-51T160,480t19.5-75.5T233,354t77-18Z" />
      <glyph unicode=":" glyph-name="gid158" horiz-adv-x="218" d="M108-5Q79-5 60.5,13.5T42,58q0,27 18.5,45.5T108,122t47-18.5T173,58q0-26-18-44.5T108-5Zm0,394q-29,0-47.5,18.5T42,452q0,27 18.5,45.5T108,516t47-18.5T173,452q0-26-18-44.5T108,389Z" />
      <glyph unicode=";" glyph-name="gid159" horiz-adv-x="243" d="M133,389q-29,0-47.5,18.5T67,452q0,27 18.5,45.5T133,516t47-18.5T198,452q0-26-18-44.5T133,389ZM27-123L84,108H185L94-123H27Z" />
      <glyph unicode="&lt;" glyph-name="gid218" horiz-adv-x="559" d="M462,46H335L98,274L335,504H462L224,274L462,46Z" />
      <glyph unicode="=" glyph-name="gid216" horiz-adv-x="559" d="M75,354v86H483V354H75Zm0-213v86H483V141H75Z" />
      <glyph unicode="&gt;" glyph-name="gid217" horiz-adv-x="559" d="M98,46L335,274L98,504H225L461,274L225,46H98Z" />
      <glyph unicode="?" glyph-name="gid163" horiz-adv-x="528" d="M153,209l-4,158h36q41,0 77.5,5T327,391.5t44.5,42T388,505q0,39-16,66.5t-45.5,42T259,628q-39,0-68.5-14.5t-45.5-41T129,509H34q0,60 28,106t79,71.5T259,712q66,0 117-25t80-71t29-111q0-72-31-117.5t-85.5-67T243,299l-2-90H153ZM197-5q-29,0-47.5,18.5T131,58q0,27 18.5,45.5T197,122t47-18.5T262,58q0-26-18-44.5T197-5Z" />
      <glyph unicode="@" glyph-name="gid195" horiz-adv-x="1018" d="M435-204q-107,0-188,42T121-42.5T76,141q0,107 36.5,198.5T215,499.5t157.5,107T574,645q112,0 194.5-43t128-119.5T942,305q0-59-14-114T886,91.5t-68.5-71T725-6q-63,0-91.5,38T613,131l3,33l18-38q-25-61-78.5-96.5T439-6Q364-6 322,40T280,164q0,55 17,105t48.5,89.5T420,421t96,23q60,0 95-31.5T653,321l-21-13l23,126h83L689,154q-7-41 3.5-66.5T739,62q31,0 54,22t38.5,57.5T855,219t8,82q0,86-36.5,147T723,542.5T563,576q-90,0-164.5-33t-129-91.5T185,315.5T155,149q0-90 35.5-153.5t102-96T450-133q44,0 87.5,8.5T618-99l16-67q-45-19-95.5-28.5T435-204ZM469,69q40,0 72.5,21.5t54,60T622,239q3,36-7,65.5t-33.5,47T521,369q-35,0-63-16t-47.5-43t-30-61T370,180q0-50 25-80.5T469,69Z" />
      <glyph unicode="A" glyph-name="gid1" horiz-adv-x="678" d="M28,0L285,700H394L651,0H544L339,580L133,0H28ZM144,173l28,80H501l28-80H144Z" />
      <glyph unicode="B" glyph-name="gid10" horiz-adv-x="614" d="M73,0V700H332q73,0 122-23.5t73.5-64T552,521q0-53-23-89t-60.5-55.5T388,354l14,10q46-1 84-24.5T546,277t22-86q0-54-26-97.5T465,25T340,0H73ZM173,83H327q66,0 102.5,30.5T466,200q0,55-37.5,88T325,321H173V83Zm0,315H321q63,0 96,29.5T450,509q0,50-33,79.5T318,618H173V398Z" />
      <glyph unicode="C" glyph-name="gid11" horiz-adv-x="724" d="M380-12Q277-12 202.5,33.5t-115,127T47,350q0,107 40.5,189t115,127.5T380,712q123,0 199.5-59T677,487H567q-15,62-61.5,99T380,623q-71,0-123-33t-80-94T149,350t28-146.5t80-94T380,77q79,0 125.5,35.5T567,209H677Q656,105 579.5,46.5T380-12Z" />
      <glyph unicode="D" glyph-name="gid13" horiz-adv-x="694" d="M73,0V700H288q122,0 202-43T608.5,535.5T647,349T608.5,163T490.5,42.5T288,0H73ZM173,84H284q97,0 154,32t81.5,91.5T544,349q0,83-24.5,143T438,584T284,616H173V84Z" />
      <glyph unicode="E" glyph-name="gid15" horiz-adv-x="571" d="M73,0V700H515V618H173V394H485V314H173V82H515V0H73Z" />
      <glyph unicode="F" glyph-name="gid20" horiz-adv-x="542" d="M73,0V700H508V618H173V391H453V311H173V0H73Z" />
      <glyph unicode="G" glyph-name="gid21" horiz-adv-x="764" d="M376-12q-99,0-173,45T88,159T47,348q0,107 41.5,189t119,128.5T391,712q119,0 199-57.5T693,495H579q-15,58-63,91.5T390,620q-74,0-128.5-33T178,493T149,348q0-85 29-146t82-93T382,77q106,0 159.5,61T604,301H411v77H705V0H614l-9,107q-24-39-55.5-65.5T476,1.5T376-12Z" />
      <glyph unicode="H" glyph-name="gid22" horiz-adv-x="691" d="M518,0V700H618V0H518ZM73,0V700H173V0H73Zm83,316v82H540V316H156Z" />
      <glyph unicode="I" glyph-name="gid23" horiz-adv-x="246" d="M73,0V700H173V0H73Z" />
      <glyph unicode="J" glyph-name="gid28" horiz-adv-x="514" d="M239-12q-65,0-112,24.5T54,84T28,196H129q0-34 11-61t34.5-42.5T237,77t61.5,15T331,132.5T341,191V700H441V191q0-97-54-150T239-12Z" />
      <glyph unicode="K" glyph-name="gid29" horiz-adv-x="606" d="M73,0V700H173V396L453,700H578L318,422L583,0H461L247,344l-74-79V0H73Z" />
      <glyph unicode="L" glyph-name="gid30" horiz-adv-x="537" d="M73,0V700H173V79H493V0H73Z" />
      <glyph unicode="M" glyph-name="gid32" horiz-adv-x="855" d="M73,0V700H191L428,227L664,700H783V0H683V525L466,98H389L173,524V0H73Z" />
      <glyph unicode="N" glyph-name="gid33" horiz-adv-x="703" d="M73,0V700H173L530,163V700H630V0H530L173,536V0H73Z" />
      <glyph unicode="O" glyph-name="gid35" horiz-adv-x="777" d="M388-12Q287-12 210.5,33.5t-120,127T47,350q0,107 43.5,188.5T210.5,666T388,712q103,0 180-46T687.5,538.5T730,350q0-108-42.5-189.5T568,33.5T388-12Zm1,89q72,0 126,33t83.5,94T628,350T598.5,496T515,589.5T389,622T263,589.5T179,496T149,350t30-146t84-94T389,77Z" />
      <glyph unicode="P" glyph-name="gid43" horiz-adv-x="591" d="M73,0V700H312q84,0 138-28t80-75t26-107q0-57-25.5-104.5t-79.5-76T312,281H173V0H73ZM173,364H308q79,0 112.5,34.5T454,490q0,61-33.5,94T308,617H173V364Z" />
      <glyph unicode="Q" glyph-name="gid45" horiz-adv-x="777" d="M568-100L327,279H442L685-100H568ZM388-12Q287-12 210.5,33.5t-120,127T47,350q0,107 43.5,188.5T210.5,666T388,712q103,0 180-46T687.5,538.5T730,350q0-108-42.5-189.5T568,33.5T388-12Zm1,89q72,0 126,33t83.5,94T628,350T598.5,496T515,589.5T389,622T263,589.5T179,496T149,350t30-146t84-94T389,77Z" />
      <glyph unicode="R" glyph-name="gid46" horiz-adv-x="606" d="M73,0V700H310q83,0 136-28t78.5-74.5T550,492q0-56-25.5-103.5t-79.5-76T307,284H173V0H73ZM441,0L290,311H400L557,0H441ZM173,360H303q74,0 109,36.5T447,490q0,58-34,92T303,616H173V360Z" />
      <glyph unicode="S" glyph-name="gid47" horiz-adv-x="587" d="M302-12q-77,0-135,27.5T77,93T45,210H150q1-38 18.5-69.5t51-50T302,72q42,0 72.5,14T421,124.5T437,181q0,37-17,61t-45.5,39.5t-66,27.5T230,335q-83,27-123.5,70T66,517q0,59 28,102.5t78.5,68T292,712q68,0 119-25t80-69t29-103H414q0,27-14,53t-42,42.5T289,627q-34,1-61-11t-42-35t-15-55t13.5-51.5T224,441t60.5-25.5T361,390q52-17 92.5-41.5t64-63T541,187q0-52-27-97T434,16.5T302-12Z" />
      <glyph unicode="T" glyph-name="gid48" horiz-adv-x="572" d="M236,0V618H29v82H544V618H336V0H236Z" />
      <glyph unicode="U" glyph-name="gid49" horiz-adv-x="665" d="M331-12q-74,0-134,29.5t-95.5,90T66,262V700H166V261q0-63 21-103.5t58.5-60T333,78q51,0 88,19.5t57.5,60T499,261V700H599V262q0-94-36-154.5t-97-90T331-12Z" />
      <glyph unicode="V" glyph-name="gid54" horiz-adv-x="680" d="M280,0L20,700H128L340,104L554,700H660L400,0H280Z" />
      <glyph unicode="W" glyph-name="gid55" horiz-adv-x="984" d="M216,0L26,700H133L275,117L438,700H549L707,115L851,700H958L765,0H648L491,557L330,0H216Z" />
      <glyph unicode="X" glyph-name="gid56" horiz-adv-x="624" d="M37,0L253,354L36,700H150L316,434L473,700H585L370,350L588,0H474L306,270L150,0H37Z" />
      <glyph unicode="Y" glyph-name="gid57" horiz-adv-x="597" d="M249,0V260L18,700H131L312,332H287L467,700H579L349,260V0H249Z" />
      <glyph unicode="Z" glyph-name="gid59" horiz-adv-x="552" d="M46,0V78L387,615H50v85H503V622L161,85H506V0H46Z" />
      <glyph unicode="[" glyph-name="gid179" horiz-adv-x="333" d="M73-158V811H275V729H167V-75H275v-83H73Z" />
      <glyph unicode="\" glyph-name="gid170" horiz-adv-x="403" d="M375-101H277L27,769h98L375-101Z" />
      <glyph unicode="]" glyph-name="gid180" horiz-adv-x="333" d="M260-158H58v83H167V729H58v82H260V-158Z" />
      <glyph unicode="^" glyph-name="gid222" horiz-adv-x="639" d="M37,206L273,700h94L603,206H501L320,584L139,206H37Z" />
      <glyph unicode="_" glyph-name="gid174" horiz-adv-x="681" d="M74-132v95H607v-95H74Z" />
      <glyph unicode="`" glyph-name="gid263" horiz-adv-x="220" d="M210,547L0,661l13,82L220,616l-10-69Z" />
      <glyph unicode="a" glyph-name="gid60" horiz-adv-x="557" d="M235-12Q173-12 132,9T71,65.5T51,142q0,50 26,85.5T151,282t115,19H397q0,44-13,73t-38.5,43.5T281,432q-45,0-77-21.5T164,347H64q6,53 36.5,90.5t78.5,58T281,516q71,0 119-25t72.5-70.5T497,312V0H410l-8,85q-11-20-26-38T340.5,16t-47-20.5T235-12Zm19,81q32,0 58,13t44.5,35.5t28,51T395,227v3H276q-43,0-69.5-10.5T168,191t-12-42q0-25 11.5-42.5T201,79t53-10Z" />
      <glyph unicode="b" glyph-name="gid68" horiz-adv-x="635" d="M343-12q-41,0-74.5,11.5T210,31T168,77L158,0H68V720H168V425q24,38 67.5,64.5T343,516q72,0 127-34.5t85.5-94T586,251q0-75-30.5-135T470,22T343-12ZM327,75q46,0 81.5,22t56,62T485,252t-20.5,92.5t-56,62T327,429q-47,0-82.5-22.5t-55.5-62T169,252t20-93t55.5-62T327,75Z" />
      <glyph unicode="c" glyph-name="gid69" horiz-adv-x="583" d="M301-12q-73,0-130,33.5T81.5,114T49,251q0,79 32.5,138.5t89.5,93T301,516q92,0 154-48t79-130H430q-10,44-45.5,68T300,430q-40,0-74-20.5t-54.5-60T151,252q0-43 12-76.5T195.5,119T243,84.5T300,73q33,0 59.5,10.5t45,31.5T430,165H534Q517,85 455,36.5T301-12Z" />
      <glyph unicode="d" glyph-name="gid71" horiz-adv-x="636" d="M292-12q-72,0-127,34.5t-85.5,94T49,252q0,77 30.5,136t86,93.5T293,516q59,0 104-23.5T467,426V720H567V0H477L467,78q-15-23-39-43.5T370,1T292-12Zm16,87q47,0 83,22t55.5,62T466,252t-19.5,92.5t-55.5,62T308,429q-45,0-81-22.5t-56-62T151,252t20-93t56-62t81-22Z" />
      <glyph unicode="e" glyph-name="gid73" horiz-adv-x="579" d="M296-12q-72,0-128,33T80.5,113T49,250q0,80 31.5,139.5t87.5,93T298,516t127-33t82-87.5T536,275q0-10-0.5-21.5T534,228H122v71H436q-3,63-42,98.5T297,433q-41,0-75-18.5t-54.5-54T147,271V243q0-56 20.5-94.5t54.5-58T296,71q48,0 79,21t46,57H521q-13-46-44-82.5T400.5,9T296-12Z" />
      <glyph unicode="f" glyph-name="gid78" horiz-adv-x="350" d="M95,0V572q0,52 17.5,85T164,705t82,15h59V635H262q-36,0-51.5-14.5T195,570V0H95ZM21,419v85H316V419H21Z" />
      <glyph unicode="g" glyph-name="gid79" horiz-adv-x="570" d="M273-232q-69,0-122,17.5T69-161T40-73q0,27 12,54.5T91,34t73,45l56-45q-51-19-68.5-45.5T134-63q0-30 18-50t49.5-30T273-153q39,0 68,11t45,31t16,47q0,32-24,53.5T286,15q-57,4-96.5,11t-67,17t-46,22T45,90v23L145,216l81-28L117,87l21,45q11-7 21-13.5T186,107t46-9t76-8q68-5 109.5-24T478,15t19-76q0-43-23.5-82t-73-64T273-232Zm0,387q-64,0-108.5,24t-68,65T73,335q0,51 23.5,91.5t68.5,65T273,516t107.5-24.5t68-65T472,335q0-50-23.5-91t-68-65T273,155Zm0,80q49,0 78,25.5T380,335t-29,74.5T273,435t-79-25.5T164,335t30-74.5T273,235Zm82,190l-24,79H538V435L355,425Z" />
      <glyph unicode="h" glyph-name="gid80" horiz-adv-x="588" d="M68,0V720H168V422q25,44 69.5,69T336,516q60,0 103-24.5t66-73T528,297V0H429V286q0,71-30,107.5T310,430q-40,0-72-19t-51-55.5T168,267V0H68Z" />
      <glyph unicode="i" glyph-name="gid81" horiz-adv-x="250" d="M75,0V504H175V0H75Zm51,599q-29,0-47.5,18T60,663q0,27 18.5,44.5T126,725q28,0 47-17.5T192,663q0-28-19-46t-47-18Z" />
      <glyph unicode="j" glyph-name="gid88" horiz-adv-x="252" d="M-28-220v85H12q36,0 51,15T78-70V504H178V-72q0-52-17.5-85T109-205T27-220H-28ZM129,599q-29,0-47.5,18T63,663q0,27 18.5,44.5T129,725q28,0 46.5-17.5T194,663q0-28-18.5-46T129,599Z" />
      <glyph unicode="k" glyph-name="gid90" horiz-adv-x="527" d="M385,0L153,276L363,504H484L234,237v75L511,0H385ZM68,0V720H168V0H68Z" />
      <glyph unicode="l" glyph-name="gid91" horiz-adv-x="237" d="M68,0V720H168V0H68Z" />
      <glyph unicode="m" glyph-name="gid93" horiz-adv-x="907" d="M68,0V504h90l7-71q24,39 64,61t90,22q38,0 69-10.5T443,474t39-52q27,44 72.5,69T651,516q61,0 105-24.5t67-73T846,298V0H747V288q0,70-28.5,106T635,430q-37,0-66-19t-45.5-55T507,268V0H407V288q0,70-28.5,106T295,430q-35,0-64-19t-46-55t-17-88V0H68Z" />
      <glyph unicode="n" glyph-name="gid94" horiz-adv-x="587" d="M68,0V504h90l6-86q24,45 68,71.5T333,516q60,0 103-24t67-72.5T527,298V0H427V288q0,70-31,106t-90,36q-39,0-70-18.5T186.5,357T168,269V0H68Z" />
      <glyph unicode="o" glyph-name="gid96" horiz-adv-x="599" d="M298-12q-71,0-127.5,33t-89,92.5T49,251q0,80 33,139.5T172,483t128,33q72,0 128-33t88.5-92T549,252T516.5,113T427,21T298-12Zm0,86q41,0 74.5,20t54,59.5T447,252t-20,98.5T373.5,410T300,430t-74-20t-54.5-59.5T151,252t20.5-98.5t54-59.5T298,74Z" />
      <glyph unicode="p" glyph-name="gid104" horiz-adv-x="635" d="M68-220V504h90l10-78q16,23 40,43.5T265.5,503T344,516q72,0 126.5-35t85-94.5T586,251T555,115.5T469.5,22T343-12q-59,0-104,23.5T168,77V-220H68ZM327,75q46,0 81.5,22t56,62T485,252t-20.5,92.5t-56,62T327,429q-47,0-82.5-22.5t-55.5-62T169,252t20-93t55.5-62T327,75Z" />
      <glyph unicode="q" glyph-name="gid106" horiz-adv-x="636" d="M467-220V78q-24-38-67.5-64T293-12q-72,0-127.5,34.5t-86,94T49,252T80,387.5t86,94T293,516q41,0 74.5-11.5T426,473t41-47l10,78h90V-220H467ZM308,75q47,0 83,22t55.5,62T466,252t-19.5,92.5t-55.5,62T308,429q-45,0-81-22.5t-56-62T151,252t20-93t56-62t81-22Z" />
      <glyph unicode="r" glyph-name="gid107" horiz-adv-x="382" d="M68,0V504h90l9-95q17,34 44,57.5T274.5,503T358,516V410H322q-31,0-59-7.5T213.5,377T180,328t-12-77V0H68Z" />
      <glyph unicode="s" glyph-name="gid108" horiz-adv-x="511" d="M263-12Q199-12 151,9T75,68T41,157H143q5-24 19.5-44t40-32T263,69q33,0 54.5,9.5t31.5,26T359,140q0,28-13.5,42.5t-40,23T242,221q-35,6-67.5,16.5t-58,26.5T76,304.5T61,365q0,43 23,77.5t65.5,54T250,516q84,0 135-40t60-113H348q-4,34-30,52.5T249,434t-66-17t-23-45q0-18 13-32t38.5-23.5T274,299q53-10 95-25t67-44t25-83q1-47-23.5-83t-69-56T263-12Z" />
      <glyph unicode="t" glyph-name="gid110" horiz-adv-x="405" d="M276,0q-48,0-83,15T139,65t-19,95V419H33v85h87l12,126h88V504H363V419H220V159q0-43 18-58.5T300,85h58V0H276Z" />
      <glyph unicode="u" glyph-name="gid111" horiz-adv-x="587" d="M253-12q-59,0-102.5,24t-67,72T60,205V504H160V216q0-71 31-107t89-36q39,0 70.5,19T400,147t18,88V504H518V0H429l-7,86q-23-46-67-72T253-12Z" />
      <glyph unicode="v" glyph-name="gid116" horiz-adv-x="539" d="M211,0L22,504H127L270,96L414,504H517L329,0H211Z" />
      <glyph unicode="w" glyph-name="gid117" horiz-adv-x="781" d="M170,0L22,504h99L231,84l-19,1L334,504H446L568,85l-19-1L658,504H759L611,0H508L380,437h20L272,0H170Z" />
      <glyph unicode="x" glyph-name="gid118" horiz-adv-x="520" d="M20,0L194,252L20,504H128L260,308L393,504H500L326,252L500,0H393L260,197L128,0H20Z" />
      <glyph unicode="y" glyph-name="gid119" horiz-adv-x="571" d="M126-220L249,56H220L21,504H129L287,138L446,504H551L231-220H126Z" />
      <glyph unicode="z" glyph-name="gid122" horiz-adv-x="468" d="M35,0V81L306,420H39v84H420V422L148,83H425V0H35Z" />
      <glyph unicode="{" glyph-name="gid177" horiz-adv-x="441" d="M327-160q-71,0-115,39.5T168-4q0,34 5.5,61.5t11,57T190,180q0,25-9.5,46.5t-32,37T85,286v80q41,7 63.5,22.5t32,37T190,472q0,37-5.5,65.5t-11,56.5T168,655q0,79 44,117.5T327,811h58V726H346q-40,0-60.5-18T265,647q0-28 5.5-54.5t10-56T285,468q0-52-25.5-90T175,327v-2q59-12 84.5-50.5T285,183q0-38-4.5-67.5t-10-56T265,5q0-43 20.5-61.5T346-75h39v-85H327Z" />
      <glyph unicode="|" glyph-name="gid203" horiz-adv-x="246" d="M73-100V720H173V-100H73Z" />
      <glyph unicode="}" glyph-name="gid178" horiz-adv-x="441" d="M113-160H55v85H95q39,0 59.5,18.5T175,5q0,28-4.5,54.5t-10,56T155,183q0,53 26.5,91.5T265,325v2q-57,13-83.5,51T155,468q0,39 5.5,68.5t10,56T175,647q0,43-20.5,61T95,726H55v85h58q72,0 115.5-38.5T272,655q0-33-5-61t-10.5-56.5T251,472q0-25 9-46.5t32-37T355,366V286q-40-7-63-22.5t-32-37T251,180q0-36 5.5-65.5t10.5-57T272-4q0-77-43.5-116.5T113-160Z" />
      <glyph unicode="~" glyph-name="gid220" horiz-adv-x="559" d="M364,241q-29,0-52,10t-43,24t-39,24t-41,10q-27,0-43.5-18.5T124,242H49q8,54 28,88.5t50,51T194,398q30,0 53.5-10t43-23.5t39-23.5T370,331q27,0 44,18t20,48h76q-7-53-27-87.5T433,258t-69-17Z" />
      <glyph unicode="&#xa0;" glyph-name="gid154" horiz-adv-x="256" />
      <glyph unicode="&#xa1;" glyph-name="gid162" horiz-adv-x="268" d="M92,302h85l11-491H80L92,302Zm43,214q28,0 46.5-18.5T200,452t-18.5-45.5T135,388q-29,0-47.5,18.5T69,452t18.5,45.5T135,516Z" />
      <glyph unicode="&#xa2;" glyph-name="gid205" horiz-adv-x="583" d="M255-104V49h94V-104H255Zm0,559V608h94V455H255ZM301-12q-73,0-130,33.5T81.5,114T49,251q0,79 32.5,138.5t89.5,93T301,516q92,0 154-48t79-130H430q-10,44-45.5,68T300,430q-40,0-74-20.5t-54.5-60T151,252q0-43 12-76.5T195.5,119T243,84.5T300,73q33,0 59.5,10.5t45,31.5T430,165H534Q517,85 455,36.5T301-12Z" />
      <glyph unicode="&#xa3;" glyph-name="gid209" horiz-adv-x="609" d="M84,0V62q25,27 43.5,53.5t28.5,58T166,248q0,32-8.5,61.5t-20.5,59t-20.5,63T108,505q0,63 27.5,109.5t77,72T326,712q73,0 120.5-28.5t73-76T548,503H456q-2,54-35,90t-94,36q-33,0-61.5-13.5t-45.5-42T203,500q0-32 8.5-63t20-62t20-62t8.5-64q0-46-16.5-88T189,82H550V0H84ZM44,306v69H422V306H44Z" />
      <glyph unicode="&#xa4;" glyph-name="gid206" horiz-adv-x="541" d="M271,120q-53,0-93.5,21.5T114,203T91,297q0,55 23.5,94.5t64.5,61T272,474q51,0 92-21.5t64.5-61T452,297q0-54-24-94t-65-61.5T271,120ZM109,87L64,132l86,86l49-40L109,87Zm324,0l-83,84l45,43l82-82L433,87ZM271,192q22,0 43,10.5t35,34T363,297q0,38-14,61.5t-35,34T271,403q-23,0-44-10.5t-34-34T180,297q0-37 12.5-60.5t34-34T271,192ZM149,381L64,465l45,44l86-86l-46-42Zm239-6l-41,47l86,87l44-44l-89-90Z" />
      <glyph unicode="&#xa5;" glyph-name="gid210" horiz-adv-x="617" d="M59,164v71H559V164H59ZM276,322H59v70H268l8-70Zm84,0l8,70H559V322H360ZM259,0V260L28,700H141L322,332H297L477,700H589L359,260V0H259Z" />
      <glyph unicode="&#xa6;" glyph-name="gid204" horiz-adv-x="246" d="M73,389V720H173V389H73Zm0-489V231H173V-100H73Z" />
      <glyph unicode="&#xa7;" glyph-name="gid198" horiz-adv-x="596" d="M295-232q-68,0-119,25T96.5-137.5T66-35H172q0-27 14-53t42-42.5T297-147q52-1 85.5,26T416-46q0,32-14,51.5T362,38T301.5,62T225,87q-50,17-91.5,42t-65,63.5T45,290q0,37 14,71.5T101,424q-13,19-20,42t-7,51q0,59 28,102.5t79,68T300,712t119-25t80-69t29-103H423q-1,27-15,53t-41.5,42.5T297,627q-51,1-84.5-26T179,526q0-32 13.5-51.5T232,442t60.5-24T369,393q52-17 92.5-42T526,287.5T550,190q0-37-14-72T493,56q14-19 20.5-42T520-37q1-58-27-102t-79-68.5T295-232ZM418,115q13,14 20,31.5t7,37.5q0,36-15.5,59t-43,38t-63,27T247,335q-22,7-39,14.5T176,365q-13-13-19.5-30.5T150,296q0-28 9.5-48t28-34.5t43-25.5T285,167t63-22q20-6 37.5-14T418,115Z" />
      <glyph unicode="&#xa8;" glyph-name="gid262" horiz-adv-x="316" d="M243,569q-23,0-39,15.5T188,623q0,22 16,38t39,16q22,0 37.5-16T296,623q0-23-15.5-38.5T243,569ZM75,569q-23,0-38.5,15.5T21,623q0,22 15.5,38T75,677q22,0 38-16t16-38q0-23-16-38.5T75,569Z" />
      <glyph unicode="&#xa9;" glyph-name="gid199" horiz-adv-x="791" d="M396-5Q292-5 214,41T92.5,167T49,351T92.5,535T214,660t182,45q103,0 181-45T699,535t44-184T699,167T577,41T396-5Zm0,126q-60,0-109.5,27.5t-79,79T178,351q0,73 29.5,124.5t79,79T396,582q75,0 131-40t75-115H512q-13,41-44.5,62.5T394,511q-36,0-65.5-18t-47-53.5T264,351t17.5-89t47-53.5T394,191q44,0 74,21.5T512,274h90q-19-71-75-112T396,121Zm0-85q94,0 162,40T663,187t37,164q0,94-37,165T558,626.5T396,666T234,626.5T129,516T92,351q0-93 37-164T234,76T396,36Z" />
      <glyph unicode="&#xaa;" glyph-name="gid125" horiz-adv-x="487" d="M219,347q-48,0-86,23T73,434.5T51,529q0,55 22,95.5T132.5,687T217,709q49,0 82-20t49-50l7,65h71V353H355l-7,64q-15-31-48-50.5T219,347Zm20,62q31,0 55.5,14.5t39,41T348,528q0,57-31.5,88T239,647q-44,0-75.5-31T132,529q0-57 31.5-88.5T239,409Z" />
      <glyph unicode="&#xab;" glyph-name="gid187" horiz-adv-x="471" d="M325,120L230,295l95,175h96L324,295l97-175H325Zm-187,0L43,295l95,175h97L137,295l98-175H138Z" />
      <glyph unicode="&#xac;" glyph-name="gid221" horiz-adv-x="559" d="M469,215V355H-9v79H569V215H469Z" />
      <glyph unicode="&#xae;" glyph-name="gid200" horiz-adv-x="506" d="M254,302q-60,0-106,26.5t-72,73T50,507q0,60 26,106t72,72.5T254,712q59,0 104.5-26.5T430,613t26-106q0-59-26-105.5t-71.5-73T254,302Zm37,99l-60,98h56l65-98H291Zm-37-59q49,0 84.5,21t55,58.5T413,507t-19.5,85t-55,58.5T254,672t-85.5-21.5T112,592T92,507t20-85.5T168.5,363T254,342Zm-82,59V616h98q34,0 53.5-18T343,549q0-30-19.5-48T270,483H223V401H172Zm51,122h41q12,0 20,5.5t8,18.5t-8,18t-20,5H223V523Z" />
      <glyph unicode="&#xaf;" glyph-name="gid268" horiz-adv-x="387" d="M15,587v73H372V587H15Z" />
      <glyph unicode="&#xb0;" glyph-name="gid202" horiz-adv-x="349" d="M174,437q-37,0-67.5,17T57,502T38,574q0,43 19.5,73.5t50,47.5T175,712t67.5-17t49-47.5T310,574q0-41-18.5-72T242,454t-68-17Zm0,70q23,0 43.5,17T238,575t-20,51t-43,17t-43-17t-20-51t19.5-51T174,507Z" />
      <glyph unicode="&#xb1;" glyph-name="gid219" horiz-adv-x="559" d="M38,0V76H520V0H38ZM236,139V495h87V139H236ZM38,275v84H520V275H38Z" />
      <glyph unicode="&#xb2;" glyph-name="gid150" horiz-adv-x="340" d="M36,352v57l114,89q28,22 46.5,46T215,599q0,26-14,39.5T166,652q-24,0-37.5-14.5T111,597H33q3,48 38,81t101,33q40,0 68.5-15t43-39.5T298,603q0-40-25-70t-75-64l-77-55H301V352H36Z" />
      <glyph unicode="&#xb3;" glyph-name="gid151" horiz-adv-x="338" d="M166,347q-66,0-101.5,28.5T24,457h79q3-19 11-30.5t21-16t29-4.5q27,0 43,13t16,36q0,26-18,39t-45,13H116v44h42q27,0 44,13t17,38q0,23-15.5,36.5T162,652q-25,0-40-12t-20-32H28q3,28 19.5,51.5t47,37.5T169,711q57,0 95-29.5T302,608q0-31-17.5-50.5T237,530v-2q30-10 49.5-30T306,445q0-41-37.5-69.5T166,347Z" />
      <glyph unicode="&#xb4;" glyph-name="gid264" horiz-adv-x="220" d="M10,547L0,616L207,743l13-82L10,547Z" />
      <glyph unicode="&#xb5;" glyph-name="gid223" horiz-adv-x="597" d="M68-220V496H168V220q0-72 30.5-109.5T289,73q40,0 71.5,19.5t49.5,57T428,239V496H528V0H439l-7,86q-24-45-68.5-71.5T261-12q-26,0-50,6.5T168,14V-220H68Z" />
      <glyph unicode="&#xb6;" glyph-name="gid197" horiz-adv-x="608" d="M284-100V291H271q-81,0-133.5,27T60,391.5T35,495T60.5,598.5t78,74T271,700H535V-100H448V622H370V-100H284Z" />
      <glyph unicode="&#xb7;" glyph-name="gid165" horiz-adv-x="215" d="M108,273q-29,0-47.5,18.5T42,337q0,28 18.5,46T108,401t47-18t18-46q0-27-18-45.5T108,273Z" />
      <glyph unicode="&#xb8;" glyph-name="gid269" horiz-adv-x="240" d="M0-260v60H99q32,0 47.5,11T162-156q0,21-15.5,31T99-115H46V7h65V-58q36,1 65.5-10T223-101.5T240-158q0-32-16.5-55T179-248t-63-12H0Z" />
      <glyph unicode="&#xb9;" glyph-name="gid149" horiz-adv-x="214" d="M94,352V628L27,611v49l97,44h49V352H94Z" />
      <glyph unicode="&#xba;" glyph-name="gid126" horiz-adv-x="467" d="M233,348q-55,0-96.5,23T72,435T49,530q0,55 23.5,96T138,689.5T234,712t96-22.5T395,626t23-96q0-54-23.5-95T329,371t-96-23Zm0,63q29,0 52.5,14T323,465.5T337,530q0,40-14,66.5t-37.5,40T233,650t-52.5-13.5t-37-40T130,530q0-38 13.5-64.5t37-40.5T233,411Z" />
      <glyph unicode="&#xbb;" glyph-name="gid188" horiz-adv-x="471" d="M147,120H50l98,175L50,470h97l94-175L147,120Zm186,0H237l97,175L237,470h96l95-175L333,120Z" />
      <glyph unicode="&#xbc;" glyph-name="gid147" horiz-adv-x="747" d="M94,352V628L27,611v49l97,44h49V352H94ZM96,0L499,700H599L195,0H96ZM609,0V64H440v56L601,348h85V123h43V64H686V0H609ZM520,123h95V264L520,123Z" />
      <glyph unicode="&#xbd;" glyph-name="gid146" horiz-adv-x="785" d="M94,352V628L27,611v49l97,44h49V352H94ZM96,0L499,700H599L195,0H96ZM482,0V57l114,89q28,22 46.5,46T661,247q0,26-14,39.5T612,300q-24,0-37.5-14.5T557,245H479q3,48 38,81t101,33q40,0 68.5-15t43-39.5T744,251q0-40-25-70t-75-64L567,62H747V0H482Z" />
      <glyph unicode="&#xbe;" glyph-name="gid148" horiz-adv-x="847" d="M166,347q-66,0-101.5,28.5T24,457h79q3-19 11-30.5t21-16t29-4.5q27,0 43,13t16,36q0,26-18,39t-45,13H116v44h42q27,0 44,13t17,38q0,23-15.5,36.5T162,652q-25,0-40-12t-20-32H28q3,28 19.5,51.5t47,37.5T169,711q57,0 95-29.5T302,608q0-31-17.5-50.5T237,530v-2q30-10 49.5-30T306,445q0-41-37.5-69.5T166,347ZM196,0L599,700H699L295,0H196ZM709,0V64H540v56L701,348h85V123h43V64H786V0H709ZM620,123h95V264L620,123Z" />
      <glyph unicode="&#xbf;" glyph-name="gid164" horiz-adv-x="528" d="M375,301l4-157H343q-41,0-77.5-5.5t-64.5-20T156.5,77T140,5q0-37 16.5-65T202-103t67-15q40,0 69,15t45,41.5T399,1h95q1-60-27.5-105.5t-79-71T269-201q-66,0-117,24.5t-79.5,71T44,5q0,73 30.5,118.5t85.5,67T285,212l2,89h88ZM332,516q28,0 46.5-18.5T397,452t-18.5-45.5T332,388q-29,0-47.5,18.5T266,452t18.5,45.5T332,516Z" />
      <glyph unicode="&#xc0;" glyph-name="gid6" horiz-adv-x="678" d="M28,0L285,700H394L651,0H544L339,580L133,0H28ZM144,173l28,80H501l28-80H144ZM440,743L230,858l13,81L450,813l-10-70Z" />
      <glyph unicode="&#xc1;" glyph-name="gid2" horiz-adv-x="678" d="M28,0L285,700H394L651,0H544L339,580L133,0H28ZM144,173l28,80H501l28-80H144Zm96,570l-10,70L437,939l13-81L240,743Z" />
      <glyph unicode="&#xc2;" glyph-name="gid4" horiz-adv-x="678" d="M28,0L285,700H394L651,0H544L339,580L133,0H28ZM144,173l28,80H501l28-80H144Zm56,579v75l140,81l141-81V752L340,836L200,752Z" />
      <glyph unicode="&#xc3;" glyph-name="gid8" horiz-adv-x="678" d="M28,0L285,700H394L651,0H544L339,580L133,0H28ZM144,173l28,80H501l28-80H144ZM404,754q-27,0-46,12t-35,23.5T286,801q-16,0-27.5-11T244,756H188q8,55 35.5,82.5T291,866q27,0 45.5-11.5t35-23.5T409,819q17,0 28.5,11.5T452,864h56q-7-55-35-82.5T404,754Z" />
      <glyph unicode="&#xc4;" glyph-name="gid5" horiz-adv-x="678" d="M28,0L285,700H394L651,0H544L339,580L133,0H28ZM144,173l28,80H501l28-80H144ZM257,773q-23,0-38.5,15.5T203,827q0,22 15.5,38T257,881q22,0 38.5-16T312,827q0-23-16.5-38.5T257,773Zm168,0q-23,0-39,15.5T370,827q0,22 16,38t39,16q22,0 37.5-16T478,827q0-23-15.5-38.5T425,773Z" />
      <glyph unicode="&#xc5;" glyph-name="gid7" horiz-adv-x="678" d="M28,0L285,700H394L651,0H544L339,580L133,0H28ZM144,173l28,80H501l28-80H144ZM340,757q-44,0-76,28.5T232,864q0,49 32,77.5T340,970q45,0 76.5-28.5T448,864q0-50-31.5-78.5T340,757Zm0,49q23,0 39,16t16,42q0,27-16,42t-39,15q-22,0-38.5-15T285,864q0-26 16.5-42T340,806Z" />
      <glyph unicode="&#xc6;" glyph-name="gid9" horiz-adv-x="922" d="M28,0L419,700H866V620H583V393H836V315H583V80H866V0H483V620L137,0H28ZM166,151l42,79H530V151H166Z" />
      <glyph unicode="&#xc7;" glyph-name="gid12" horiz-adv-x="724" d="M380-12Q277-12 202.5,33.5t-115,127T47,350q0,107 40.5,189t115,127.5T380,712q123,0 199.5-59T677,487H567q-15,62-61.5,99T380,623q-71,0-123-33t-80-94T149,350t28-146.5t80-94T380,77q79,0 125.5,35.5T567,209H677Q656,105 579.5,46.5T380-12ZM288-262v60h99q32,0 47.5,11T450-158q0,21-15.5,31T387-117H334V5h65V-60q36,1 65.5-10T511-103.5T528-160q0-32-16.5-55T467-250t-63-12H288Z" />
      <glyph unicode="&#xc8;" glyph-name="gid19" horiz-adv-x="571" d="M73,0V700H515V618H173V394H485V314H173V82H515V0H73ZM394,743L184,858l13,81L404,813l-10-70Z" />
      <glyph unicode="&#xc9;" glyph-name="gid16" horiz-adv-x="571" d="M73,0V700H515V618H173V394H485V314H173V82H515V0H73ZM194,743l-10,70L391,939l13-81L194,743Z" />
      <glyph unicode="&#xca;" glyph-name="gid17" horiz-adv-x="571" d="M73,0V700H515V618H173V394H485V314H173V82H515V0H73Zm81,752v75l140,81l141-81V752L294,836L154,752Z" />
      <glyph unicode="&#xcb;" glyph-name="gid18" horiz-adv-x="571" d="M73,0V700H515V618H173V394H485V314H173V82H515V0H73ZM211,773q-23,0-38.5,15.5T157,827q0,22 15.5,38T211,881q22,0 38.5-16T266,827q0-23-16.5-38.5T211,773Zm168,0q-23,0-39,15.5T324,827q0,22 16,38t39,16q22,0 37.5-16T432,827q0-23-15.5-38.5T379,773Z" />
      <glyph unicode="&#xcc;" glyph-name="gid27" horiz-adv-x="246" d="M73,0V700H173V0H73ZM223,743L13,858l13,81L233,813l-10-70Z" />
      <glyph unicode="&#xcd;" glyph-name="gid24" horiz-adv-x="246" d="M73,0V700H173V0H73ZM23,743L13,813L220,939l13-81L23,743Z" />
      <glyph unicode="&#xce;" glyph-name="gid25" horiz-adv-x="246" d="M73,0V700H173V0H73ZM-17,752v75l140,81l141-81V752L123,836L-17,752Z" />
      <glyph unicode="&#xcf;" glyph-name="gid26" horiz-adv-x="246" d="M73,0V700H173V0H73ZM40,773q-23,0-38.5,15.5T-14,827q0,22 15.5,38T40,881q22,0 38.5-16T95,827q0-23-16.5-38.5T40,773Zm168,0q-23,0-39,15.5T153,827q0,22 16,38t39,16q22,0 37.5-16T261,827q0-23-15.5-38.5T208,773Z" />
      <glyph unicode="&#xd0;" glyph-name="gid14" horiz-adv-x="712" d="M7,305v88H383V305H7ZM91,0V700H306q123,0 202.5-43t118-121.5T665,349T626.5,163T508.5,42.5T306,0H91ZM191,84H302q97,0 154,32t81.5,91.5T562,349q0,83-24.5,143T456,584T302,616H191V84Z" />
      <glyph unicode="&#xd1;" glyph-name="gid34" horiz-adv-x="703" d="M73,0V700H173L530,163V700H630V0H530L173,536V0H73ZM416,754q-27,0-46,12t-35,23.5T298,801q-16,0-27.5-11T256,756H200q8,55 35.5,82.5T303,866q27,0 45.5-11.5t35-23.5T421,819q17,0 28.5,11.5T464,864h56q-7-55-35-82.5T416,754Z" />
      <glyph unicode="&#xd2;" glyph-name="gid39" horiz-adv-x="777" d="M388-12Q287-12 210.5,33.5t-120,127T47,350q0,107 43.5,188.5T210.5,666T388,712q103,0 180-46T687.5,538.5T730,350q0-108-42.5-189.5T568,33.5T388-12Zm1,89q72,0 126,33t83.5,94T628,350T598.5,496T515,589.5T389,622T263,589.5T179,496T149,350t30-146t84-94T389,77ZM489,743L279,858l13,81L499,813l-10-70Z" />
      <glyph unicode="&#xd3;" glyph-name="gid36" horiz-adv-x="777" d="M388-12Q287-12 210.5,33.5t-120,127T47,350q0,107 43.5,188.5T210.5,666T388,712q103,0 180-46T687.5,538.5T730,350q0-108-42.5-189.5T568,33.5T388-12Zm1,89q72,0 126,33t83.5,94T628,350T598.5,496T515,589.5T389,622T263,589.5T179,496T149,350t30-146t84-94T389,77ZM289,743l-10,70L486,939l13-81L289,743Z" />
      <glyph unicode="&#xd4;" glyph-name="gid37" horiz-adv-x="777" d="M388-12Q287-12 210.5,33.5t-120,127T47,350q0,107 43.5,188.5T210.5,666T388,712q103,0 180-46T687.5,538.5T730,350q0-108-42.5-189.5T568,33.5T388-12Zm1,89q72,0 126,33t83.5,94T628,350T598.5,496T515,589.5T389,622T263,589.5T179,496T149,350t30-146t84-94T389,77ZM249,752v75l140,81l141-81V752L389,836L249,752Z" />
      <glyph unicode="&#xd5;" glyph-name="gid41" horiz-adv-x="777" d="M388-12Q287-12 210.5,33.5t-120,127T47,350q0,107 43.5,188.5T210.5,666T388,712q103,0 180-46T687.5,538.5T730,350q0-108-42.5-189.5T568,33.5T388-12Zm1,89q72,0 126,33t83.5,94T628,350T598.5,496T515,589.5T389,622T263,589.5T179,496T149,350t30-146t84-94T389,77Zm64,677q-27,0-46,12t-35,23.5T335,801q-16,0-27.5-11T293,756H237q8,55 35.5,82.5T340,866q27,0 45.5-11.5t35-23.5T458,819q17,0 28.5,11.5T501,864h56q-7-55-35-82.5T453,754Z" />
      <glyph unicode="&#xd6;" glyph-name="gid38" horiz-adv-x="777" d="M388-12Q287-12 210.5,33.5t-120,127T47,350q0,107 43.5,188.5T210.5,666T388,712q103,0 180-46T687.5,538.5T730,350q0-108-42.5-189.5T568,33.5T388-12Zm1,89q72,0 126,33t83.5,94T628,350T598.5,496T515,589.5T389,622T263,589.5T179,496T149,350t30-146t84-94T389,77ZM306,773q-23,0-38.5,15.5T252,827q0,22 15.5,38T306,881q22,0 38.5-16T361,827q0-23-16.5-38.5T306,773Zm168,0q-23,0-39,15.5T419,827q0,22 16,38t39,16q22,0 37.5-16T527,827q0-23-15.5-38.5T474,773Z" />
      <glyph unicode="&#xd7;" glyph-name="gid214" horiz-adv-x="559" d="M148,100L89,159L220,291L93,417l60,59L280,350L410,481l59-59L339,291L465,164l-60-59L279,231L148,100Z" />
      <glyph unicode="&#xd8;" glyph-name="gid40" horiz-adv-x="777" d="M32,0L644,700H745L133,0H32ZM388-12Q287-12 210,33.5T90,160.5T47,350q0,107 43,188.5T210,666t178,46q103,0 180-46T687.5,538.5T730,350q0-108-42.5-189.5T568,33.5T388-12Zm1,89q72,0 126,33t83.5,94T628,350T598.5,496T515,589.5T389,622T263,589.5T179,496T149,350t30-146t84-94T389,77Z" />
      <glyph unicode="&#xd9;" glyph-name="gid53" horiz-adv-x="665" d="M331-12q-74,0-134,29.5t-95.5,90T66,262V700H166V261q0-63 21-103.5t58.5-60T333,78q51,0 88,19.5t57.5,60T499,261V700H599V262q0-94-36-154.5t-97-90T331-12ZM431,743L221,858l13,81L441,813l-10-70Z" />
      <glyph unicode="&#xda;" glyph-name="gid50" horiz-adv-x="665" d="M331-12q-74,0-134,29.5t-95.5,90T66,262V700H166V261q0-63 21-103.5t58.5-60T333,78q51,0 88,19.5t57.5,60T499,261V700H599V262q0-94-36-154.5t-97-90T331-12ZM231,743l-10,70L428,939l13-81L231,743Z" />
      <glyph unicode="&#xdb;" glyph-name="gid51" horiz-adv-x="665" d="M331-12q-74,0-134,29.5t-95.5,90T66,262V700H166V261q0-63 21-103.5t58.5-60T333,78q51,0 88,19.5t57.5,60T499,261V700H599V262q0-94-36-154.5t-97-90T331-12ZM191,752v75l140,81l141-81V752L331,836L191,752Z" />
      <glyph unicode="&#xdc;" glyph-name="gid52" horiz-adv-x="665" d="M331-12q-74,0-134,29.5t-95.5,90T66,262V700H166V261q0-63 21-103.5t58.5-60T333,78q51,0 88,19.5t57.5,60T499,261V700H599V262q0-94-36-154.5t-97-90T331-12ZM248,773q-23,0-38.5,15.5T194,827q0,22 15.5,38T248,881q22,0 38.5-16T303,827q0-23-16.5-38.5T248,773Zm168,0q-23,0-39,15.5T361,827q0,22 16,38t39,16q22,0 37.5-16T469,827q0-23-15.5-38.5T416,773Z" />
      <glyph unicode="&#xdd;" glyph-name="gid58" horiz-adv-x="597" d="M249,0V260L18,700H131L312,332H287L467,700H579L349,260V0H249ZM199,743l-10,70L396,939l13-81L199,743Z" />
      <glyph unicode="&#xde;" glyph-name="gid44" horiz-adv-x="591" d="M73,0V700H173V558H313q83,0 137-27t80-74t26-107q0-57-25.5-104t-79-75T313,143H173V0H73ZM173,225H309q77,0 111,34t34,91q0,60-34,92.5T309,475H173V225Z" />
      <glyph unicode="&#xdf;" glyph-name="gid109" horiz-adv-x="676" d="M448-10q-87,0-142,48T242,171h96q5-47 33-75.5T447,67q44,0 68.5,21T540,147q0,35-21.5,56T442,243q-79,27-114,56t-35,74q0,30 14,49t34.5,33T382,482.5T416,513t14,42q0,43-33.5,68T305,648q-70,0-103-38.5T169,506V0H70V515q0,63 27.5,112T178,704t130,28q72,0 121-22.5T503.5,649T529,565q0-34-13-57t-33.5-38.5t-41-27t-34-24.5T394,387q0-13 9-25t32.5-23.5T502,312q74-25 106-63t32-95q0-49-23.5-86t-66-57.5T448-10Z" />
      <glyph unicode="&#xe0;" glyph-name="gid64" horiz-adv-x="557" d="M235-12Q173-12 132,9T71,65.5T51,142q0,50 26,85.5T151,282t115,19H397q0,44-13,73t-38.5,43.5T281,432q-45,0-77-21.5T164,347H64q6,53 36.5,90.5t78.5,58T281,516q71,0 119-25t72.5-70.5T497,312V0H410l-8,85q-11-20-26-38T340.5,16t-47-20.5T235-12Zm19,81q32,0 58,13t44.5,35.5t28,51T395,227v3H276q-43,0-69.5-10.5T168,191t-12-42q0-25 11.5-42.5T201,79t53-10ZM375,547L165,661l13,82L385,616l-10-69Z" />
      <glyph unicode="&#xe1;" glyph-name="gid61" horiz-adv-x="557" d="M235-12Q173-12 132,9T71,65.5T51,142q0,50 26,85.5T151,282t115,19H397q0,44-13,73t-38.5,43.5T281,432q-45,0-77-21.5T164,347H64q6,53 36.5,90.5t78.5,58T281,516q71,0 119-25t72.5-70.5T497,312V0H410l-8,85q-11-20-26-38T340.5,16t-47-20.5T235-12Zm19,81q32,0 58,13t44.5,35.5t28,51T395,227v3H276q-43,0-69.5-10.5T168,191t-12-42q0-25 11.5-42.5T201,79t53-10ZM175,547l-10,69L372,743l13-82L175,547Z" />
      <glyph unicode="&#xe2;" glyph-name="gid62" horiz-adv-x="557" d="M235-12Q173-12 132,9T71,65.5T51,142q0,50 26,85.5T151,282t115,19H397q0,44-13,73t-38.5,43.5T281,432q-45,0-77-21.5T164,347H64q6,53 36.5,90.5t78.5,58T281,516q71,0 119-25t72.5-70.5T497,312V0H410l-8,85q-11-20-26-38T340.5,16t-47-20.5T235-12Zm19,81q32,0 58,13t44.5,35.5t28,51T395,227v3H276q-43,0-69.5-10.5T168,191t-12-42q0-25 11.5-42.5T201,79t53-10ZM135,550v75l140,81l141-81V550L275,633L135,550Z" />
      <glyph unicode="&#xe3;" glyph-name="gid66" horiz-adv-x="557" d="M235-12Q173-12 132,9T71,65.5T51,142q0,50 26,85.5T151,282t115,19H397q0,44-13,73t-38.5,43.5T281,432q-45,0-77-21.5T164,347H64q6,53 36.5,90.5t78.5,58T281,516q71,0 119-25t72.5-70.5T497,312V0H410l-8,85q-11-20-26-38T340.5,16t-47-20.5T235-12Zm19,81q32,0 58,13t44.5,35.5t28,51T395,227v3H276q-43,0-69.5-10.5T168,191t-12-42q0-25 11.5-42.5T201,79t53-10Zm77,501q-27,0-46,11.5t-35,23T213,616q-16,0-27.5-11T171,571H115q8,55 35.5,82.5T218,681q27,0 45.5-11.5t35-23.5T336,634q17,0 28.5,11.5T379,679h56q-7-54-35-81.5T331,570Z" />
      <glyph unicode="&#xe4;" glyph-name="gid63" horiz-adv-x="557" d="M235-12Q173-12 132,9T71,65.5T51,142q0,50 26,85.5T151,282t115,19H397q0,44-13,73t-38.5,43.5T281,432q-45,0-77-21.5T164,347H64q6,53 36.5,90.5t78.5,58T281,516q71,0 119-25t72.5-70.5T497,312V0H410l-8,85q-11-20-26-38T340.5,16t-47-20.5T235-12Zm19,81q32,0 58,13t44.5,35.5t28,51T395,227v3H276q-43,0-69.5-10.5T168,191t-12-42q0-25 11.5-42.5T201,79t53-10ZM192,570q-23,0-38.5,15.5T138,624q0,22 15.5,38T192,678q22,0 38.5-16T247,624q0-23-16.5-38.5T192,570Zm168,0q-23,0-39,15.5T305,624q0,22 16,38t39,16q22,0 37.5-16T413,624q0-23-15.5-38.5T360,570Z" />
      <glyph unicode="&#xe5;" glyph-name="gid65" horiz-adv-x="557" d="M235-12Q173-12 132,9T71,65.5T51,142q0,50 26,85.5T151,282t115,19H397q0,44-13,73t-38.5,43.5T281,432q-45,0-77-21.5T164,347H64q6,53 36.5,90.5t78.5,58T281,516q71,0 119-25t72.5-70.5T497,312V0H410l-8,85q-11-20-26-38T340.5,16t-47-20.5T235-12Zm19,81q32,0 58,13t44.5,35.5t28,51T395,227v3H276q-43,0-69.5-10.5T168,191t-12-42q0-25 11.5-42.5T201,79t53-10Zm21,501q-44,0-76,28t-32,78q0,49 32,77.5T275,782q45,0 76.5-28.5T383,676q0-50-31.5-78T275,570Zm0,48q23,0 39,16t16,42q0,27-16,42t-39,15q-22,0-38.5-15T220,676q0-26 16.5-42T275,618Z" />
      <glyph unicode="&#xe6;" glyph-name="gid67" horiz-adv-x="924" d="M239-12Q177-12 135,9T72,65.5T51,143q0,49 25.5,84.5t72.5,54T263,300H397q0,45-12.5,74t-38,43.5T284,432q-42,0-73.5-21.5T171,347H71q5,54 35.5,91.5t77,57.5T284,516q63,0 108-22t70-62q33,40 80,62t103,22q73,0 125.5-33t81-87T880,276q0-10 0-21.5T878,230H499q2-53 22.5-88t53-53T643,71q51,0 82.5,24T772,160h98q-12-49-43-88T750,10.5T644-12q-66,0-119,30t-85,82q-20-32-49-57.5t-66.5-40T239-12Zm12,81q40,0 70.5,20.5t50,54.5T395,218v12H274q-42,0-68-10t-38-28t-12-42t11.5-42t33-28.5T251,69ZM500,300H781q-4,63-42.5,98T645,433q-35,0-66.5-15.5T526,373t-26-73Z" />
      <glyph unicode="&#xe7;" glyph-name="gid70" horiz-adv-x="583" d="M301-12q-73,0-130,33.5T81.5,114T49,251q0,79 32.5,138.5t89.5,93T301,516q92,0 154-48t79-130H430q-10,44-45.5,68T300,430q-40,0-74-20.5t-54.5-60T151,252q0-43 12-76.5T195.5,119T243,84.5T300,73q33,0 59.5,10.5t45,31.5T430,165H534Q517,85 455,36.5T301-12ZM218-262v60h99q32,0 47.5,11T380-158q0,21-15.5,31T317-117H264V5h65V-60q36,1 65.5-10T441-103.5T458-160q0-32-16.5-55T397-250t-63-12H218Z" />
      <glyph unicode="&#xe8;" glyph-name="gid77" horiz-adv-x="579" d="M296-12q-72,0-128,33T80.5,113T49,250q0,80 31.5,139.5t87.5,93T298,516t127-33t82-87.5T536,275q0-10-0.5-21.5T534,228H122v71H436q-3,63-42,98.5T297,433q-41,0-75-18.5t-54.5-54T147,271V243q0-56 20.5-94.5t54.5-58T296,71q48,0 79,21t46,57H521q-13-46-44-82.5T400.5,9T296-12Zm98,559L184,661l13,82L404,616l-10-69Z" />
      <glyph unicode="&#xe9;" glyph-name="gid74" horiz-adv-x="579" d="M296-12q-72,0-128,33T80.5,113T49,250q0,80 31.5,139.5t87.5,93T298,516t127-33t82-87.5T536,275q0-10-0.5-21.5T534,228H122v71H436q-3,63-42,98.5T297,433q-41,0-75-18.5t-54.5-54T147,271V243q0-56 20.5-94.5t54.5-58T296,71q48,0 79,21t46,57H521q-13-46-44-82.5T400.5,9T296-12ZM194,547l-10,69L391,743l13-82L194,547Z" />
      <glyph unicode="&#xea;" glyph-name="gid75" horiz-adv-x="579" d="M296-12q-72,0-128,33T80.5,113T49,250q0,80 31.5,139.5t87.5,93T298,516t127-33t82-87.5T536,275q0-10-0.5-21.5T534,228H122v71H436q-3,63-42,98.5T297,433q-41,0-75-18.5t-54.5-54T147,271V243q0-56 20.5-94.5t54.5-58T296,71q48,0 79,21t46,57H521q-13-46-44-82.5T400.5,9T296-12ZM154,550v75l140,81l141-81V550L294,633L154,550Z" />
      <glyph unicode="&#xeb;" glyph-name="gid76" horiz-adv-x="579" d="M296-12q-72,0-128,33T80.5,113T49,250q0,80 31.5,139.5t87.5,93T298,516t127-33t82-87.5T536,275q0-10-0.5-21.5T534,228H122v71H436q-3,63-42,98.5T297,433q-41,0-75-18.5t-54.5-54T147,271V243q0-56 20.5-94.5t54.5-58T296,71q48,0 79,21t46,57H521q-13-46-44-82.5T400.5,9T296-12ZM211,570q-23,0-38.5,15.5T157,624q0,22 15.5,38T211,678q22,0 38.5-16T266,624q0-23-16.5-38.5T211,570Zm168,0q-23,0-39,15.5T324,624q0,22 16,38t39,16q22,0 37.5-16T432,624q0-23-15.5-38.5T379,570Z" />
      <glyph unicode="&#xec;" glyph-name="gid87" horiz-adv-x="237" d="M68,0V504H168V0H68ZM218,547L8,661l13,82L228,616l-10-69Z" />
      <glyph unicode="&#xed;" glyph-name="gid83" horiz-adv-x="237" d="M68,0V504H168V0H68ZM18,547L8,616L215,743l13-82L18,547Z" />
      <glyph unicode="&#xee;" glyph-name="gid84" horiz-adv-x="237" d="M68,0V504H168V0H68ZM-22,550v75l140,81l141-81V550L118,633L-22,550Z" />
      <glyph unicode="&#xef;" glyph-name="gid85" horiz-adv-x="237" d="M68,0V504H168V0H68ZM35,570q-23,0-38.5,15.5T-19,624q0,22 15.5,38T35,678q22,0 38.5-16T90,624q0-23-16.5-38.5T35,570Zm168,0q-23,0-39,15.5T148,624q0,22 16,38t39,16q22,0 37.5-16T256,624q0-23-15.5-38.5T203,570Z" />
      <glyph unicode="&#xf0;" glyph-name="gid72" horiz-adv-x="625" d="M310-12q-76,0-135,34.5T82.5,116T49,250q0,76 33.5,134.5T174,476t131,33q44,0 84-13.5T460,451q-13,33-31,65.5t-41.5,64t-52,61.5T273,700h97q56-46 95-98.5T528.5,494t36-110T576,275q0-86-35-151T446,23.5T310-12Zm2,85q44,0 81,21t59,61t22,95t-22,94t-58.5,60T313,425t-81-21.5t-59-60T151,250t22.5-95t59-61T312,73ZM247,546v64l289,98V644L247,546Z" />
      <glyph unicode="&#xf1;" glyph-name="gid95" horiz-adv-x="587" d="M68,0V504h90l6-86q24,45 68,71.5T333,516q60,0 103-24t67-72.5T527,298V0H427V288q0,70-31,106t-90,36q-39,0-70-18.5T186.5,357T168,269V0H68ZM368,570q-27,0-46,11.5t-35,23T250,616q-16,0-27.5-11T208,571H152q8,55 35.5,82.5T255,681q27,0 45.5-11.5t35-23.5T373,634q17,0 28.5,11.5T416,679h56q-7-54-35-81.5T368,570Z" />
      <glyph unicode="&#xf2;" glyph-name="gid100" horiz-adv-x="599" d="M298-12q-71,0-127.5,33t-89,92.5T49,251q0,80 33,139.5T172,483t128,33q72,0 128-33t88.5-92T549,252T516.5,113T427,21T298-12Zm0,86q41,0 74.5,20t54,59.5T447,252t-20,98.5T373.5,410T300,430t-74-20t-54.5-59.5T151,252t20.5-98.5t54-59.5T298,74ZM400,547L190,661l13,82L410,616l-10-69Z" />
      <glyph unicode="&#xf3;" glyph-name="gid97" horiz-adv-x="599" d="M298-12q-71,0-127.5,33t-89,92.5T49,251q0,80 33,139.5T172,483t128,33q72,0 128-33t88.5-92T549,252T516.5,113T427,21T298-12Zm0,86q41,0 74.5,20t54,59.5T447,252t-20,98.5T373.5,410T300,430t-74-20t-54.5-59.5T151,252t20.5-98.5t54-59.5T298,74ZM200,547l-10,69L397,743l13-82L200,547Z" />
      <glyph unicode="&#xf4;" glyph-name="gid98" horiz-adv-x="599" d="M298-12q-71,0-127.5,33t-89,92.5T49,251q0,80 33,139.5T172,483t128,33q72,0 128-33t88.5-92T549,252T516.5,113T427,21T298-12Zm0,86q41,0 74.5,20t54,59.5T447,252t-20,98.5T373.5,410T300,430t-74-20t-54.5-59.5T151,252t20.5-98.5t54-59.5T298,74ZM160,550v75l140,81l141-81V550L300,633L160,550Z" />
      <glyph unicode="&#xf5;" glyph-name="gid102" horiz-adv-x="599" d="M298-12q-71,0-127.5,33t-89,92.5T49,251q0,80 33,139.5T172,483t128,33q72,0 128-33t88.5-92T549,252T516.5,113T427,21T298-12Zm0,86q41,0 74.5,20t54,59.5T447,252t-20,98.5T373.5,410T300,430t-74-20t-54.5-59.5T151,252t20.5-98.5t54-59.5T298,74Zm58,496q-27,0-46,11.5t-35,23T238,616q-16,0-27.5-11T196,571H140q8,55 35.5,82.5T243,681q27,0 45.5-11.5t35-23.5T361,634q17,0 28.5,11.5T404,679h56q-7-54-35-81.5T356,570Z" />
      <glyph unicode="&#xf6;" glyph-name="gid99" horiz-adv-x="599" d="M298-12q-71,0-127.5,33t-89,92.5T49,251q0,80 33,139.5T172,483t128,33q72,0 128-33t88.5-92T549,252T516.5,113T427,21T298-12Zm0,86q41,0 74.5,20t54,59.5T447,252t-20,98.5T373.5,410T300,430t-74-20t-54.5-59.5T151,252t20.5-98.5t54-59.5T298,74ZM217,570q-23,0-38.5,15.5T163,624q0,22 15.5,38T217,678q22,0 38.5-16T272,624q0-23-16.5-38.5T217,570Zm168,0q-23,0-39,15.5T330,624q0,22 16,38t39,16q22,0 37.5-16T438,624q0-23-15.5-38.5T385,570Z" />
      <glyph unicode="&#xf7;" glyph-name="gid215" horiz-adv-x="559" d="M75,248v84H484V248H75ZM280,71q-28,0-46.5,18.5T215,134q0,27 18.5,45.5T280,198q29,0 47-18.5T345,134q0-26-18-44.5T280,71Zm0,313q-28,0-46.5,18.5T215,448t18.5,45.5T280,512q29,0 47-18.5T345,448t-18-45.5T280,384Z" />
      <glyph unicode="&#xf8;" glyph-name="gid101" horiz-adv-x="596" d="M37,0L472,504h87L124,0H37ZM297-12q-71,0-127.5,33t-89,92.5T48,251q0,80 32.5,139.5T170,483t128,33q72,0 128.5-33t89-92T548,252T515,113T425.5,21T297-12Zm0,86q40,0 74,20t54.5,59.5T446,252t-20,98.5T372.5,410T298,430q-39,0-73-20t-54.5-59.5T150,252t20.5-98.5t54-59.5T297,74Z" />
      <glyph unicode="&#xf9;" glyph-name="gid115" horiz-adv-x="587" d="M253-12q-59,0-102.5,24t-67,72T60,205V504H160V216q0-71 31-107t89-36q39,0 70.5,19T400,147t18,88V504H518V0H429l-7,86q-23-46-67-72T253-12ZM387,547L177,661l13,82L397,616l-10-69Z" />
      <glyph unicode="&#xfa;" glyph-name="gid112" horiz-adv-x="587" d="M253-12q-59,0-102.5,24t-67,72T60,205V504H160V216q0-71 31-107t89-36q39,0 70.5,19T400,147t18,88V504H518V0H429l-7,86q-23-46-67-72T253-12ZM187,547l-10,69L384,743l13-82L187,547Z" />
      <glyph unicode="&#xfb;" glyph-name="gid113" horiz-adv-x="587" d="M253-12q-59,0-102.5,24t-67,72T60,205V504H160V216q0-71 31-107t89-36q39,0 70.5,19T400,147t18,88V504H518V0H429l-7,86q-23-46-67-72T253-12ZM147,550v75l140,81l141-81V550L287,633L147,550Z" />
      <glyph unicode="&#xfc;" glyph-name="gid114" horiz-adv-x="587" d="M253-12q-59,0-102.5,24t-67,72T60,205V504H160V216q0-71 31-107t89-36q39,0 70.5,19T400,147t18,88V504H518V0H429l-7,86q-23-46-67-72T253-12ZM204,570q-23,0-38.5,15.5T150,624q0,22 15.5,38T204,678q22,0 38.5-16T259,624q0-23-16.5-38.5T204,570Zm168,0q-23,0-39,15.5T317,624q0,22 16,38t39,16q22,0 37.5-16T425,624q0-23-15.5-38.5T372,570Z" />
      <glyph unicode="&#xfd;" glyph-name="gid120" horiz-adv-x="571" d="M126-220L249,56H220L21,504H129L287,138L446,504H551L231-220H126Zm60,767l-10,69L383,743l13-82L186,547Z" />
      <glyph unicode="&#xfe;" glyph-name="gid105" horiz-adv-x="635" d="M68-220V720H168V426q16,23 40,43.5T265.5,503T344,516q72,0 126.5-34.5t85-94.5T586,251T555.5,115.5T470,22T343-12q-59,0-104,23.5T168,77V-220H68ZM327,75q46,0 81.5,22t56,62T485,252t-20.5,92.5t-56,62T327,429q-47,0-82.5-22.5t-55.5-62T169,252t20-93t55.5-62T327,75Z" />
      <glyph unicode="&#xff;" glyph-name="gid121" horiz-adv-x="571" d="M126-220L249,56H220L21,504H129L287,138L446,504H551L231-220H126Zm77,790q-23,0-38.5,15.5T149,624q0,22 15.5,38T203,678q22,0 38.5-16T258,624q0-23-16.5-38.5T203,570Zm168,0q-23,0-39,15.5T316,624q0,22 16,38t39,16q22,0 37.5-16T424,624q0-23-15.5-38.5T371,570Z" />
      <glyph unicode="&#x2013;" glyph-name="gid172" horiz-adv-x="677" d="M74,253v84H604V253H74Z" />
      <glyph unicode="&#x2014;" glyph-name="gid173" horiz-adv-x="887" d="M74,253v84H813V253H74Z" />
      <glyph unicode="&#x2018;" glyph-name="gid185" horiz-adv-x="224" d="M30,462l94,238h70L139,462H30Z" />
      <glyph unicode="&#x2019;" glyph-name="gid186" horiz-adv-x="224" d="M194,700L100,462H30L85,700H194Z" />
      <glyph unicode="&#x201a;" glyph-name="gid181" horiz-adv-x="209" d="M10-118L66,117H175L80-118H10Z" />
      <glyph unicode="&#x201c;" glyph-name="gid183" horiz-adv-x="394" d="M199,462l95,238h70L308,462H199ZM30,462l94,238h70L139,462H30Z" />
      <glyph unicode="&#x201d;" glyph-name="gid184" horiz-adv-x="394" d="M195,700L100,462H30L86,700H195Zm169,0L270,462H200l55,238H364Z" />
      <glyph unicode="&#x201e;" glyph-name="gid182" horiz-adv-x="381" d="M10-118L66,117H175L80-118H10Zm173,0l55,235H347L253-118H183Z" />
      <glyph unicode="&#x2022;" glyph-name="gid166" horiz-adv-x="369" d="M183,207q-34,0-62.5,17t-45,45.5T59,333q0,36 16.5,64.5t45,45.5T183,460q36,0 64.5-17T293,397.5T310,333q0-35-17-63.5T247.5,224T183,207Z" />
      <glyph unicode="&#x2039;" glyph-name="gid189" horiz-adv-x="287" d="M139,120L44,295l95,175h97L138,295l98-175H139Z" />
      <glyph unicode="&#x203a;" glyph-name="gid190" horiz-adv-x="287" d="M148,120H51l98,175L51,470h97l95-175L148,120Z" />
    </font>
</defs>
</svg>
